<svg width="120" height="120" viewBox="0 0 120 120" fill="none" xmlns="http://www.w3.org/2000/svg">
<path d="M100.417 66.8631C97.0303 70.2501 91.5383 70.2501 88.1503 66.8631L42.5703 21.2831L54.8373 9.01611L100.417 54.5961C103.805 57.9831 103.805 63.4751 100.417 66.8631Z" fill="#F2FAFD" stroke="black" stroke-width="4" stroke-miterlimit="10" stroke-linecap="round" stroke-linejoin="round"/>
<path d="M57.0391 35.7512L88.1511 66.8632C91.5381 70.2502 97.0301 70.2502 100.418 66.8632C103.805 63.4762 103.805 57.9842 100.418 54.5962L80.2511 34.4292" fill="#EB5757"/>
<path d="M57.0391 35.7512L88.1511 66.8632C91.5381 70.2502 97.0301 70.2502 100.418 66.8632C103.805 63.4762 103.805 57.9842 100.418 54.5962L80.2511 34.4292" stroke="black" stroke-width="4" stroke-miterlimit="10" stroke-linecap="square" stroke-linejoin="round"/>
<path d="M64.2852 42.9978L67.5682 39.7148" stroke="black" stroke-width="4" stroke-miterlimit="10" stroke-linecap="round" stroke-linejoin="round"/>
<path d="M71.8008 50.512L75.0848 47.229" stroke="black" stroke-width="4" stroke-miterlimit="10" stroke-linecap="round" stroke-linejoin="round"/>
<path d="M79.3125 58.0267L82.5965 54.7427" stroke="black" stroke-width="4" stroke-miterlimit="10" stroke-linecap="round" stroke-linejoin="round"/>
<path d="M86.8281 65.5408L90.1111 62.2568" stroke="black" stroke-width="4" stroke-miterlimit="10" stroke-linecap="round" stroke-linejoin="round"/>
<path d="M40.5547 23.298L56.8527 7" stroke="black" stroke-width="4" stroke-miterlimit="10" stroke-linecap="round" stroke-linejoin="round"/>
<path d="M55.139 95.8341H30C25.582 95.8341 22 92.2521 22 87.8341V56.9141H63.139V87.8341C63.139 92.2521 59.557 95.8341 55.139 95.8341Z" fill="#F2FAFD" stroke="black" stroke-width="4" stroke-miterlimit="10" stroke-linecap="round" stroke-linejoin="round"/>
<path d="M63.139 80.9878V87.8338C63.139 92.2518 59.557 95.8338 55.139 95.8338H30C25.582 95.8338 22 92.2518 22 87.8338V80.9878" fill="#EBACE3"/>
<path d="M63.139 80.9878V87.8338C63.139 92.2518 59.557 95.8338 55.139 95.8338H30C25.582 95.8338 22 92.2518 22 87.8338V80.9878" stroke="black" stroke-width="4" stroke-miterlimit="10" stroke-linecap="round" stroke-linejoin="round"/>
<path d="M18 56.9141H67.139" stroke="black" stroke-width="4" stroke-miterlimit="10" stroke-linecap="round" stroke-linejoin="round"/>
<path d="M22 66.644H26.644" stroke="black" stroke-width="4" stroke-miterlimit="10" stroke-linecap="round" stroke-linejoin="round"/>
<path d="M22 76.374H26.644" stroke="black" stroke-width="4" stroke-miterlimit="10" stroke-linecap="round" stroke-linejoin="round"/>
<path d="M22 86.104H26.644" stroke="black" stroke-width="4" stroke-miterlimit="10" stroke-linecap="round" stroke-linejoin="round"/>
</svg>
