<svg width="169" height="148" viewBox="0 0 169 148" fill="none" xmlns="http://www.w3.org/2000/svg">
<g clip-path="url(#clip0)">
<path d="M113.105 50.1698C110.837 48.0852 108.569 46.0015 106.301 43.9168C107.162 43.4335 108.001 42.847 108.534 42.0163C109.067 41.1855 109.239 40.0632 108.746 39.2075C108.254 38.3519 106.998 37.9554 106.21 38.5514C105.866 38.812 105.589 39.2419 105.158 39.2531C104.981 39.2574 104.812 39.1869 104.649 39.1164C102.481 38.1816 100.314 37.2468 98.1458 36.312C97.7907 36.1589 97.4088 35.9817 97.2282 35.6403C97.0442 35.292 97.1233 34.8508 97.3314 34.5163C97.5395 34.1818 97.8586 33.9341 98.1768 33.701C100.596 31.9269 103.423 30.5819 106.418 30.4073C109.412 30.2327 112.576 31.3739 114.367 33.781C115.44 35.2249 115.958 36.9922 116.601 38.6718C117.244 40.3513 118.099 42.0567 119.613 43.1523C122.2 45.3092 125.438 46.4839 128.536 47.804C131.635 49.1241 134.774 50.7211 136.791 53.418C139.002 56.3755 139.539 60.5052 138.157 63.9296C136.775 67.3541 133.522 69.9547 129.877 70.549C128.972 67.7781 127.835 65.3022 126.412 62.8392C125.316 60.9412 124.423 58.9314 123.342 57.0248C122.261 55.1182 120.964 53.289 119.225 51.9543C117.488 50.6196 115.253 49.8215 113.105 50.1698Z" fill="#F6817B"/>
<path d="M98.9462 61.4603C96.7093 60.1901 95.5784 57.4072 95.8897 54.8539C96.201 52.3006 97.7757 50.0165 99.8028 48.4332C101.079 48.8658 102.465 48.7574 103.81 48.8538C105.154 48.9501 106.605 49.3328 107.392 50.4275C107.592 50.7062 107.744 51.0596 107.644 51.3882C107.546 51.7072 107.242 51.9102 106.963 52.0933C103.59 54.3121 100.892 57.5431 98.9462 61.4603Z" fill="#F6817B"/>
<path d="M107.85 51.7527C107.523 50.5341 106.518 49.5752 105.362 49.073C104.205 48.5699 102.91 48.4745 101.65 48.5372C100.817 48.5785 99.8868 48.6585 99.2444 48.1262C98.8204 47.7753 98.6183 47.2266 98.4876 46.6926C98.3182 46.0037 98.2356 45.2942 98.2433 44.5856C98.2476 44.2003 98.2666 43.7781 98.0326 43.4728C97.9269 43.3343 97.7781 43.2345 97.6671 43.1004C97.41 42.7899 97.3936 42.3513 97.3893 41.948C97.367 39.9356 97.3446 37.9241 97.3223 35.9117C99.7673 37.7564 103.097 37.9663 105.722 39.5452C105.624 38.8968 106.225 38.2741 106.88 38.2363C107.534 38.1985 108.153 38.6508 108.441 39.2408C108.728 39.8307 108.726 40.5264 108.576 41.1646C108.293 42.366 107.477 43.4444 106.368 43.9879C108.53 46.0304 110.693 48.0737 112.855 50.1162C111.132 50.2899 109.442 50.7775 107.85 51.7527Z" fill="#CB9476"/>
<path d="M73.9072 75.4706C76.2954 72.8451 79.8533 71.3246 83.4018 71.4132C81.8047 69.7345 80.2085 68.0558 78.6115 66.3771C78.0335 65.7691 77.3791 65.1233 76.544 65.0459C75.6539 64.9633 74.8222 65.5593 73.9287 65.5567C72.716 65.5524 71.7924 64.48 71.1998 63.4222C70.4112 62.0144 69.8857 60.4595 69.6604 58.8625C69.6243 58.6054 69.5976 58.3336 69.6982 58.0946C69.7988 57.8555 70.0723 57.6689 70.3174 57.7531C70.5307 57.8262 70.6382 58.0593 70.7216 58.2691C71.0803 59.1687 71.438 60.0682 71.7967 60.9678C72.0168 61.5199 72.2774 62.1184 72.8072 62.3876C74.1376 63.0636 75.7184 61.1234 77.0781 61.7392C77.1864 60.0777 76.9353 58.3938 76.3462 56.8373C76.0942 56.1708 75.7743 55.4742 75.9119 54.775C76.0495 54.0758 76.9198 53.4945 77.4848 53.9288C77.6895 56.4718 79.0398 58.8161 80.7959 60.6668C82.5521 62.5183 84.7039 63.9399 86.847 65.3245C88.9902 66.7099 91.1626 68.0894 92.9833 69.8773C93.8158 70.6951 94.6552 71.5439 95.8067 71.3556C96.8215 71.1896 97.5809 70.3038 97.9697 69.3518C98.3584 68.3998 98.3524 67.164 99.4498 66.4906C102.82 68.0421 106.51 69.8188 109.828 71.4768C107.505 74.553 105.611 77.5853 103.287 80.6615C102.953 81.1044 102.147 81.6187 101.609 81.7563C101.173 81.8672 100.716 81.7348 100.285 81.6032C94.7609 79.9142 89.237 78.2252 83.7131 76.5362C80.6196 75.591 77.4066 74.6347 73.9072 75.4706Z" fill="#CB9476"/>
<path d="M112.692 85.4806C112.75 80.9493 112.808 76.4189 112.866 71.8876C113.207 71.2022 113.548 70.5159 113.889 69.8305C108.862 67.426 103.93 64.8237 99.0459 62.2317C100.811 57.6806 104.337 53.839 108.719 51.6908C111.552 50.3019 114.992 49.638 117.836 51.0054C120.143 52.1156 121.668 54.355 123.001 56.542C128.343 65.3096 132.433 75.0687 133.144 85.3111C126.407 85.0033 119.66 84.9147 112.692 85.4806Z" fill="#2B5B22"/>
<path d="M97.7851 109.035C93.5229 107.012 89.2615 104.991 84.9992 102.968C86.5524 106.938 87.0401 111.251 87.0736 115.513C87.0934 118.032 86.9489 120.603 86.0416 122.952C85.1342 125.302 83.3549 127.425 80.9606 128.21C78.2971 129.084 75.2698 128.146 73.1413 126.323C71.0118 124.499 69.6737 121.91 68.7973 119.166C65.3013 111.552 63.2381 103.284 62.7479 94.9193C62.5553 91.629 62.6095 88.2794 63.5108 85.1094C64.4121 81.9395 66.2353 78.9399 68.9925 77.1339C71.6844 75.3709 75.0505 74.8764 78.2575 75.1387C81.4645 75.401 84.6535 76.8372 87.7255 77.7944C96.1012 80.4044 103.961 82.7126 112.414 85.1456C119.343 85.112 126.273 85.1473 133.203 85.2496C133.307 89.6227 132.156 94.0181 129.922 97.7788C129.626 98.2784 129.297 98.7815 128.816 99.1066C128.067 99.6123 127.097 99.5994 126.194 99.5787C118.065 99.3904 109.919 99.9933 101.883 101.435C100.672 101.705 99.494 102.119 98.3803 102.666C98.0819 102.812 97.7714 102.985 97.6183 103.28C97.479 103.548 97.4962 103.865 97.5168 104.166C97.6243 105.773 97.7327 107.381 97.7851 109.035Z" fill="#98D5E9"/>
<path d="M64.3596 82.4906C63.1754 82.5723 62.115 83.311 61.3753 84.239C60.6357 85.1669 58.791 88.1691 58.3326 89.2639C54.4161 98.6137 51.8463 106.351 51.5797 116.484C51.5152 118.938 51.6812 121.451 52.6229 123.718C53.5646 125.985 55.387 127.987 57.7512 128.648C60.1627 129.321 62.8021 128.512 64.8318 127.047C66.8614 125.581 68.3776 123.523 69.7734 121.445C67.9373 118.502 66.8416 115.162 65.8982 111.824C64.6039 107.245 63.5624 102.595 62.7806 97.9016C62.3549 95.3483 62.0049 92.7614 62.1502 90.1772C62.2956 87.5912 62.9629 84.9871 64.3596 82.4906Z" fill="#98D5E9"/>
<path d="M98.4502 116.849C98.1285 112.133 97.806 107.418 97.4844 102.702C101.91 100.891 106.763 100.465 111.535 100.149C118.201 99.7082 124.879 99.4442 131.583 99.4769C132.628 91.7877 133.673 84.0985 134.718 76.4085C134.841 75.5064 134.847 74.4428 135.382 73.7058C136.204 72.574 137.846 72.3537 139.22 72.0957C139.746 71.9968 140.33 71.9082 140.78 72.1954C141.461 72.6289 141.434 73.6127 141.327 74.4116C139.647 86.9941 137.966 99.5757 136.311 112.237C136.024 113.824 135.944 114.843 135.658 116.917C123.52 117.008 110.232 116.948 98.4502 116.849Z" fill="#D69E20"/>
<path d="M61.038 135.999C60.78 137.774 60.7276 139.579 60.8824 141.366C55.2338 141.214 49.5851 141.062 43.9365 140.91C44.3562 139.401 45.8647 138.414 47.3947 138.078C48.9238 137.743 50.5114 137.921 52.0775 137.959C53.6427 137.997 55.2931 137.867 56.6038 137.01C56.9753 136.768 57.3357 136.426 57.3804 135.984C58.4631 135.886 59.5468 135.786 61.038 135.999Z" fill="#EBACE3"/>
<path d="M83.6105 135.687C83.3534 137.465 83.405 139.288 83.7636 141.048C78.9811 141.052 74.1976 141.057 69.415 141.06C69.4632 140.187 70.0153 139.399 70.7249 138.889C71.4344 138.378 72.2875 138.109 73.1389 137.911C74.4152 137.614 75.725 137.459 77.0357 137.451C77.7314 137.446 78.4547 137.477 79.0903 137.195C79.7258 136.913 80.235 136.195 80.0182 135.535C81.1509 135.514 82.2852 135.492 83.6105 135.687Z" fill="#EBACE3"/>
<path d="M78.1709 128.466C78.8563 130.105 79.5418 131.742 80.2281 133.38C80.2582 133.452 80.29 133.526 80.3502 133.575C80.4259 133.636 80.5308 133.644 80.6288 133.649C81.562 133.696 82.4951 133.743 83.4282 133.791C83.2038 131.558 82.8941 129.334 82.4994 127.126C81.4803 128.122 79.9718 128.59 78.1709 128.466Z" fill="#CB9476"/>
<path d="M58.2758 128.862C58.1012 130.553 57.9275 132.243 57.7529 133.933C58.9217 133.737 60.1171 133.7 61.2962 133.821C61.4553 131.977 61.8982 130.157 62.6043 128.446C61.3237 129.14 59.7525 129.275 58.2758 128.862Z" fill="#CB9476"/>
<path d="M56.6331 134.649C56.5092 134.469 56.6176 134.205 56.8016 134.088C56.9857 133.97 57.2153 133.959 57.4338 133.951C58.7754 133.903 60.1196 133.854 61.4604 133.929C61.5868 133.936 61.7192 133.946 61.8259 134.015C61.9729 134.11 62.0331 134.291 62.0839 134.458C62.1458 134.664 62.2077 134.889 62.1295 135.089C62.0134 135.385 61.6539 135.489 61.34 135.545C60.142 135.758 58.9173 135.821 57.7038 135.736C57.4406 135.718 57.1697 135.691 56.9358 135.568C56.701 135.447 56.5084 135.21 56.6331 134.649Z" fill="white"/>
<path d="M43.9165 143.38C43.3867 143.379 42.9653 142.785 43.0935 142.271C43.1932 141.87 43.5501 141.571 43.9397 141.431C44.3293 141.291 44.7525 141.28 45.1661 141.273C50.0691 141.176 54.9721 141.08 59.8751 140.984C60.2827 140.976 60.7102 140.973 61.0705 141.161C61.4601 141.365 61.7215 141.796 61.7138 142.236C61.7061 142.675 61.424 143.1 61.0189 143.271C60.7747 143.374 60.5029 143.387 60.238 143.399C54.917 143.618 49.5944 143.385 43.9165 143.38Z" fill="white"/>
<path d="M72.0495 141.006C75.9428 141.02 79.8361 141.034 83.7294 141.049C83.7604 141.635 83.7914 142.223 83.8215 142.809C83.8275 142.929 83.8258 143.071 83.7303 143.144C83.6649 143.195 83.5755 143.199 83.4929 143.2C79.081 143.24 74.6691 143.281 70.2572 143.322C69.7756 143.326 69.2381 143.309 68.8984 142.968C68.4899 142.558 68.5604 141.889 68.6593 141.319C70.0362 141.069 71.4286 141.003 72.0495 141.006Z" fill="white"/>
<path d="M153.297 139.779V127.998H151.405V139.779H153.297Z" fill="#FDA7A0"/>
<path d="M145.524 139.889L147.268 147.348L156.375 147.394L158.18 139.857L145.524 139.889Z" fill="#B8BABB"/>
<path d="M98.8271 116.612L101.162 144.884L104.778 144.755L104.903 116.978L98.8271 116.612Z" fill="#B8BABB"/>
<path d="M127.406 117.002L135.582 116.792L131.894 144.337L127.797 144.07L127.406 117.002Z" fill="#B8BABB"/>
<path d="M80.376 133.817C81.6505 133.775 82.9268 133.788 84.2005 133.855C84.3484 133.863 84.5066 133.875 84.6228 133.967C84.7905 134.099 84.8094 134.341 84.8145 134.554C84.8197 134.768 84.8188 135.002 84.6855 135.168C84.529 135.364 84.2495 135.398 84.0001 135.413C82.5114 135.503 81.0193 135.459 79.5289 135.416C79.4592 135.414 79.3844 135.411 79.3276 135.37C79.2562 135.321 79.2313 135.229 79.2141 135.143C79.1479 134.818 79.1281 134.469 79.2571 134.163C79.3852 133.856 79.663 133.841 80.376 133.817Z" fill="white"/>
<path d="M97.2461 65.4033C97.7483 64.1967 98.3779 63.0435 99.1201 61.9685C103.943 64.6534 108.766 67.3374 113.589 70.0223C113.13 70.6544 112.67 71.2865 112.21 71.9177C112.069 72.1112 111.921 72.3125 111.705 72.4157C111.266 72.6246 110.76 72.358 110.348 72.1009C106.254 69.5528 101.977 67.2454 97.2461 65.4033Z" fill="white"/>
<path d="M2.62542 58.8711L2.27539 33.7938L27.259 23.4215L27.9814 58.5452L2.62542 58.8711Z" fill="white"/>
<path d="M39.9658 37.7618L40.5936 10.0245L57.8224 9.94885L57.6453 37.4014L39.9658 37.7618Z" fill="white"/>
<path d="M74.7266 21.2309L74.9708 2.2312L103.609 2.29054L104.549 20.4406L74.7266 21.2309Z" fill="white"/>
<path d="M72.298 62.4262L66.6992 48.6251L66.9168 47.8193L72.6746 46.4149L73.8727 47.9448L75.7613 54.1135C75.7613 54.1135 75.8464 55.665 76.4304 56.6806C77.0143 57.6963 77.342 59.5977 77.342 59.5977L77.1854 61.26L76.5731 61.7606L73.3145 62.7719L72.298 62.4262Z" fill="white"/>
<path d="M153.034 127.771C152.164 129.098 150.412 129.592 148.83 129.466C148.111 129.408 147.509 129.456 147.017 128.929C146.525 128.402 145.899 127.825 146.242 127.19C146.586 126.555 147.952 126.022 148.514 126.475C146.402 125.075 144.237 123.623 142.803 121.534C141.37 119.445 140.824 116.539 142.148 114.379C143.071 112.873 144.783 111.874 145.343 110.198C145.794 108.85 145.377 107.351 144.689 106.107C144 104.863 143.053 103.78 142.326 102.558C139.838 98.377 140.291 92.7811 143.002 88.7409C145.713 84.7007 150.417 82.2118 155.254 81.6855C157.522 81.4387 159.881 81.6021 161.972 82.5163C164.064 83.4305 165.86 85.1607 166.523 87.3443C167.265 89.7866 166.531 92.4603 165.298 94.6946C164.065 96.9288 162.358 98.8629 160.95 100.991C160.081 102.303 159.303 103.935 159.885 105.397C160.497 106.937 162.29 107.547 163.713 108.397C166.093 109.819 167.788 112.464 167.759 115.236C167.731 117.919 166.151 120.397 164.104 122.133C162.057 123.868 159.567 124.979 157.113 126.067C157.636 125.44 158.812 125.876 158.99 126.672C159.169 127.469 158.56 128.281 157.802 128.581C157.043 128.881 156.187 128.783 155.391 128.601C154.593 128.422 153.804 128.163 153.034 127.771Z" fill="#8CAA84"/>
<path d="M98.5344 43.8187C98.4906 43.8187 98.4467 43.8093 98.4046 43.7886L97.1962 43.2081C97.0776 43.1514 96.8574 43.0456 96.7723 42.8065C96.6811 42.5468 96.8135 42.306 96.8772 42.1908L98.5387 39.1739C98.6187 39.0286 98.8019 38.9753 98.9472 39.0553C99.0926 39.1352 99.1459 39.3184 99.0659 39.4638L97.4044 42.4806C97.3682 42.5468 97.3519 42.5838 97.3459 42.6044C97.3657 42.619 97.4026 42.6397 97.456 42.6655L98.6643 43.246C98.8139 43.3182 98.8776 43.498 98.8053 43.6476C98.7537 43.7551 98.6462 43.8187 98.5344 43.8187Z" fill="#2E3233"/>
<path d="M97.3779 42.2069C97.218 42.2069 97.0847 42.0804 97.0778 41.9196C96.9901 39.9528 96.9385 37.9568 96.9238 35.9874C96.923 35.8214 97.0563 35.6856 97.2223 35.6838C97.2231 35.6838 97.224 35.6838 97.2248 35.6838C97.39 35.6838 97.5241 35.8171 97.5259 35.9823C97.5405 37.9439 97.5921 39.933 97.6789 41.8921C97.6867 42.0581 97.5577 42.1991 97.3917 42.206C97.3874 42.2069 97.3822 42.2069 97.3779 42.2069Z" fill="#2E3233"/>
<path d="M107.715 52.097C107.71 52.097 107.705 52.097 107.7 52.097C107.534 52.0884 107.406 51.9474 107.414 51.7814C107.451 51.0453 106.99 50.2601 106.24 49.7802C105.626 49.3881 104.862 49.1696 103.761 49.0725C103.454 49.0449 103.138 49.0277 102.831 49.0114C102.23 48.9787 101.608 48.9443 100.998 48.8342C100.182 48.6872 99.5641 48.4214 99.11 48.0215C98.5579 47.5357 98.1812 46.784 97.9894 45.7882C97.9223 45.4407 97.8793 45.0881 97.838 44.7476C97.7839 44.3081 97.7331 43.8927 97.6359 43.4825C97.5981 43.3208 97.6979 43.1583 97.8595 43.1205C98.0212 43.0818 98.1838 43.1824 98.2216 43.3441C98.3265 43.787 98.3816 44.2385 98.4349 44.6745C98.4753 45.0056 98.5175 45.3478 98.5802 45.6755C98.7454 46.5372 99.0576 47.1745 99.5074 47.5701C99.8772 47.8951 100.399 48.1153 101.104 48.2417C101.678 48.3449 102.281 48.3784 102.864 48.4103C103.174 48.4275 103.496 48.4447 103.813 48.473C104.56 48.5393 105.657 48.6932 106.564 49.2728C107.493 49.8671 108.063 50.8638 108.016 51.8115C108.008 51.9715 107.875 52.097 107.715 52.097Z" fill="#2E3233"/>
<path d="M105.369 44.5129C105.221 44.5129 105.092 44.4037 105.071 44.2523C105.049 44.0872 105.164 43.9358 105.328 43.9135C106.316 43.7785 107.247 43.2117 107.82 42.3965C108.393 41.5812 108.611 40.5131 108.404 39.5387C108.308 39.0924 108.139 38.7751 107.9 38.5945C107.434 38.2444 106.711 38.4388 106.281 38.8292C105.781 39.2825 105.508 39.9782 105.268 40.5914C105.208 40.7462 105.033 40.8227 104.878 40.7616C104.723 40.7006 104.646 40.526 104.708 40.3712C104.972 39.6961 105.272 38.9307 105.875 38.382C106.478 37.8351 107.52 37.5539 108.262 38.112C108.621 38.382 108.867 38.8189 108.993 39.4115C109.235 40.5466 108.98 41.791 108.313 42.7413C107.645 43.6907 106.56 44.3512 105.41 44.5086C105.396 44.512 105.383 44.5129 105.369 44.5129Z" fill="#2E3233"/>
<path d="M105.977 42.5353C105.951 42.5353 105.925 42.5319 105.898 42.525C105.737 42.4811 105.643 42.316 105.687 42.1552C105.928 41.266 106.298 40.4189 106.786 39.638C106.875 39.497 107.06 39.454 107.201 39.5426C107.342 39.6303 107.385 39.816 107.296 39.9571C106.84 40.6881 106.493 41.481 106.267 42.3134C106.231 42.4467 106.11 42.5353 105.977 42.5353Z" fill="#2E3233"/>
<path d="M107.175 41.8095C107.103 41.8095 107.031 41.7837 106.973 41.7321C106.791 41.5679 106.583 41.4389 106.354 41.3494C106.199 41.2892 106.122 41.1147 106.183 40.9599C106.243 40.8051 106.417 40.7285 106.572 40.7887C106.869 40.9048 107.14 41.0717 107.376 41.2858C107.499 41.3976 107.51 41.5877 107.398 41.7106C107.339 41.776 107.258 41.8095 107.175 41.8095Z" fill="#2E3233"/>
<path d="M112.718 50.2953C112.644 50.2953 112.57 50.2687 112.513 50.2136L106.119 44.2195C105.997 44.106 105.991 43.9151 106.105 43.7938C106.218 43.6725 106.409 43.6665 106.53 43.78L112.925 49.7742C113.046 49.8877 113.052 50.0786 112.938 50.1999C112.878 50.2635 112.798 50.2953 112.718 50.2953Z" fill="#2E3233"/>
<path d="M129.886 70.5694C129.728 70.5694 129.597 70.4473 129.586 70.289C129.574 70.1231 129.7 69.9795 129.866 69.9683C131.801 69.8376 133.734 69.0016 135.311 67.6136C136.867 66.2428 137.979 64.4274 138.442 62.5001C139.369 58.6414 137.87 54.2184 134.712 51.494C132.556 49.6347 129.797 48.5795 127.129 47.5595C126.654 47.3781 126.163 47.1898 125.683 47.0006C122.606 45.7862 119.204 44.1351 117.307 41.0924C116.678 40.0828 116.246 38.9614 115.83 37.8769C115.385 36.7194 114.925 35.5223 114.228 34.498C112.582 32.0746 109.446 30.5765 106.24 30.6823C103.303 30.7786 100.342 32.0944 97.9025 34.388C97.6127 34.6606 97.4149 34.8945 97.3951 35.1525C97.3641 35.5481 97.7528 35.9153 98.5501 36.2455L105.562 39.1437C105.716 39.2073 105.789 39.3836 105.725 39.5367C105.662 39.6906 105.485 39.7637 105.332 39.7001L98.3205 36.8019C97.2549 36.3616 96.7415 35.7906 96.7948 35.106C96.8326 34.6296 97.1508 34.2693 97.4897 33.9502C100.035 31.5569 103.136 30.1835 106.22 30.082C109.626 29.9693 112.967 31.5715 114.726 34.1609C115.462 35.2428 115.934 36.4726 116.391 37.6619C116.798 38.7197 117.219 39.8136 117.818 40.7751C119.623 43.669 122.919 45.2642 125.904 46.4424C126.38 46.6308 126.871 46.8182 127.344 46.9988C130.061 48.0377 132.87 49.1118 135.105 51.0399C138.429 53.9071 140.006 58.57 139.028 62.642C138.537 64.6888 137.358 66.6152 135.709 68.0668C134.034 69.5417 131.974 70.4309 129.907 70.5703C129.9 70.5694 129.893 70.5694 129.886 70.5694Z" fill="#2E3233"/>
<path d="M98.7468 45.2808C98.561 45.2808 98.3761 45.2653 98.1938 45.2344C98.0295 45.206 97.9194 45.0512 97.9478 44.8869C97.9762 44.7235 98.131 44.6135 98.2953 44.641C98.93 44.7493 99.612 44.6238 100.167 44.2961C100.721 43.9685 101.161 43.4318 101.372 42.8238C101.426 42.6665 101.597 42.5839 101.755 42.6381C101.913 42.6923 101.995 42.8643 101.941 43.0216C101.684 43.7621 101.149 44.4157 100.473 44.8147C99.9568 45.12 99.3497 45.2808 98.7468 45.2808Z" fill="#2E3233"/>
<path d="M129.085 99.6337C129.032 99.6337 128.978 99.6191 128.929 99.5898C128.787 99.503 128.742 99.3181 128.829 99.1762C128.924 99.0205 129.035 98.8485 129.164 98.649C131.437 95.1342 138.356 84.4386 123.436 57.6989C119.639 50.8938 115.465 49.0131 109.477 51.4098C106.829 52.4702 104.386 54.443 102.218 57.2724C100.332 59.7345 98.8776 62.5312 97.4818 65.2522C102.965 67.7771 107.523 70.0759 111.775 72.4615C113.736 69.4309 115.892 66.4846 118.188 63.6999C118.293 63.5718 118.484 63.5537 118.612 63.6587C118.74 63.7644 118.759 63.9545 118.653 64.0826C116.313 66.9214 114.118 69.9305 112.128 73.0248C112.042 73.1589 111.867 73.2019 111.727 73.1245C107.346 70.6564 102.65 68.2863 96.946 65.6676C96.8712 65.6332 96.8145 65.5704 96.7869 65.4922C96.7603 65.4148 96.7663 65.3296 96.8033 65.2565C98.255 62.4246 99.7566 59.4955 101.741 56.906C103.976 53.9889 106.503 51.9516 109.255 50.8508C112.442 49.5755 115.148 49.4766 117.527 50.5499C119.875 51.6085 121.98 53.8513 123.964 57.4057C139.06 84.4618 131.993 95.3862 129.671 98.9758C129.544 99.1719 129.434 99.3413 129.343 99.4901C129.285 99.5821 129.187 99.6337 129.085 99.6337Z" fill="#2E3233"/>
<path d="M113.78 70.3269C113.727 70.3269 113.672 70.3122 113.623 70.283C108.849 67.3659 103.879 64.6449 98.8508 62.1931C98.7012 62.12 98.6392 61.9402 98.7123 61.7906C98.7854 61.641 98.966 61.5791 99.1148 61.6522C104.161 64.1117 109.148 66.8422 113.937 69.7696C114.079 69.8564 114.124 70.0413 114.037 70.1832C113.98 70.2761 113.881 70.3269 113.78 70.3269Z" fill="#2E3233"/>
<path d="M112.584 85.4928C112.506 85.4928 112.43 85.4627 112.374 85.4077C112.315 85.3492 112.282 85.2692 112.283 85.1867C112.369 80.6347 112.407 76.149 112.443 71.8104V71.7872C112.445 71.6221 112.579 71.4888 112.744 71.4888C112.745 71.4888 112.746 71.4888 112.747 71.4888C112.913 71.4905 113.047 71.6264 113.045 71.7923V71.8156C113.01 76.0536 112.974 80.4326 112.891 84.8771C119.576 84.5795 126.351 84.5812 133.032 84.8831C133.198 84.8908 133.327 85.031 133.319 85.197C133.312 85.363 133.169 85.4911 133.005 85.4842C126.235 85.1781 119.369 85.1815 112.599 85.4928C112.594 85.4928 112.589 85.4928 112.584 85.4928Z" fill="#2E3233"/>
<path d="M99.0617 61.6094C99.0152 61.6094 98.9679 61.5982 98.9232 61.5758C97.3726 60.7709 96.1892 59.1971 95.7592 57.3671C95.3688 55.7064 95.5786 53.8454 96.35 52.1263C97.0277 50.6161 98.1139 49.2187 99.5794 47.9708C99.7058 47.8633 99.8959 47.8788 100.003 48.0052C100.111 48.1316 100.096 48.3217 99.969 48.4292C98.5723 49.6177 97.5394 50.9447 96.8987 52.3722C96.1815 53.9718 95.9845 55.6961 96.3449 57.2286C96.7353 58.8901 97.8026 60.3151 99.2001 61.0409C99.3472 61.1175 99.4048 61.2989 99.3283 61.4468C99.2758 61.5509 99.17 61.6094 99.0617 61.6094Z" fill="#2E3233"/>
<path d="M73.4165 63.012C73.0278 63.012 72.639 62.9226 72.2899 62.6861C71.761 62.3275 71.4909 61.7143 71.294 61.2671C69.5111 57.22 67.9201 53.0335 66.5656 48.8248C66.4933 48.6003 66.3841 48.2606 66.5028 47.9269C66.6937 47.3912 67.3112 47.2441 67.6079 47.1727L71.7455 46.1854C72.0568 46.1106 72.4842 46.0091 72.8884 46.1502C73.567 46.3867 73.8276 47.1564 73.9678 47.5692L76.1178 53.9107C76.1711 54.0681 76.0869 54.2392 75.9295 54.2926C75.7712 54.3459 75.6009 54.2616 75.5476 54.1042L73.3976 47.7627C73.2488 47.3249 73.0596 46.8476 72.6898 46.7186C72.4688 46.6421 72.2056 46.6946 71.8839 46.7711L67.7464 47.7584C67.4514 47.8289 67.1409 47.9278 67.0687 48.129C67.0223 48.2589 67.0747 48.4446 67.1375 48.6399C68.486 52.8297 70.0693 56.9964 71.8435 61.0246C72.0611 61.5182 72.2701 61.9465 72.6261 62.1881C73.2522 62.613 74.1604 62.324 74.6463 62.1142C74.8201 62.0394 74.9972 61.9542 75.1692 61.8717C75.742 61.5982 76.3337 61.3144 77.0002 61.2731C77.1696 61.2628 77.309 61.3892 77.3193 61.5552C77.3296 61.7212 77.2032 61.8639 77.0372 61.8742C76.4876 61.9086 75.9733 62.1546 75.4281 62.4152C75.2509 62.4994 75.0677 62.5872 74.8837 62.6671C74.4666 62.8495 73.942 63.012 73.4165 63.012Z" fill="#2E3233"/>
<path d="M94.7538 71.5948C94.6914 71.5948 94.6281 71.5761 94.5735 71.536L82.142 62.4771C81.004 61.6473 79.8271 60.7902 78.9778 59.6073C77.995 58.2376 77.5642 56.5592 77.2072 54.9576C77.0832 54.3998 76.9151 54.1158 76.6785 54.0655C76.467 54.0203 76.2391 54.2011 76.1472 54.3947C76.0467 54.6079 76.0319 54.8928 76.1013 55.2655C76.2139 55.8667 76.4731 56.4629 76.7244 57.0385C77.0815 57.859 77.4507 58.7075 77.4446 59.638C77.4429 59.8563 77.4204 60.0695 77.3987 60.2759C77.3718 60.5343 77.3458 60.7791 77.3606 61.0187C77.3805 61.3454 77.5218 61.7778 77.8537 61.9236C78.0071 61.991 78.0756 62.1675 78.0071 62.3176C77.9386 62.4686 77.7592 62.5359 77.6067 62.4686C77.0269 62.2144 76.7868 61.5714 76.7548 61.0546C76.7366 60.7663 76.766 60.4857 76.7946 60.2145C76.8154 60.0132 76.8353 59.8231 76.8371 59.6337C76.8423 58.8278 76.5138 58.073 76.1663 57.2739C75.9019 56.6675 75.6298 56.0407 75.5041 55.3738C75.4105 54.8757 75.4409 54.4732 75.596 54.144C75.8205 53.6672 76.3413 53.3833 76.8067 53.483C77.533 53.6391 77.7263 54.5047 77.7982 54.8305C78.1562 56.4364 78.5531 57.9843 79.4718 59.2636C80.2639 60.368 81.4018 61.1961 82.5017 61.9978L94.9332 71.0567C95.0675 71.1548 95.0961 71.3415 94.9965 71.4746C94.9384 71.553 94.8465 71.5948 94.7538 71.5948Z" fill="#2E3233"/>
<path d="M83.2288 71.5532C83.1453 71.5532 83.0619 71.5188 83.0026 71.4509L78.5279 66.3701C78.1632 65.9564 77.7504 65.4877 77.2258 65.3037C76.7812 65.148 76.2368 65.185 75.5118 65.4181C75.4258 65.4456 75.3398 65.4748 75.2521 65.5041C74.3654 65.7982 73.3609 66.1327 72.5198 65.5858C72.1293 65.3321 71.8877 64.9485 71.6538 64.5443C70.9675 63.3567 70.3379 62.1192 69.7841 60.8653C69.551 60.3373 69.3171 59.7714 69.2509 59.1685C69.1735 58.4599 69.3558 57.7969 69.7514 57.3479C69.8615 57.2232 70.0515 57.2112 70.1762 57.3213C70.3009 57.4314 70.313 57.6214 70.2029 57.7461C69.9191 58.0678 69.7901 58.5622 69.8494 59.1023C69.9062 59.6209 70.1109 60.1162 70.3345 60.6219C70.8797 61.856 71.4989 63.0746 72.1749 64.2433C72.3779 64.5942 72.5688 64.9004 72.8475 65.0818C73.4452 65.4705 74.2674 65.1979 75.062 64.9339C75.1515 64.9038 75.24 64.8746 75.3269 64.847C75.8653 64.6733 76.6694 64.4729 77.4245 64.737C78.0979 64.9726 78.5872 65.5273 78.9794 65.9736L83.4541 71.0544C83.5642 71.1791 83.5521 71.3692 83.4274 71.4793C83.3707 71.5283 83.3001 71.5532 83.2288 71.5532Z" fill="#2E3233"/>
<path d="M68.9602 47.9603C68.8854 47.9603 68.808 47.9508 68.7297 47.925C68.5758 47.876 68.4408 47.7608 68.3694 47.6163C68.3057 47.4881 68.2963 47.3471 68.3418 47.219C68.3977 47.0624 68.5698 46.9807 68.7263 47.0358C68.8613 47.0839 68.9404 47.2181 68.9249 47.354C68.9843 47.3669 69.0901 47.3402 69.1606 47.323C69.5029 47.2379 69.8486 47.139 70.1831 47.0435L70.6605 46.9068C70.6458 46.8552 70.6441 46.7984 70.6605 46.7425C70.7052 46.5826 70.872 46.4897 71.032 46.5344C71.1636 46.5714 71.265 46.6694 71.3106 46.8036C71.3605 46.9507 71.3339 47.1183 71.2418 47.2413C71.1214 47.4013 70.9434 47.452 70.8376 47.4821L70.3491 47.6214C70.0094 47.7186 69.6585 47.8192 69.3059 47.907C69.195 47.9362 69.0797 47.9603 68.9602 47.9603Z" fill="#2E3233"/>
<path d="M73.8869 75.3802C73.7966 75.3802 73.708 75.3398 73.6487 75.2633C73.5472 75.1317 73.5713 74.9425 73.7029 74.841C75.4272 73.5089 77.3812 71.9996 79.68 71.414C81.0535 71.0639 82.5198 71.0588 83.8133 71.0545C87.7066 71.0416 91.6515 71.0493 95.5397 71.0768C96.0359 71.0803 96.471 71.0639 96.7695 70.83C96.9862 70.6598 97.1264 70.3639 97.2502 70.1025L98.9763 66.4587C99.0477 66.3082 99.2266 66.2446 99.3771 66.3151C99.5276 66.3865 99.5912 66.5654 99.5207 66.7159L97.7946 70.3596C97.6501 70.6649 97.4695 71.045 97.141 71.303C96.6525 71.6857 96.0075 71.6814 95.5353 71.678C91.6498 71.6505 87.7066 71.6427 83.815 71.6556C82.4949 71.6599 81.13 71.6642 79.8288 71.9962C77.6512 72.5517 75.7489 74.0206 74.071 75.3166C74.0159 75.3604 73.9506 75.3802 73.8869 75.3802Z" fill="#2E3233"/>
<path d="M101.338 82.0269C101.229 82.0269 101.121 82.0192 101.015 82.0031C100.853 81.9784 100.742 81.827 100.766 81.6646C100.791 81.5021 100.942 81.3899 101.103 81.4145C101.648 81.497 102.271 81.2861 102.812 80.8362C103.326 80.4093 103.719 79.8318 104.098 79.2739L109.404 71.4761C109.496 71.34 109.681 71.306 109.816 71.3987C109.951 71.4914 109.985 71.6768 109.893 71.812L104.587 79.6099C104.184 80.2018 103.768 80.815 103.189 81.2946C102.619 81.7692 101.96 82.0269 101.338 82.0269Z" fill="#2E3233"/>
<path d="M73.3647 6.48751C73.3604 6.48751 73.3561 6.48751 73.3518 6.48751C73.1859 6.48063 73.0569 6.34045 73.0637 6.17447L73.302 0.350627C73.3088 0.187229 73.4439 0.0565112 73.6073 0.0616711L80.9398 0.16745C81.1058 0.17003 81.2391 0.306768 81.2365 0.472746C81.2339 0.638723 81.0955 0.772882 80.9312 0.769442L73.8911 0.667963L73.6649 6.19855C73.658 6.36023 73.5247 6.48751 73.3647 6.48751Z" fill="#2E3233"/>
<path d="M74.6682 21.4176C74.5882 21.4176 74.5117 21.3858 74.4558 21.3299C74.3982 21.2722 74.3663 21.194 74.3672 21.1131L74.6054 2.02741C74.6071 1.8623 74.7422 1.72986 74.9064 1.72986C74.9073 1.72986 74.9082 1.72986 74.909 1.72986L103.79 1.96808C103.95 1.9698 104.081 2.09535 104.089 2.25445L104.962 20.6789C104.966 20.7606 104.937 20.8397 104.881 20.899C104.825 20.9583 104.747 20.9927 104.666 20.9936L74.6725 21.4167C74.6708 21.4176 74.6691 21.4176 74.6682 21.4176ZM75.2031 2.33357L74.9727 20.8104L104.346 20.3959L103.5 2.56749L75.2031 2.33357Z" fill="#2E3233"/>
<path d="M101.339 6.47117C101.336 6.47117 101.334 6.47117 101.332 6.47117L76.8772 5.89756C76.7112 5.89326 76.5796 5.75566 76.5831 5.58969C76.5874 5.42371 76.7258 5.29299 76.891 5.29557L101.346 5.86918C101.512 5.87348 101.643 6.01108 101.64 6.17706C101.636 6.34132 101.502 6.47117 101.339 6.47117Z" fill="#2E3233"/>
<path d="M77.099 4.22394C76.7912 4.22394 76.54 3.97283 76.54 3.66495C76.54 3.35707 76.7912 3.10596 77.099 3.10596C77.4069 3.10596 77.6581 3.35707 77.6581 3.66495C77.6581 3.97283 77.4069 4.22394 77.099 4.22394ZM77.099 3.62195C77.075 3.62195 77.056 3.64087 77.056 3.66495C77.056 3.68903 77.075 3.70795 77.099 3.70795C77.1231 3.70795 77.142 3.68903 77.142 3.66495C77.142 3.64087 77.1223 3.62195 77.099 3.62195Z" fill="#2E3233"/>
<path d="M42.267 12.3936C41.9591 12.3936 41.708 12.1425 41.708 11.8346C41.708 11.5268 41.9591 11.2756 42.267 11.2756C42.5749 11.2756 42.826 11.5268 42.826 11.8346C42.826 12.1425 42.5749 12.3936 42.267 12.3936ZM42.267 11.7916C42.2429 11.7916 42.224 11.8105 42.224 11.8346C42.224 11.8587 42.2429 11.8776 42.267 11.8776C42.2911 11.8776 42.31 11.8587 42.31 11.8346C42.31 11.8105 42.2902 11.7916 42.267 11.7916Z" fill="#2E3233"/>
<path d="M4.2553 36.0433C3.94742 36.0433 3.69629 35.7922 3.69629 35.4843C3.69629 35.1764 3.94742 34.9253 4.2553 34.9253C4.56319 34.9253 4.81432 35.1764 4.81432 35.4843C4.81432 35.7922 4.56319 36.0433 4.2553 36.0433ZM4.2553 35.4413C4.23122 35.4413 4.2123 35.4602 4.2123 35.4843C4.2123 35.5084 4.23122 35.5273 4.2553 35.5273C4.27938 35.5273 4.2983 35.5084 4.2983 35.4843C4.2983 35.4602 4.27852 35.4413 4.2553 35.4413Z" fill="#2E3233"/>
<path d="M6.06097 35.2696C5.75308 35.2696 5.50195 35.0185 5.50195 34.7106C5.50195 34.4027 5.75308 34.1516 6.06097 34.1516C6.36885 34.1516 6.61998 34.4027 6.61998 34.7106C6.61998 35.0185 6.36885 35.2696 6.06097 35.2696ZM6.06097 34.6676C6.03689 34.6676 6.01797 34.6865 6.01797 34.7106C6.01797 34.7347 6.03689 34.7536 6.06097 34.7536C6.08505 34.7536 6.10397 34.7347 6.10397 34.7106C6.10397 34.6865 6.08419 34.6676 6.06097 34.6676Z" fill="#2E3233"/>
<path d="M7.78069 34.5817C7.47281 34.5817 7.22168 34.3306 7.22168 34.0227C7.22168 33.7149 7.47281 33.4637 7.78069 33.4637C8.08858 33.4637 8.33971 33.7149 8.33971 34.0227C8.33971 34.3306 8.08858 34.5817 7.78069 34.5817ZM7.78069 33.9797C7.75661 33.9797 7.73769 33.9987 7.73769 34.0227C7.73769 34.0468 7.75661 34.0657 7.78069 34.0657C7.80477 34.0657 7.82369 34.0468 7.82369 34.0227C7.82369 33.9987 7.80391 33.9797 7.78069 33.9797Z" fill="#2E3233"/>
<path d="M44.0317 12.4366C43.7238 12.4366 43.4727 12.1855 43.4727 11.8776C43.4727 11.5697 43.7238 11.3186 44.0317 11.3186C44.3395 11.3186 44.5907 11.5697 44.5907 11.8776C44.5907 12.1855 44.3395 12.4366 44.0317 12.4366ZM44.0317 11.8346C44.0076 11.8346 43.9887 11.8535 43.9887 11.8776C43.9887 11.9017 44.0076 11.9206 44.0317 11.9206C44.0557 11.9206 44.0747 11.9017 44.0747 11.8776C44.0747 11.8535 44.0549 11.8346 44.0317 11.8346Z" fill="#2E3233"/>
<path d="M45.8373 12.5229C45.5294 12.5229 45.2783 12.2718 45.2783 11.9639C45.2783 11.656 45.5294 11.4049 45.8373 11.4049C46.1452 11.4049 46.3963 11.656 46.3963 11.9639C46.3963 12.2718 46.1452 12.5229 45.8373 12.5229ZM45.8373 11.9209C45.8132 11.9209 45.7943 11.9398 45.7943 11.9639C45.7943 11.988 45.8132 12.0069 45.8373 12.0069C45.8614 12.0069 45.8803 11.988 45.8803 11.9639C45.8803 11.9398 45.8605 11.9209 45.8373 11.9209Z" fill="#2E3233"/>
<path d="M78.9262 4.28815C78.6183 4.28815 78.3672 4.03703 78.3672 3.72916C78.3672 3.42128 78.6183 3.17017 78.9262 3.17017C79.2341 3.17017 79.4852 3.42128 79.4852 3.72916C79.4852 4.03703 79.2341 4.28815 78.9262 4.28815ZM78.9262 3.68616C78.9021 3.68616 78.8832 3.70508 78.8832 3.72916C78.8832 3.75324 78.9021 3.77216 78.9262 3.77216C78.9503 3.77216 78.9692 3.75324 78.9692 3.72916C78.9692 3.70508 78.9494 3.68616 78.9262 3.68616Z" fill="#2E3233"/>
<path d="M80.6244 4.35285C80.3166 4.35285 80.0654 4.10173 80.0654 3.79386C80.0654 3.48598 80.3166 3.23486 80.6244 3.23486C80.9323 3.23486 81.1835 3.48598 81.1835 3.79386C81.1835 4.10173 80.9323 4.35285 80.6244 4.35285ZM80.6244 3.75086C80.6004 3.75086 80.5814 3.76978 80.5814 3.79386C80.5814 3.81794 80.6004 3.83686 80.6244 3.83686C80.6485 3.83686 80.6674 3.81794 80.6674 3.79386C80.6674 3.76978 80.6477 3.75086 80.6244 3.75086Z" fill="#2E3233"/>
<path d="M39.9631 37.8563C39.8832 37.8563 39.8057 37.8245 39.7498 37.7677C39.6922 37.7101 39.6613 37.6319 39.6621 37.551L40.1068 9.98322C40.1093 9.81897 40.2435 9.68739 40.4078 9.68739L57.8885 9.66675C57.9685 9.66675 58.0459 9.69857 58.1027 9.75619C58.1594 9.81295 58.1904 9.89035 58.1895 9.97118L57.904 37.3971C57.9023 37.5613 57.7698 37.6938 57.6056 37.6946L39.9649 37.8572C39.9649 37.8563 39.964 37.8563 39.9631 37.8563ZM40.7036 10.2885L40.2684 37.2518L57.3054 37.0952L57.5841 10.2696L40.7036 10.2885Z" fill="#2E3233"/>
<path d="M48.1315 31.5338C46.3426 31.5338 44.5959 30.7641 44.5194 30.7297C44.411 30.6815 44.3413 30.574 44.3413 30.4562L44.3164 22.7894C44.3164 22.7034 44.3525 22.6217 44.417 22.5641L46.3082 20.8699C46.4321 20.759 46.6221 20.7693 46.7331 20.8931C46.844 21.017 46.8337 21.207 46.7098 21.318L44.9193 22.9219L44.9434 30.2524C45.4465 30.451 46.9335 30.9834 48.3473 30.9266C49.7457 30.8707 51.4391 30.464 52.0351 30.31L52.0471 22.9107L50.4277 21.2672C50.3108 21.1486 50.3125 20.9585 50.4312 20.8415C50.5498 20.7246 50.7399 20.7263 50.8569 20.845L52.5632 22.5761C52.6191 22.6329 52.65 22.7086 52.65 22.7877L52.6371 30.5422C52.6371 30.6772 52.5468 30.795 52.4169 30.832C52.3258 30.8578 50.1628 31.4572 48.3723 31.5286C48.2906 31.5321 48.2106 31.5338 48.1315 31.5338Z" fill="#2E3233"/>
<path d="M59.5702 23.0395C59.5676 23.0395 59.5642 23.0395 59.5616 23.0395C59.3956 23.0343 59.2649 22.8958 59.2692 22.7299L59.6691 8.73956L49.9801 8.66388C49.8141 8.66216 49.6799 8.52714 49.6817 8.36031C49.6834 8.19519 49.8175 8.06189 49.9827 8.06189C49.9835 8.06189 49.9844 8.06189 49.9852 8.06189L59.9813 8.14015C60.0621 8.14101 60.1395 8.17369 60.1954 8.23217C60.2513 8.29065 60.2823 8.36891 60.2797 8.44974L59.8712 22.7471C59.866 22.9105 59.7319 23.0395 59.5702 23.0395Z" fill="#2E3233"/>
<path d="M38.4479 39.3802C38.3662 39.3802 38.2879 39.3475 38.232 39.2882C38.1752 39.2289 38.1443 39.1497 38.1477 39.068L38.4014 32.1477C38.4074 31.9817 38.5476 31.8536 38.7136 31.8579C38.8796 31.8639 39.0095 32.0032 39.0034 32.1701L38.7618 38.7774L46.6301 38.7447H46.631C46.7969 38.7447 46.9311 38.8788 46.932 39.0448C46.9328 39.2108 46.7987 39.3467 46.6318 39.3467L38.4496 39.3811C38.4487 39.3802 38.4479 39.3802 38.4479 39.3802Z" fill="#2E3233"/>
<path d="M55.8589 13.9608C55.8581 13.9608 55.8572 13.9608 55.8563 13.9608L41.7984 13.843C41.6325 13.8413 41.4983 13.7054 41.5 13.5394C41.5017 13.3735 41.6411 13.2376 41.8036 13.241L55.8615 13.3588C56.0275 13.3606 56.1617 13.4964 56.1599 13.6624C56.1591 13.8275 56.0241 13.9608 55.8589 13.9608Z" fill="#2E3233"/>
<path d="M98.5198 22.625C98.3555 22.625 98.2214 22.4934 98.2188 22.3283C98.2162 22.1623 98.3486 22.0256 98.5155 22.023L105.804 21.9095L105.535 17.2139C105.526 17.0479 105.652 16.906 105.818 16.8966C105.981 16.8863 106.126 17.0135 106.135 17.1795L106.423 22.1881C106.427 22.2698 106.398 22.3506 106.343 22.41C106.287 22.4702 106.208 22.5046 106.127 22.5063L98.5241 22.625C98.5232 22.625 98.5215 22.625 98.5198 22.625Z" fill="#2E3233"/>
<path d="M98.1177 19.234C96.3391 19.234 94.8926 17.7678 94.8926 15.9661C94.8926 14.1644 96.3391 12.6981 98.1177 12.6981C99.8962 12.6981 101.343 14.1644 101.343 15.9661C101.343 17.7678 99.8962 19.234 98.1177 19.234ZM98.1177 13.3001C96.6711 13.3001 95.4946 14.4964 95.4946 15.9661C95.4946 17.4358 96.6711 18.632 98.1177 18.632C99.5642 18.632 100.741 17.4358 100.741 15.9661C100.741 14.4964 99.5642 13.3001 98.1177 13.3001Z" fill="#2E3233"/>
<path d="M96.0981 18.4492C96.025 18.4492 95.9527 18.4234 95.8942 18.3701C95.7721 18.2574 95.7635 18.0674 95.8762 17.9444L99.6267 13.8603C99.7393 13.7382 99.9294 13.7296 100.052 13.8422C100.175 13.9549 100.183 14.145 100.07 14.2679L96.3199 18.352C96.2606 18.4165 96.1798 18.4492 96.0981 18.4492Z" fill="#2E3233"/>
<path d="M86.3325 18.1943C85.353 18.1943 84.3897 17.7248 83.7998 16.8545C82.8555 15.4604 83.2218 13.559 84.6151 12.6147L91.0239 8.27435C92.418 7.33008 94.3195 7.69644 95.2638 9.08962C95.7214 9.76471 95.8882 10.5774 95.7343 11.378C95.5803 12.1787 95.1236 12.8718 94.4485 13.3294L88.0397 17.6697C87.5168 18.0249 86.9216 18.1943 86.3325 18.1943ZM84.9539 13.1135C83.835 13.8712 83.5409 15.3985 84.2994 16.5173C85.0571 17.6362 86.5845 17.9303 87.7034 17.1718L94.1123 12.8314C94.6541 12.4642 95.0213 11.9078 95.1443 11.2654C95.2681 10.6221 95.134 9.97025 94.7667 9.42759C94.0091 8.30875 92.4817 8.01463 91.3628 8.77314L84.9539 13.1135Z" fill="#2E3233"/>
<path d="M90.9051 15.4663C90.7391 15.4663 90.604 15.3321 90.604 15.1653C90.6032 14.2924 90.328 13.4178 89.8274 12.7023C89.3269 11.9868 88.6002 11.4278 87.7806 11.1277C87.6241 11.07 87.5441 10.8972 87.6017 10.7415C87.6593 10.585 87.8322 10.505 87.9879 10.5626C88.9218 10.9049 89.7509 11.5422 90.3202 12.3583C90.8904 13.1736 91.2043 14.1703 91.2052 15.1653C91.2061 15.3313 91.0719 15.4663 90.9051 15.4663Z" fill="#2E3233"/>
<path d="M79.4437 13.1884C78.7806 13.1884 78.1665 12.7575 77.9644 12.091L77.377 10.15C77.1302 9.33477 77.592 8.47135 78.4073 8.22453L80.3071 7.6492C80.7019 7.52966 81.1199 7.57094 81.4836 7.7653C81.8474 7.95965 82.1132 8.28473 82.2327 8.67946L82.8201 10.6205C82.9397 11.0152 82.8984 11.4331 82.704 11.7969C82.5097 12.1607 82.1846 12.4264 81.7898 12.5468L79.89 13.1222C79.7421 13.1669 79.5916 13.1884 79.4437 13.1884ZM80.7561 8.18411C80.664 8.18411 80.572 8.19787 80.4817 8.22539L78.5819 8.80072C78.0848 8.95122 77.8027 9.47839 77.9533 9.97633L78.5406 11.9173C78.6912 12.4144 79.2183 12.6965 79.7163 12.546L81.6161 11.9706C81.8569 11.8975 82.0556 11.735 82.1742 11.5131C82.2929 11.2912 82.3179 11.0358 82.2456 10.795L81.6582 8.85404C81.5851 8.61324 81.4226 8.41459 81.2007 8.29591C81.0614 8.22195 80.9091 8.18411 80.7561 8.18411Z" fill="#2E3233"/>
<path d="M2.52191 59.2786C2.44365 59.2786 2.36883 59.2485 2.31293 59.1943C2.25531 59.1384 2.22177 59.0627 2.22091 58.9819L1.83304 34.0147C1.83132 33.8926 1.9027 33.7816 2.0145 33.7335L27.2965 22.8168C27.3886 22.7772 27.4952 22.7858 27.5795 22.84C27.6638 22.895 27.7154 22.9879 27.7171 23.0885L28.2297 58.4393C28.2322 58.6044 28.1006 58.7411 27.9347 58.7445L2.52793 59.2786C2.52621 59.2786 2.52449 59.2786 2.52191 59.2786ZM2.43849 34.2065L2.81862 58.6697L27.6233 58.1486L27.1219 23.5478L2.43849 34.2065Z" fill="#2E3233"/>
<path d="M29.5447 39.2364C29.3805 39.2364 29.2463 39.1048 29.2437 38.9406L28.9384 20.9874L17.1828 26.1861C17.0306 26.2531 16.8534 26.1843 16.7855 26.0321C16.7184 25.8799 16.7872 25.7027 16.9394 25.6348L29.1104 20.253C29.2024 20.2126 29.3091 20.2203 29.3942 20.2745C29.4794 20.3287 29.531 20.4224 29.5327 20.523L29.8449 38.9302C29.8475 39.0962 29.715 39.2338 29.549 39.2364C29.5482 39.2364 29.5464 39.2364 29.5447 39.2364Z" fill="#2E3233"/>
<path d="M1.05491 60.7899C0.975792 60.7899 0.89925 60.758 0.842488 60.7021C0.785727 60.6462 0.753906 60.5688 0.753906 60.4889L0.771967 52.4256C0.771967 52.2596 0.90699 52.1255 1.07297 52.1255C1.07297 52.1255 1.07297 52.1255 1.07383 52.1255C1.23982 52.1255 1.37484 52.2614 1.37398 52.4273L1.35592 60.1862L14.7765 60.0683C14.7774 60.0683 14.7783 60.0683 14.7791 60.0683C14.9442 60.0683 15.0784 60.2016 15.0801 60.3667C15.0818 60.5327 14.9477 60.6686 14.7817 60.6703L1.05663 60.7907C1.05663 60.7899 1.05577 60.7899 1.05491 60.7899Z" fill="#2E3233"/>
<path d="M3.64549 37.7125C3.52595 37.7125 3.41243 37.6403 3.36599 37.5225C3.30493 37.3677 3.37975 37.1931 3.53455 37.1312L25.9243 28.2208C26.0783 28.1598 26.2537 28.2346 26.3156 28.3894C26.3767 28.5442 26.3019 28.7188 26.1471 28.7807L3.75644 37.691C3.72032 37.7057 3.68248 37.7125 3.64549 37.7125Z" fill="#2E3233"/>
<path d="M13.8332 55.64C13.7773 55.64 13.7223 55.6245 13.6741 55.5944C13.6019 55.5488 13.5511 55.4748 13.5365 55.3914L10.8834 40.3244L9.97861 54.7757C9.96829 54.9416 9.82811 55.0672 9.65954 55.0569C9.49356 55.0466 9.36799 54.9047 9.37745 54.7387V54.7378L10.3888 37.7625C10.3957 37.6447 10.4714 37.5415 10.5815 37.4994L22.725 32.8537C22.8153 32.8193 22.9168 32.8305 22.9976 32.8829C23.0784 32.9363 23.1292 33.024 23.1335 33.1212L24.0245 52.4442C24.0305 52.5827 23.941 52.7083 23.8077 52.747L13.9166 55.6279C13.89 55.6365 13.8616 55.64 13.8332 55.64ZM11.0777 37.9543L14.0714 54.9563L23.4121 52.2353L22.5512 33.5649L11.0777 37.9543Z" fill="#2E3233"/>
<path d="M9.73655 55.0295C9.67807 55.0295 9.61873 55.0123 9.56713 54.977C9.48199 54.9186 9.43555 54.824 9.43555 54.7285C9.43555 54.67 9.45275 54.6107 9.48801 54.5591L10.883 52.5123C10.9767 52.3747 11.1642 52.3394 11.3009 52.4332C11.3861 52.4917 11.4325 52.5863 11.4325 52.6817C11.4325 52.7402 11.4153 52.7995 11.3801 52.8511L9.9851 54.8979C9.92748 54.9831 9.83288 55.0295 9.73655 55.0295Z" fill="#2E3233"/>
<path d="M13.7934 55.6409C13.7168 55.6409 13.6394 55.6116 13.5809 55.5531L10.939 52.9147C10.8211 52.7969 10.8211 52.6068 10.939 52.489C11.0568 52.3712 11.2468 52.3712 11.3647 52.489L14.0066 55.1274C14.1245 55.2453 14.1245 55.4353 14.0066 55.5531C13.9473 55.6108 13.8699 55.6409 13.7934 55.6409Z" fill="#2E3233"/>
<path d="M21.0861 53.22C20.9614 53.22 20.8445 53.1417 20.8015 53.0161C19.7178 49.8557 17.8903 47.6163 15.5166 46.5404C13.7218 45.7269 12.2253 45.855 12.2099 45.8559C12.0447 45.8714 11.8977 45.7501 11.8822 45.585C11.8667 45.4199 11.9871 45.2728 12.1522 45.2573C12.2185 45.2504 13.7975 45.1103 15.7334 45.9789C17.5076 46.7743 19.926 48.6078 21.3708 52.8218C21.425 52.9792 21.3407 53.1503 21.1833 53.2045C21.1515 53.2139 21.1188 53.22 21.0861 53.22Z" fill="#2E3233"/>
<path d="M17.8651 54.4221C17.7103 54.4221 17.5787 54.3035 17.5658 54.1469C17.2141 50.0156 18.7096 46.7734 20.0263 44.7808C21.4514 42.624 22.9418 41.4552 23.0046 41.4071C23.1362 41.3056 23.3254 41.3288 23.4268 41.4604C23.5283 41.592 23.5051 41.7812 23.3735 41.8827C23.3512 41.8999 21.8831 43.0565 20.5165 45.1308C19.2583 47.0409 17.829 50.1463 18.1661 54.0962C18.1799 54.2622 18.0577 54.4075 17.8918 54.4213C17.8823 54.4213 17.8728 54.4221 17.8651 54.4221Z" fill="#2E3233"/>
<path d="M64.2623 55.3113C64.2244 55.3113 64.1857 55.3044 64.1479 55.289C63.1563 54.8822 62.1922 54.3774 61.284 53.7891C61.1447 53.6988 61.1043 53.5122 61.1946 53.3729C61.2849 53.2336 61.4715 53.1932 61.6108 53.2843C62.4881 53.8528 63.4186 54.3395 64.3767 54.7325C64.5306 54.7953 64.6037 54.9716 64.5409 55.1256C64.4928 55.2417 64.381 55.3113 64.2623 55.3113ZM59.7197 52.5602C59.6517 52.5602 59.5829 52.537 59.5262 52.4897C58.6971 51.794 57.9317 51.0217 57.2514 50.1927C57.1456 50.0645 57.1645 49.8745 57.2927 49.7687C57.4208 49.6629 57.6109 49.6818 57.7167 49.81C58.3737 50.6098 59.1134 51.3562 59.914 52.0279C60.0413 52.1345 60.0577 52.3246 59.951 52.4519C59.8908 52.5232 59.8057 52.5602 59.7197 52.5602ZM56.228 48.5595C56.1282 48.5595 56.0302 48.5097 55.9726 48.4185C55.4024 47.5095 54.9113 46.5386 54.514 45.5333C54.4529 45.3785 54.5286 45.2039 54.6834 45.1428C54.8382 45.0818 55.0128 45.1574 55.0738 45.3122C55.4574 46.2832 55.9313 47.2205 56.4826 48.0986C56.5711 48.2396 56.5281 48.4254 56.388 48.5131C56.3381 48.5441 56.283 48.5595 56.228 48.5595ZM54.1295 43.6808C53.9954 43.6808 53.8733 43.5905 53.838 43.4547C53.5671 42.4055 53.3934 41.3313 53.322 40.2624C53.3108 40.0964 53.4364 39.9528 53.6023 39.9416C53.7675 39.9304 53.912 40.056 53.9223 40.222C53.9911 41.254 54.1588 42.2902 54.4202 43.3033C54.4615 43.4641 54.3652 43.6284 54.2044 43.6697C54.1794 43.6774 54.1545 43.6808 54.1295 43.6808Z" fill="#2E3233"/>
<path d="M78.2438 50.4707C78.1346 50.4707 78.0288 50.4106 77.9755 50.3065C77.8998 50.1586 77.9583 49.9771 78.1062 49.9014C78.9636 49.4628 79.8142 48.8626 80.6347 48.1187C80.7577 48.0069 80.9486 48.0163 81.0595 48.1393C81.1713 48.2623 81.1619 48.4532 81.0389 48.5642C80.1797 49.3433 79.2853 49.9737 78.3806 50.4364C78.3376 50.4604 78.2903 50.4707 78.2438 50.4707ZM82.3332 47.1013C82.2635 47.1013 82.1939 47.0772 82.1363 47.0282C82.0107 46.9199 81.9969 46.7298 82.1053 46.6034C82.5035 46.1433 82.9094 45.6316 83.3119 45.0829C83.5476 44.7613 83.7815 44.4302 84.0068 44.0974C84.1005 43.9598 84.2872 43.9245 84.4248 44.0174C84.5624 44.1103 84.5985 44.2978 84.5048 44.4354C84.2751 44.7742 84.0369 45.1122 83.7961 45.439C83.3842 45.9997 82.9688 46.5243 82.5603 46.9964C82.5018 47.0661 82.4184 47.1013 82.3332 47.1013ZM85.4043 42.7506C85.3527 42.7506 85.3003 42.7369 85.2521 42.7094C85.1085 42.6251 85.0603 42.441 85.1446 42.2974C85.6727 41.3979 86.1663 40.4588 86.6092 39.5059C86.6798 39.3554 86.8586 39.29 87.0091 39.3606C87.1596 39.4311 87.225 39.61 87.1545 39.7605C86.703 40.7297 86.2007 41.686 85.6632 42.6019C85.6082 42.6973 85.5075 42.7506 85.4043 42.7506ZM87.729 37.9579C87.6929 37.9579 87.655 37.951 87.6198 37.9373C87.465 37.8771 87.3884 37.7025 87.4495 37.5477C87.8313 36.5725 88.171 35.568 88.46 34.561C88.5056 34.401 88.6724 34.309 88.8324 34.3546C88.9923 34.4001 89.0844 34.567 89.0388 34.7269C88.7447 35.7512 88.3981 36.7737 88.0102 37.7661C87.9629 37.8848 87.8485 37.9579 87.729 37.9579ZM89.2779 32.8616C89.2564 32.8616 89.2349 32.859 89.2125 32.8547C89.05 32.8186 88.9476 32.6587 88.9838 32.4961C89.2099 31.471 89.3897 30.4261 89.5178 29.389C89.5385 29.2239 89.6881 29.1069 89.8532 29.1276C90.0184 29.1482 90.1353 29.2987 90.1147 29.463C89.984 30.5182 89.8008 31.582 89.5711 32.6251C89.5402 32.7653 89.4155 32.8616 89.2779 32.8616ZM90.0123 27.5856C90.0063 27.5856 90.0003 27.5856 89.9943 27.5847C89.8283 27.5753 89.7019 27.4325 89.7113 27.2665C89.7492 26.625 89.7689 25.9748 89.7689 25.335C89.7689 24.93 89.7612 24.5197 89.7457 24.1155C89.7397 23.9496 89.8687 23.8094 90.0356 23.8034C90.2041 23.7982 90.3417 23.9264 90.3477 24.0932C90.3632 24.5051 90.371 24.9231 90.371 25.3359C90.371 25.9877 90.3512 26.6499 90.3125 27.3035C90.303 27.4626 90.1706 27.5856 90.0123 27.5856Z" fill="#2E3233"/>
<path d="M34.0419 73.8004C33.3728 73.8004 32.7054 73.7737 32.0578 73.7212C31.8918 73.7075 31.7688 73.563 31.7817 73.397C31.7955 73.231 31.9408 73.1072 32.1059 73.121C33.1225 73.2035 34.1829 73.2199 35.2476 73.1691C35.4136 73.1622 35.5546 73.2895 35.5624 73.4555C35.5701 73.6215 35.442 73.7625 35.276 73.7703C34.864 73.7909 34.4486 73.8004 34.0419 73.8004ZM37.4028 73.5862C37.2532 73.5862 37.1233 73.4744 37.1044 73.3222C37.0837 73.1571 37.2007 73.0066 37.3658 72.9859C38.3635 72.8621 39.4084 72.6807 40.4722 72.4467C40.6348 72.4106 40.7947 72.5138 40.8309 72.6764C40.8661 72.8389 40.7638 72.9988 40.6012 73.035C39.5193 73.2723 38.4555 73.4572 37.4398 73.5828C37.4278 73.5854 37.4157 73.5862 37.4028 73.5862ZM29.9516 73.4469C29.9335 73.4469 29.9155 73.4452 29.8983 73.4417C28.8138 73.2465 27.7637 72.9687 26.7773 72.617C26.6207 72.5611 26.539 72.3891 26.5949 72.2326C26.6508 72.0761 26.8228 71.9944 26.9794 72.0503C27.9348 72.3908 28.9523 72.66 30.0041 72.8501C30.1675 72.8793 30.2767 73.0358 30.2466 73.1992C30.2208 73.3446 30.0944 73.4469 29.9516 73.4469ZM42.6249 72.5284C42.4924 72.5284 42.3712 72.4407 42.3342 72.3066C42.2903 72.1457 42.3849 71.9806 42.5457 71.9368C43.5047 71.6762 44.4954 71.3752 45.5739 71.0166C45.7313 70.9641 45.9024 71.0493 45.954 71.2075C46.0065 71.3649 45.9213 71.536 45.7631 71.5876C44.6734 71.9497 43.6724 72.2532 42.7031 72.5173C42.6773 72.525 42.6507 72.5284 42.6249 72.5284ZM24.9024 71.7888C24.8568 71.7888 24.8104 71.7785 24.7665 71.7562C24.5094 71.6263 24.254 71.4878 24.0054 71.346C23.3217 70.9538 22.6621 70.5014 22.0428 70.0009C21.9138 69.896 21.8932 69.7068 21.9981 69.5778C22.103 69.4488 22.2923 69.4282 22.4213 69.5331C23.0155 70.013 23.6485 70.4473 24.3047 70.8239C24.5438 70.9607 24.7898 71.094 25.0374 71.2195C25.1854 71.2943 25.2456 71.4758 25.1699 71.6237C25.1183 71.7286 25.0125 71.7888 24.9024 71.7888ZM47.7007 70.8988C47.5777 70.8988 47.4616 70.8222 47.4178 70.6992C47.361 70.5427 47.4427 70.3707 47.5992 70.314C48.0955 70.1359 48.6158 69.9442 49.1903 69.7292C49.5902 69.5795 50.0434 69.3878 50.5362 69.1599C50.6876 69.0902 50.8656 69.1556 50.9361 69.3069C51.0058 69.4574 50.9404 69.6363 50.789 69.7068C50.2825 69.9416 49.8155 70.1385 49.4018 70.2933C48.8247 70.5092 48.3019 70.7018 47.803 70.8807C47.7686 70.8927 47.7342 70.8988 47.7007 70.8988ZM52.5873 68.7737C52.479 68.7737 52.3749 68.7152 52.3207 68.6129C52.2433 68.4658 52.2992 68.2835 52.4463 68.2061C53.2427 67.7856 54.1259 67.2971 55.2242 66.6693C55.3686 66.5868 55.5527 66.6366 55.6353 66.7811C55.7178 66.9256 55.6679 67.1096 55.5235 67.1913C54.4183 67.8226 53.5299 68.3136 52.7275 68.7376C52.6828 68.7625 52.6346 68.7737 52.5873 68.7737ZM20.6651 68.5991C20.5843 68.5991 20.5034 68.5665 20.4432 68.502C19.6967 67.6919 19.0526 66.8112 18.5271 65.8842C18.4454 65.7397 18.4961 65.5556 18.6406 65.4739C18.7851 65.3922 18.9691 65.443 19.0508 65.5875C19.5531 66.475 20.1706 67.3178 20.8853 68.0935C20.9979 68.2156 20.9902 68.4065 20.8681 68.5192C20.8113 68.5733 20.7382 68.5991 20.6651 68.5991ZM57.2383 66.1568C57.1343 66.1568 57.0336 66.1035 56.9777 66.0071C56.8943 65.8635 56.9425 65.6795 57.087 65.5952L57.7629 65.2013C58.4501 64.8014 59.1605 64.3878 59.8425 63.9956C59.9861 63.9131 60.1701 63.9621 60.2536 64.1066C60.3361 64.251 60.2862 64.4351 60.1426 64.5176C59.4623 64.9081 58.7528 65.3217 58.0657 65.7216L57.3888 66.1155C57.3415 66.1439 57.2891 66.1568 57.2383 66.1568ZM17.8941 64.0859C17.7703 64.0859 17.655 64.0094 17.6103 63.8864C17.2362 62.8398 17.0143 61.7674 16.9498 60.6984C16.9395 60.5324 17.0668 60.3897 17.2328 60.3802C17.3979 60.3699 17.5415 60.4963 17.551 60.6623C17.6112 61.6745 17.8219 62.691 18.1771 63.6834C18.233 63.84 18.1513 64.012 17.9947 64.0679C17.9612 64.0808 17.9276 64.0859 17.8941 64.0859ZM61.8661 63.5003C61.7603 63.5003 61.6571 63.4444 61.6021 63.3446C61.5221 63.1993 61.5746 63.0161 61.7199 62.9353C62.8629 62.3049 63.796 61.8259 64.5726 61.4698C64.724 61.401 64.902 61.4673 64.9716 61.6186C65.0404 61.77 64.9742 61.948 64.8229 62.0176C64.06 62.3668 63.1407 62.8389 62.0106 63.4624C61.9659 63.4882 61.916 63.5003 61.8661 63.5003Z" fill="#2E3233"/>
<path d="M101.045 145.205C100.889 145.205 100.758 145.086 100.745 144.931L97.1119 103.493C97.0793 103.381 97.056 103.161 97.2263 102.886C98.0683 101.522 103.615 99.2346 131.271 99.2019L134.893 73.4418C134.906 73.3489 134.961 73.2672 135.043 73.2208C135.507 72.9611 139.615 70.7131 141.179 71.7743C141.664 72.1037 141.855 72.6816 141.746 73.4926C140.739 81.0028 132.261 143.651 132.175 144.283C132.154 144.433 132.027 144.544 131.877 144.544C131.876 144.544 131.876 144.544 131.875 144.544L127.865 144.519C127.7 144.518 127.567 144.386 127.565 144.221L127.301 116.833C127.3 116.667 127.433 116.532 127.6 116.53C127.601 116.53 127.601 116.53 127.603 116.53C127.768 116.53 127.902 116.662 127.904 116.828L128.165 143.919L131.614 143.94C132.217 139.486 140.176 80.6735 141.149 73.4117C141.226 72.8381 141.125 72.4657 140.84 72.2714C139.917 71.6444 137.113 72.7719 135.467 73.6732L131.83 99.5434C131.809 99.6921 131.682 99.8022 131.533 99.8022C119.478 99.81 110.386 100.251 104.51 101.112C99.5552 101.838 98.1835 102.675 97.8077 103.108C97.6985 103.234 97.6916 103.308 97.6916 103.326C97.7011 103.351 97.7071 103.377 97.7088 103.404L101.321 144.602L104.593 144.588L104.429 116.906C104.428 116.74 104.562 116.604 104.728 116.603C104.729 116.603 104.729 116.603 104.73 116.603C104.895 116.603 105.03 116.736 105.031 116.902L105.197 144.885C105.198 144.965 105.166 145.042 105.11 145.099C105.054 145.155 104.978 145.187 104.898 145.188L101.047 145.204C101.046 145.205 101.046 145.205 101.045 145.205Z" fill="#2E3233"/>
<path d="M97.9113 109.234C97.8744 109.234 97.8374 109.228 97.8013 109.214C93.3816 107.477 89.054 105.395 84.9379 103.025C84.7943 102.943 84.7444 102.759 84.827 102.614C84.9095 102.47 85.0944 102.421 85.2381 102.503C89.3283 104.858 93.6293 106.927 98.0214 108.653C98.1762 108.714 98.2519 108.889 98.1917 109.044C98.1453 109.162 98.0317 109.234 97.9113 109.234Z" fill="#2E3233"/>
<path d="M78.0386 128.796C77.6025 128.796 77.1906 128.762 76.8147 128.699C74.7748 128.361 72.8182 126.842 70.9993 124.184C69.4831 121.968 68.0537 118.954 66.7499 115.227C64.2722 108.14 62.9306 100.446 62.5281 97.0168C61.7205 90.1266 62.6038 86.4519 63.3391 84.2873C64.052 82.1872 65.183 80.2513 66.6072 78.6905C68.1423 77.0083 69.9965 75.8018 71.9685 75.2015C76.193 73.9158 80.7588 75.3055 84.4285 76.4227L112.751 85.0432C112.91 85.0914 112.999 85.2599 112.951 85.419C112.903 85.5781 112.735 85.6675 112.575 85.6194L84.2548 76.9989C80.6633 75.9058 76.1938 74.5453 72.1457 75.7777C70.2769 76.3461 68.5155 77.4942 67.0535 79.0964C65.6844 80.5971 64.5973 82.4589 63.9101 84.4808C63.1937 86.5903 62.3329 90.1782 63.1267 96.9472C63.5257 100.352 64.8579 107.991 67.3184 115.028C70.1074 123.006 73.4254 127.528 76.9128 128.105C78.6733 128.396 81.2903 128.036 83.3578 126.151C84.5223 125.089 85.3978 123.646 85.9593 121.864C86.6241 119.756 86.8503 117.16 86.6336 114.15C86.017 105.595 82.8805 97.0977 80.3606 90.2702C80.303 90.1145 80.383 89.9408 80.5386 89.8832C80.6943 89.8256 80.868 89.9056 80.9256 90.0612C83.4593 96.9248 86.6121 105.466 87.2348 114.106C87.4575 117.193 87.2219 119.864 86.5347 122.045C85.9404 123.93 85.009 125.461 83.7646 126.595C81.9774 128.225 79.8076 128.796 78.0386 128.796Z" fill="#2E3233"/>
<path d="M135.25 117.067L98.6037 117.013C98.4378 117.013 98.3027 116.878 98.3027 116.712C98.3027 116.546 98.4378 116.411 98.6037 116.411L135.25 116.465C135.416 116.465 135.551 116.6 135.551 116.766C135.551 116.933 135.416 117.067 135.25 117.067Z" fill="#2E3233"/>
<path d="M59.831 129.257C59.4302 129.257 59.0329 129.224 58.6416 129.158C55.7536 128.67 53.1366 126.23 51.9747 122.941C50.8997 119.897 51.0519 116.544 51.3426 113.665C51.8165 108.973 52.7659 104.259 54.1626 99.6568C55.5404 95.1187 57.3593 90.6665 59.5704 86.4242C60.2043 85.2073 60.7977 84.3275 61.4367 83.6567C62.3104 82.7391 63.2745 82.2343 64.3005 82.1569C64.4665 82.144 64.611 82.2687 64.623 82.4347C64.6351 82.6007 64.5112 82.7452 64.3453 82.7572C62.3061 82.9103 60.9482 85.0817 60.1036 86.702C57.9106 90.9116 56.1054 95.3285 54.738 99.8305C53.3516 104.396 52.4108 109.071 51.9403 113.725C51.4338 118.737 51.9601 121.094 52.5415 122.74C53.632 125.825 56.065 128.111 58.7414 128.564C60.814 128.914 63.192 128.192 65.1029 126.633C66.6587 125.364 67.996 123.536 69.1906 121.047C69.2629 120.898 69.4426 120.834 69.5922 120.906C69.7419 120.979 69.8055 121.158 69.7333 121.308C68.5 123.878 67.1094 125.772 65.4831 127.099C63.7665 128.502 61.7609 129.257 59.831 129.257Z" fill="#2E3233"/>
<path d="M57.9459 134.041C57.9364 134.041 57.9278 134.041 57.9183 134.04C57.7532 134.024 57.6311 133.878 57.6457 133.713C57.7945 132.086 57.8702 130.432 57.8685 128.798C57.8685 128.632 58.0035 128.497 58.1695 128.497C58.3354 128.497 58.4705 128.632 58.4705 128.798C58.4713 130.45 58.3956 132.123 58.2451 133.768C58.2314 133.924 58.0998 134.041 57.9459 134.041Z" fill="#2E3233"/>
<path d="M61.0915 134.209C61.0665 134.209 61.0407 134.206 61.0149 134.199C60.8541 134.157 60.7578 133.993 60.7999 133.832L62.1975 128.508C62.2396 128.347 62.4039 128.25 62.5647 128.293C62.7255 128.335 62.8218 128.499 62.7797 128.66L61.3822 133.984C61.3469 134.12 61.2248 134.209 61.0915 134.209Z" fill="#2E3233"/>
<path d="M80.4496 133.696C80.3309 133.696 80.2174 133.625 80.1701 133.508C79.5354 131.936 78.8199 130.375 78.045 128.866C77.9693 128.719 78.0269 128.537 78.1749 128.461C78.3228 128.386 78.5043 128.443 78.5799 128.591C79.3634 130.115 80.0858 131.694 80.7274 133.282C80.7893 133.436 80.7154 133.612 80.5614 133.675C80.5253 133.689 80.4875 133.696 80.4496 133.696Z" fill="#2E3233"/>
<path d="M83.3024 133.695C83.1476 133.695 83.016 133.577 83.0031 133.419C82.8319 131.346 82.5886 129.253 82.2798 127.196C82.2549 127.031 82.3684 126.878 82.5327 126.853C82.6978 126.828 82.85 126.942 82.8749 127.106C83.1854 129.176 83.4305 131.283 83.6025 133.369C83.6163 133.535 83.4933 133.681 83.3273 133.694C83.3187 133.694 83.3101 133.695 83.3024 133.695Z" fill="#2E3233"/>
<path d="M61.5301 136.071H57.2137C56.6848 136.071 56.2539 135.641 56.2539 135.111V134.579C56.2539 134.05 56.6839 133.619 57.2137 133.619H61.5301C62.059 133.619 62.4899 134.049 62.4899 134.579V135.111C62.489 135.641 62.059 136.071 61.5301 136.071ZM57.2137 134.222C57.0167 134.222 56.8559 134.382 56.8559 134.58V135.112C56.8559 135.309 57.0159 135.47 57.2137 135.47H61.5301C61.7271 135.47 61.8879 135.31 61.8879 135.112V134.58C61.8879 134.383 61.7279 134.222 61.5301 134.222H57.2137Z" fill="#2E3233"/>
<path d="M84.1483 135.899H79.8318C79.3029 135.899 78.8721 135.469 78.8721 134.94V134.407C78.8721 133.878 79.3021 133.448 79.8318 133.448H84.1483C84.6772 133.448 85.1081 133.878 85.1081 134.407V134.94C85.1072 135.469 84.6772 135.899 84.1483 135.899ZM79.8318 134.05C79.6349 134.05 79.4741 134.21 79.4741 134.408V134.941C79.4741 135.138 79.634 135.298 79.8318 135.298H84.1483C84.3452 135.298 84.506 135.138 84.506 134.941V134.408C84.506 134.211 84.3461 134.05 84.1483 134.05H79.8318Z" fill="#2E3233"/>
<path d="M61.0065 141.577H61.0057L43.9755 141.52C43.8285 141.52 43.7029 141.413 43.6797 141.267C43.5576 140.506 43.8818 139.656 44.5268 139.051C45.0187 138.588 45.6887 138.246 46.5754 138.005C48.1372 137.579 49.7695 137.579 51.3468 137.581C52.273 137.581 53.2345 137.582 54.1616 137.494C54.737 137.44 55.4026 137.344 55.9806 137.048C56.5499 136.755 56.9593 136.278 57.0745 135.771C57.1115 135.609 57.2732 135.507 57.4349 135.544C57.5965 135.581 57.698 135.743 57.661 135.905C57.5037 136.594 56.9911 137.205 56.2549 137.583C55.5867 137.926 54.8496 138.034 54.2175 138.093C53.262 138.184 52.2885 138.183 51.3459 138.183C49.8082 138.181 48.2172 138.182 46.7328 138.586C45.9433 138.801 45.3567 139.097 44.9388 139.49C44.5113 139.892 44.2628 140.421 44.2559 140.92L60.6961 140.975C60.6445 139.294 60.672 137.595 60.7786 135.918C60.7889 135.752 60.9308 135.625 61.0977 135.636C61.2637 135.647 61.3892 135.79 61.3789 135.955C61.2671 137.717 61.243 139.503 61.3075 141.266C61.3101 141.348 61.28 141.427 61.2233 141.486C61.1665 141.544 61.0882 141.577 61.0065 141.577Z" fill="#2E3233"/>
<path d="M55.4974 139.735C55.3667 139.735 55.2463 139.649 55.2085 139.517L54.7415 137.898C54.695 137.738 54.7879 137.571 54.947 137.525C55.107 137.48 55.2738 137.572 55.3194 137.731L55.7864 139.35C55.8328 139.51 55.7399 139.677 55.5808 139.723C55.5533 139.731 55.5249 139.735 55.4974 139.735Z" fill="#2E3233"/>
<path d="M56.6973 139.483C56.5752 139.483 56.4608 139.408 56.4152 139.288C56.2045 138.726 55.9543 138.172 55.6713 137.643C55.5931 137.496 55.6481 137.314 55.7952 137.236C55.9422 137.157 56.1246 137.212 56.2028 137.359C56.4978 137.912 56.7592 138.49 56.9794 139.077C57.0379 139.232 56.9588 139.406 56.8031 139.465C56.7678 139.477 56.7317 139.483 56.6973 139.483Z" fill="#2E3233"/>
<path d="M57.8007 138.915C57.6984 138.915 57.5995 138.863 57.5427 138.769C57.2435 138.272 56.8745 137.821 56.4479 137.428C56.3258 137.316 56.3172 137.126 56.4299 137.003C56.5425 136.88 56.7326 136.873 56.8556 136.985C57.3243 137.416 57.7294 137.912 58.0587 138.458C58.1448 138.601 58.0992 138.786 57.9564 138.871C57.9074 138.9 57.8532 138.915 57.8007 138.915Z" fill="#2E3233"/>
<path d="M83.1067 141.347C83.1058 141.347 83.105 141.347 83.1041 141.347C80.8715 141.346 78.6406 141.332 76.4828 141.319C74.1926 141.305 71.8232 141.29 69.4556 141.29C69.2913 141.29 69.1571 141.158 69.1546 140.993C69.1434 140.292 69.4797 139.235 71.1429 138.179C72.1535 137.538 73.6508 137.365 74.6888 137.29C75.1085 137.26 75.5342 137.247 75.9453 137.235C76.6883 137.212 77.4572 137.189 78.1908 137.061C78.5744 136.994 79.0078 136.889 79.3105 136.622C79.5496 136.411 79.7087 136.025 79.5617 135.743C79.4851 135.596 79.5428 135.413 79.6898 135.337C79.8369 135.26 80.0192 135.318 80.0957 135.465C80.3925 136.035 80.125 136.706 79.7087 137.073C79.2908 137.442 78.7335 137.577 78.294 137.654C77.5183 137.789 76.727 137.813 75.9625 137.836C75.5574 137.848 75.1386 137.861 74.7309 137.89C73.7574 137.96 72.3599 138.119 71.4646 138.687C70.8815 139.057 69.9441 139.781 69.7807 140.687C72.0417 140.688 74.3001 140.702 76.4862 140.715C78.6432 140.728 80.8732 140.742 83.105 140.744C83.1058 140.744 83.1067 140.744 83.1067 140.744C83.2847 140.744 83.3449 140.719 83.3638 140.7C83.4085 140.652 83.3793 140.452 83.3698 140.386C83.1402 138.791 83.086 137.168 83.2099 135.561C83.2228 135.395 83.3681 135.27 83.5333 135.284C83.6992 135.297 83.8231 135.442 83.8102 135.608C83.6898 137.17 83.7422 138.749 83.9658 140.301C83.9942 140.495 84.0458 140.857 83.7999 141.115C83.6064 141.32 83.3415 141.347 83.1067 141.347Z" fill="#2E3233"/>
<path d="M77.6906 139.424C77.529 139.424 77.3957 139.296 77.3896 139.134C77.3707 138.614 77.2856 138.098 77.1359 137.6C77.0878 137.441 77.1789 137.273 77.338 137.225C77.4971 137.177 77.6648 137.268 77.713 137.427C77.8773 137.975 77.971 138.541 77.9917 139.112C77.9977 139.278 77.8678 139.418 77.7018 139.424C77.6984 139.423 77.6941 139.424 77.6906 139.424Z" fill="#2E3233"/>
<path d="M78.9659 139.341C78.8455 139.341 78.7311 139.268 78.6855 139.149L78.1016 137.644C78.0414 137.489 78.1179 137.315 78.2736 137.255C78.4284 137.194 78.603 137.271 78.6632 137.427L79.2471 138.932C79.3073 139.086 79.2308 139.261 79.0751 139.321C79.039 139.334 79.002 139.341 78.9659 139.341Z" fill="#2E3233"/>
<path d="M80.1307 139.012C80.0215 139.012 79.9157 138.952 79.8624 138.848C79.6155 138.365 79.3059 137.916 78.9413 137.513C78.8295 137.39 78.8389 137.199 78.9628 137.089C79.0858 136.977 79.2767 136.987 79.3876 137.11C79.7867 137.551 80.1264 138.044 80.3982 138.575C80.4738 138.722 80.4154 138.904 80.2674 138.98C80.2236 139.002 80.1771 139.012 80.1307 139.012Z" fill="#2E3233"/>
<path d="M61.5644 143.829C61.5635 143.829 61.5635 143.829 61.5627 143.829L43.8824 143.731C43.602 143.729 43.3388 143.618 43.1419 143.417C42.9449 143.217 42.8383 142.952 42.8409 142.672L42.8477 142.054C42.8538 141.483 43.3233 141.019 43.8944 141.019L61.5549 141.012C61.7209 141.012 61.8551 141.146 61.8559 141.312L61.8645 143.528C61.8645 143.608 61.8327 143.685 61.776 143.742C61.7209 143.798 61.6444 143.829 61.5644 143.829ZM61.2556 141.614L43.8944 141.621C43.6519 141.621 43.4523 141.819 43.4498 142.061L43.4429 142.679C43.4412 142.798 43.4867 142.911 43.571 142.996C43.6544 143.081 43.7662 143.129 43.8858 143.129L61.2617 143.227L61.2556 141.614Z" fill="#2E3233"/>
<path d="M84.0101 143.571C84.0093 143.571 84.0084 143.571 84.0084 143.571L69.069 143.472C68.8394 143.471 68.6192 143.375 68.4498 143.203C68.252 143.003 68.1402 142.715 68.1436 142.414L68.1496 141.797C68.1548 141.226 68.5728 140.761 69.0811 140.761L84.0041 140.754C84.1701 140.754 84.3043 140.888 84.3051 141.054L84.312 143.269C84.312 143.349 84.2802 143.427 84.2234 143.483C84.1658 143.539 84.0901 143.571 84.0101 143.571ZM83.7031 141.356L69.0802 141.363C68.9039 141.363 68.7534 141.564 68.7508 141.802L68.7448 142.42C68.7431 142.562 68.7921 142.693 68.8781 142.781C68.9185 142.821 68.9847 142.87 69.0725 142.87L83.7074 142.967L83.7031 141.356Z" fill="#2E3233"/>
<path d="M149.167 129.784C148.188 129.784 147.37 129.571 146.727 129.146C146.14 128.759 145.807 128.226 145.811 127.684C145.815 127.152 146.168 126.619 146.709 126.325C146.943 126.198 147.187 126.124 147.484 126.102C145.682 125.04 143.83 123.796 142.521 122.048C141.045 120.079 140.19 116.859 141.799 114.443C142.2 113.841 142.723 113.337 143.23 112.848C143.885 112.218 144.502 111.622 144.853 110.85C145.169 110.155 145.531 108.658 144.391 106.458C144.012 105.727 143.534 105.027 143.073 104.349C142.64 103.714 142.192 103.057 141.816 102.365C139.586 98.2541 140.024 92.7089 142.907 88.5663C144.248 86.6374 146.042 85.0266 148.239 83.7788C150.299 82.6083 152.661 81.8103 155.071 81.4706C157.848 81.0793 160.295 81.3218 162.344 82.1912C164.828 83.2447 166.647 85.2528 167.21 87.5627C167.771 89.8623 167.118 92.5756 165.321 95.4084C164.743 96.3208 164.092 97.2015 163.464 98.0537C162.526 99.3239 161.557 100.638 160.83 102.054C160.076 103.525 159.922 104.73 160.372 105.636C160.777 106.452 161.643 106.957 162.482 107.447C162.61 107.521 162.737 107.595 162.863 107.671C165.923 109.504 167.845 112.273 168.005 115.077C168.157 117.741 166.729 120.554 164.186 122.604C162.417 124.03 160.363 124.971 158.29 125.792C158.311 125.798 158.331 125.804 158.351 125.81C159.242 126.092 159.631 126.948 159.435 127.57C159.277 128.072 158.807 128.436 158.039 128.652C156.368 129.122 154.614 128.988 153.07 128.277C152.721 128.781 152.235 129.09 151.866 129.265C151.404 129.485 150.863 129.628 150.162 129.718C149.814 129.762 149.482 129.784 149.167 129.784ZM147.678 126.698C147.368 126.698 147.172 126.759 146.995 126.855C146.643 127.046 146.415 127.373 146.412 127.689C146.41 128.018 146.651 128.374 147.058 128.644C147.785 129.123 148.803 129.284 150.085 129.121C150.721 129.04 151.204 128.913 151.607 128.722C152.094 128.49 152.479 128.144 152.689 127.747C152.765 127.601 152.945 127.544 153.091 127.618C154.56 128.365 156.259 128.527 157.876 128.072C158.437 127.914 158.768 127.685 158.861 127.389C158.99 126.979 158.602 126.52 158.169 126.383C157.651 126.219 157.051 126.351 156.523 126.467C156.368 126.5 156.215 126.409 156.169 126.259C156.124 126.107 156.203 125.947 156.351 125.892C158.943 124.91 161.623 123.896 163.809 122.135C166.201 120.207 167.545 117.581 167.404 115.112C167.256 112.507 165.442 109.919 162.554 108.188C162.431 108.114 162.305 108.041 162.179 107.967C161.265 107.433 160.319 106.882 159.834 105.905C159.294 104.818 159.449 103.43 160.295 101.78C161.044 100.321 162.028 98.9868 162.98 97.6977C163.602 96.854 164.246 95.982 164.813 95.0876C166.969 91.6872 166.988 89.1967 166.625 87.7063C166.114 85.6123 164.384 83.7117 162.109 82.7468C160.162 81.9203 157.823 81.6924 155.155 82.0674C152.819 82.3959 150.531 83.169 148.536 84.3025C146.419 85.5056 144.691 87.0562 143.401 88.9103C140.646 92.8706 140.222 98.1621 142.346 102.078C142.707 102.744 143.146 103.388 143.571 104.011C144.043 104.703 144.53 105.419 144.926 106.182C146.183 108.608 145.764 110.305 145.402 111.101C145.003 111.976 144.315 112.64 143.648 113.282C143.165 113.749 142.665 114.23 142.3 114.778C141.286 116.3 141.073 119.112 143.003 121.688C144.546 123.747 146.932 125.105 149.037 126.303C149.166 126.377 149.223 126.534 149.169 126.673C149.116 126.813 148.969 126.892 148.824 126.859C148.312 126.746 147.952 126.698 147.678 126.698Z" fill="#2E3233"/>
<path d="M156.514 147.678L147.228 147.662C147.087 147.662 146.966 147.564 146.935 147.426L145.244 139.861C145.224 139.771 145.245 139.678 145.303 139.607C145.36 139.536 145.446 139.494 145.538 139.494L158.104 139.502C158.194 139.502 158.28 139.543 158.338 139.613C158.396 139.683 158.417 139.775 158.399 139.864L156.809 147.438C156.78 147.578 156.657 147.678 156.514 147.678ZM147.47 147.06L156.27 147.075L157.734 140.104L145.913 140.096L147.47 147.06Z" fill="#2E3233"/>
<path d="M151.447 139.919C151.281 139.919 151.146 139.785 151.146 139.619L151.119 129.307C151.119 129.141 151.253 129.006 151.419 129.005H151.42C151.586 129.005 151.721 129.139 151.721 129.305L151.748 139.617C151.749 139.783 151.614 139.918 151.447 139.919C151.448 139.919 151.448 139.919 151.447 139.919Z" fill="#2E3233"/>
<path d="M153.252 140.013C153.086 140.013 152.951 139.878 152.951 139.712L152.925 128.361C152.925 128.195 153.059 128.06 153.225 128.059C153.225 128.059 153.225 128.059 153.226 128.059C153.392 128.059 153.527 128.193 153.527 128.359L153.553 139.711C153.554 139.877 153.419 140.012 153.252 140.013C153.253 140.013 153.253 140.013 153.252 140.013Z" fill="#2E3233"/>
<path d="M148.848 122.051C148.539 122.051 148.229 121.981 147.953 121.836C147.274 121.48 146.848 120.697 146.917 119.934C146.954 119.528 147.13 119.141 147.396 118.834C147.045 118.726 146.73 118.512 146.523 118.214C146.093 117.595 146.183 116.684 146.723 116.182C147.009 115.915 147.397 115.79 147.777 115.8C147.774 115.783 147.771 115.767 147.769 115.751C147.705 115.338 147.826 114.93 148.094 114.659C148.361 114.387 148.768 114.26 149.182 114.317C149.596 114.375 149.952 114.61 150.134 114.944C150.214 115.09 150.16 115.273 150.013 115.353C149.867 115.433 149.685 115.378 149.605 115.232C149.513 115.064 149.324 114.945 149.098 114.913C148.872 114.881 148.657 114.944 148.522 115.081C148.388 115.218 148.328 115.433 148.363 115.659C148.385 115.797 148.439 115.922 148.518 116.018C148.607 116.074 148.692 116.141 148.766 116.219C148.87 116.325 148.88 116.49 148.791 116.608C148.702 116.727 148.54 116.763 148.41 116.694C148.312 116.643 148.221 116.576 148.141 116.497C147.829 116.339 147.394 116.379 147.133 116.623C146.809 116.924 146.756 117.496 147.017 117.871C147.267 118.23 147.788 118.399 148.221 118.267C148.239 118.26 148.258 118.254 148.277 118.248C148.433 118.199 148.6 118.284 148.652 118.44C148.705 118.596 148.622 118.764 148.468 118.819C148.449 118.826 148.43 118.832 148.41 118.838C147.934 119.009 147.562 119.485 147.516 119.988C147.47 120.507 147.771 121.06 148.232 121.303C148.694 121.545 149.32 121.479 149.722 121.145C149.849 121.039 150.039 121.057 150.146 121.184C150.253 121.312 150.235 121.502 150.107 121.608C149.757 121.9 149.302 122.051 148.848 122.051Z" fill="#2E3233"/>
<path d="M159.561 96.1928C159.294 96.1928 159.028 96.1137 158.807 95.952C158.673 95.854 158.644 95.6656 158.743 95.5315C158.841 95.3973 159.029 95.3681 159.163 95.467C159.403 95.6433 159.783 95.6278 160.007 95.4326C160.232 95.2373 160.301 94.865 160.16 94.6018C160.092 94.4745 159.975 94.3739 159.84 94.3129C159.632 94.343 159.418 94.3292 159.213 94.2647C159.086 94.2243 159.001 94.1047 159.004 93.9714C159.006 93.8382 159.096 93.7221 159.225 93.6868C159.44 93.6275 159.665 93.6309 159.876 93.6868C160.097 93.6206 160.297 93.4709 160.4 93.2688C160.576 92.924 160.46 92.4381 160.148 92.2085C159.836 91.9789 159.338 92.0141 159.061 92.285C158.946 92.3977 158.762 92.3994 158.644 92.2885C158.526 92.1775 158.518 91.9935 158.624 91.8714C158.913 91.5403 159.213 91.198 159.336 90.7981C159.437 90.4739 159.393 90.0422 159.114 89.8435C158.804 89.6225 158.305 89.7885 158.035 90.0818C157.707 90.4386 157.563 90.9693 157.437 91.4371C157.394 91.5979 157.229 91.6925 157.068 91.6495C156.908 91.6065 156.813 91.4414 156.856 91.2806C156.993 90.7723 157.163 90.1394 157.592 89.6741C158.044 89.1839 158.868 88.9302 159.463 89.3534C159.999 89.7343 160.071 90.4619 159.911 90.9761C159.858 91.1464 159.784 91.3046 159.698 91.4526C159.985 91.4612 160.268 91.5497 160.503 91.7226C161.057 92.1294 161.247 92.9283 160.936 93.5406C160.832 93.7453 160.678 93.9173 160.494 94.0471C160.57 94.1271 160.636 94.2165 160.689 94.3154C160.964 94.8289 160.839 95.5031 160.399 95.884C160.168 96.0896 159.864 96.1928 159.561 96.1928Z" fill="#2E3233"/>
<path d="M147.682 97.9825C147.193 97.9825 146.704 97.7641 146.397 97.3771C145.973 96.8422 145.94 96.0424 146.32 95.4748C146.524 95.1695 146.836 94.9493 147.182 94.8401C146.688 94.2622 146.482 93.4271 146.725 92.7005C146.924 92.1036 147.399 91.6547 147.934 91.5567C148.754 91.4062 149.429 92.0056 149.979 92.6119C150.091 92.7349 150.081 92.9249 149.958 93.0367C149.835 93.1485 149.645 93.1391 149.533 93.0161C149.094 92.5319 148.574 92.0503 148.043 92.1483C147.721 92.2077 147.427 92.4992 147.296 92.8914C147.053 93.6146 147.451 94.5228 148.147 94.835C148.291 94.8995 148.36 95.0646 148.306 95.2134C148.252 95.3621 148.092 95.443 147.941 95.3991C147.536 95.283 147.054 95.4593 146.819 95.8093C146.585 96.1593 146.606 96.6728 146.867 97.0021C147.129 97.3324 147.624 97.4691 148.018 97.3203C148.174 97.2619 148.348 97.3401 148.406 97.4958C148.464 97.6514 148.386 97.8251 148.231 97.8836C148.055 97.9507 147.868 97.9825 147.682 97.9825Z" fill="#2E3233"/>
<path d="M162.123 119.054C161.999 119.054 161.882 118.976 161.839 118.851C161.785 118.694 161.868 118.523 162.025 118.468C162.38 118.346 162.781 118.208 163.047 117.951C163.257 117.748 163.392 117.392 163.256 117.147C163.124 116.912 162.777 116.841 162.517 116.908C162.242 116.98 161.975 117.171 161.677 117.511C161.582 117.62 161.422 117.645 161.298 117.572C161.173 117.499 161.118 117.348 161.167 117.211C161.238 117.012 161.325 116.822 161.41 116.639C161.539 116.357 161.662 116.09 161.72 115.812C161.801 115.427 161.713 114.953 161.391 114.788C161.132 114.656 160.788 114.773 160.583 114.956C160.365 115.151 160.203 115.453 160.087 115.881C160.043 116.041 160.009 116.202 159.972 116.373C159.922 116.61 159.869 116.855 159.791 117.097C159.739 117.255 159.569 117.341 159.412 117.289C159.253 117.238 159.167 117.068 159.219 116.91C159.288 116.698 159.335 116.479 159.384 116.247C159.421 116.075 159.459 115.898 159.507 115.722C159.655 115.178 159.876 114.781 160.183 114.506C160.614 114.122 161.209 114.02 161.665 114.252C162.285 114.568 162.435 115.347 162.31 115.936C162.277 116.093 162.229 116.243 162.174 116.388C162.238 116.363 162.302 116.342 162.368 116.325C162.854 116.2 163.496 116.341 163.782 116.853C164.074 117.374 163.844 118.018 163.467 118.382C163.105 118.732 162.636 118.894 162.223 119.036C162.189 119.049 162.156 119.054 162.123 119.054Z" fill="#2E3233"/>
<path d="M150.39 87.9654C150.309 87.9654 150.227 87.9328 150.168 87.8674C149.881 87.5535 149.74 87.1115 149.781 86.6531C149.823 86.1947 150.039 85.7845 150.376 85.5256C150.713 85.2677 151.166 85.1645 151.618 85.2444C151.825 85.2806 152.018 85.3528 152.19 85.4543C152.338 84.9839 152.711 84.5831 153.192 84.4386C153.689 84.2898 154.236 84.43 154.623 84.7611C154.704 84.6218 154.81 84.4937 154.938 84.3836C155.246 84.1178 155.638 83.9897 156.012 84.0327C156.386 84.0757 156.739 84.2898 156.978 84.6192C157.217 84.9486 157.312 85.3494 157.237 85.7191C157.204 85.8817 157.044 85.9875 156.883 85.9548C156.72 85.9221 156.614 85.763 156.647 85.6005C156.688 85.3958 156.632 85.167 156.491 84.9735C156.351 84.78 156.151 84.6553 155.944 84.6313C155.736 84.6072 155.514 84.6829 155.332 84.8394C155.151 84.9959 155.044 85.2049 155.037 85.4138C155.033 85.5549 154.931 85.6736 154.793 85.7002C154.655 85.7269 154.516 85.6538 154.46 85.5239C154.289 85.1292 153.778 84.8918 153.365 85.0157C152.953 85.1395 152.657 85.6194 152.732 86.0434C152.757 86.1844 152.679 86.3237 152.546 86.3762C152.412 86.4286 152.26 86.3788 152.183 86.2575C152.044 86.0416 151.801 85.8886 151.514 85.8378C151.226 85.7871 150.945 85.8481 150.741 86.0038C150.537 86.1595 150.406 86.4157 150.38 86.7064C150.354 86.9971 150.439 87.2723 150.611 87.4615C150.723 87.5845 150.715 87.7745 150.592 87.8863C150.536 87.9396 150.463 87.9654 150.39 87.9654Z" fill="#2E3233"/>
<path d="M150.392 108.82C150.063 108.82 149.749 108.704 149.522 108.494C149.268 108.26 149.122 107.914 149.12 107.542C149.12 107.453 149.128 107.364 149.144 107.278C149.111 107.275 149.08 107.271 149.047 107.265C148.695 107.203 148.394 106.991 148.24 106.697C148.084 106.396 148.081 106.035 148.201 105.714C148.157 105.704 148.113 105.691 148.07 105.677C147.726 105.559 147.458 105.3 147.355 104.982C147.252 104.665 147.316 104.297 147.525 104C147.734 103.702 148.059 103.519 148.392 103.509C148.557 103.503 148.697 103.634 148.702 103.801C148.707 103.967 148.576 104.106 148.41 104.111C148.264 104.115 148.118 104.203 148.017 104.346C147.916 104.49 147.882 104.658 147.927 104.796C147.972 104.935 148.098 105.051 148.263 105.107C148.419 105.16 148.578 105.15 148.697 105.081C148.709 105.073 148.72 105.065 148.732 105.058C148.871 104.973 149.053 105.015 149.142 105.151C149.231 105.288 149.195 105.471 149.06 105.563C149.047 105.572 149.034 105.58 149.021 105.588C148.756 105.771 148.637 106.158 148.773 106.418C148.84 106.545 148.984 106.643 149.149 106.672C149.295 106.697 149.428 106.666 149.516 106.585C149.638 106.472 149.828 106.48 149.94 106.601C150.053 106.723 150.046 106.913 149.925 107.026C149.795 107.147 149.72 107.335 149.721 107.54C149.722 107.744 149.798 107.931 149.928 108.051C150.059 108.172 150.251 108.232 150.456 108.215C150.659 108.199 150.84 108.11 150.95 107.97C151.053 107.84 151.242 107.818 151.373 107.92C151.504 108.024 151.525 108.213 151.423 108.344C151.209 108.614 150.874 108.786 150.504 108.816C150.467 108.819 150.429 108.82 150.392 108.82Z" fill="#2E3233"/>
<path d="M100.77 41.2453C101.007 41.2453 101.2 40.8314 101.2 40.3209C101.2 39.8103 101.007 39.3964 100.77 39.3964C100.532 39.3964 100.34 39.8103 100.34 40.3209C100.34 40.8314 100.532 41.2453 100.77 41.2453Z" fill="#2E3233"/>
<path d="M98.0178 40.8583C98.1603 40.8583 98.2758 40.5311 98.2758 40.1274C98.2758 39.7236 98.1603 39.3964 98.0178 39.3964C97.8753 39.3964 97.7598 39.7236 97.7598 40.1274C97.7598 40.5311 97.8753 40.8583 98.0178 40.8583Z" fill="#2E3233"/>
<path d="M48.4686 23.865C48.4548 23.865 48.4411 23.865 48.4273 23.865C46.0536 23.8564 44.6415 23.2699 44.5821 23.245C44.4291 23.1805 44.3577 23.0033 44.4222 22.8503C44.4867 22.6972 44.6638 22.6258 44.8161 22.6903C44.8402 22.7006 46.1955 23.2553 48.429 23.2631C48.4419 23.2631 48.4548 23.2631 48.4677 23.2631C50.6272 23.2631 52.122 22.6224 52.1366 22.6163C52.2897 22.5501 52.466 22.6198 52.533 22.772C52.5993 22.9242 52.5305 23.1014 52.3782 23.1685C52.3129 23.1968 50.7614 23.865 48.4686 23.865Z" fill="#2E3233"/>
<path d="M47.4107 30.4588C46.2841 30.4588 45.3682 29.5618 45.3682 28.4593C45.3682 27.3568 46.2841 26.4598 47.4107 26.4598C48.5373 26.4598 49.4533 27.3568 49.4533 28.4593C49.4533 29.5618 48.5365 30.4588 47.4107 30.4588ZM47.4107 27.0618C46.6161 27.0618 45.9702 27.6888 45.9702 28.4593C45.9702 29.2299 46.6161 29.8568 47.4107 29.8568C48.2054 29.8568 48.8512 29.2299 48.8512 28.4593C48.8512 27.6888 48.2045 27.0618 47.4107 27.0618Z" fill="#2E3233"/>
<path d="M47.4203 26.3307C46.7624 26.3307 46.2266 25.8052 46.2266 25.1593C46.2266 24.5135 46.7615 23.988 47.4203 23.988C48.0791 23.988 48.614 24.5135 48.614 25.1593C48.614 25.8052 48.0782 26.3307 47.4203 26.3307ZM47.4203 24.5909C47.0943 24.5909 46.8286 24.8463 46.8286 25.1602C46.8286 25.4741 47.0935 25.7295 47.4203 25.7295C47.7471 25.7295 48.012 25.4741 48.012 25.1602C48.012 24.8463 47.7462 24.5909 47.4203 24.5909Z" fill="#2E3233"/>
<path d="M50.3307 27.4486C49.4431 27.4486 48.7207 26.7409 48.7207 25.8706C48.7207 25.0002 49.4431 24.2925 50.3307 24.2925C51.2191 24.2925 51.9406 25.0002 51.9406 25.8706C51.9406 26.7409 51.2182 27.4486 50.3307 27.4486ZM50.3307 24.8953C49.7751 24.8953 49.3227 25.3331 49.3227 25.8714C49.3227 26.4098 49.7751 26.8475 50.3307 26.8475C50.8862 26.8475 51.3386 26.4098 51.3386 25.8714C51.3386 25.3331 50.8862 24.8953 50.3307 24.8953Z" fill="#2E3233"/>
<path d="M48.7229 18.9109C48.0417 18.9109 45.8203 18.8473 45.8203 18.0294C45.8203 17.2116 48.0417 17.1479 48.7229 17.1479C49.404 17.1479 51.6255 17.2116 51.6255 18.0294C51.6255 18.8473 49.4032 18.9109 48.7229 18.9109ZM46.5496 18.0294C46.8644 18.155 47.6126 18.3089 48.722 18.3089C49.8315 18.3089 50.5805 18.155 50.8944 18.0294C50.5797 17.9039 49.8315 17.7499 48.722 17.7499C47.6126 17.7499 46.8644 17.9047 46.5496 18.0294Z" fill="#2E3233"/>
<path d="M48.5587 21.6171C46.9693 21.6171 46.4929 21.2964 46.4138 21.2319C46.3561 21.1854 46.3183 21.1201 46.3063 21.047L45.8204 18.0938C45.7937 17.9295 45.9046 17.7747 46.068 17.7481C46.2323 17.7205 46.3871 17.8323 46.4138 17.9966L46.8756 20.8019C47.0614 20.8767 47.5524 21.0195 48.5974 21.016C49.5967 21.0126 50.1162 20.8827 50.3234 20.8131L51.0278 18.0043C51.0682 17.8427 51.2316 17.7446 51.3933 17.7859C51.555 17.8263 51.6521 17.9897 51.6117 18.1514L50.8704 21.108C50.8506 21.1872 50.799 21.2551 50.7285 21.2955C50.6717 21.3282 50.1316 21.6137 48.5999 21.6189C48.5853 21.6171 48.5716 21.6171 48.5587 21.6171Z" fill="#2E3233"/>
<path d="M73.0929 65.8821C70.4458 64.516 65.8714 60.4177 68.75 54.9534" stroke="#2E3233"/>
</g>
<defs>
<clipPath id="clip0">
<rect width="167.262" height="147.877" fill="white" transform="translate(0.753906 0.0615234)"/>
</clipPath>
</defs>
</svg>
