<svg xmlns="http://www.w3.org/2000/svg" xmlns:xlink="http://www.w3.org/1999/xlink" version="1.1" id="Layer_1" x="0px" y="0px" width="100px" height="91.304px" viewBox="0 0 100 91.304" enable-background="new 0 0 100 91.304" xml:space="preserve">
<g id="Book">
	<path fill="#a50202" d="M84.783,9.62V2.174C84.783,0.972,83.81,0,82.609,0h-8.696c-1.202,0-2.174,0.972-2.174,2.174v6.563   c-8.853,0.309-17.682,2.5-21.64,6.376c-4.317-4.194-14.387-6.417-24.012-6.417C13.124,8.696,0,12.43,0,19.565v65.228   c0,1.202,0.972,2.174,2.174,2.174c0.038,0,0.07-0.02,0.108-0.022c0.038,0.002,0.07,0.022,0.108,0.022   c1.202,0,2.174-0.972,2.174-2.174c0-0.191,0.038-0.287,0.174-0.42c1.802-1.798,10.135-1.764,18.17-1.751l3.178,0.006   c13.069,0,21.739,3.915,21.739,6.503c0,1.202,0.972,2.174,2.174,2.174c0.019,0,0.035-0.01,0.054-0.011   c0.019,0.001,0.035,0.011,0.054,0.011c1.202,0,2.174-0.972,2.174-2.174v-0.513c1.024-2.561,9.4-5.99,21.631-5.99l3.178-0.006   c8.165-0.015,16.57-0.045,18.393,1.771c0.13,0.132,0.168,0.221,0.168,0.401c0,1.202,0.972,2.174,2.174,2.174S100,85.995,100,84.793   V19.565C100,14.476,93.314,11.128,84.783,9.62z M26.087,78.28l-3.165-0.006c-8.258-0.012-14.678-0.014-18.574,1.445V19.565   c0-2.596,8.67-6.522,21.739-6.522c14.137,0,21.847,4.412,21.847,6.679v63.225C43.027,79.873,34.535,78.28,26.087,78.28z    M77.078,78.274l-3.165,0.006c-8.322,0-16.691,1.545-21.631,4.53V19.722c0-2.507,7.677-6.222,19.457-6.637v15.176   c0,1.202,0.972,2.174,2.174,2.174h8.696c1.202,0,2.174-0.972,2.174-2.174v-14.22c6.785,1.335,10.87,3.742,10.87,5.524v60.077   C91.699,78.249,85.28,78.257,77.078,78.274z"/>
	<path fill="#a50202" d="M84.783,39.13H63.043c-1.202,0-2.174,0.972-2.174,2.174s0.972,2.174,2.174,2.174h21.739   c1.202,0,2.174-0.972,2.174-2.174S85.984,39.13,84.783,39.13z"/>
	<path fill="#a50202" d="M36.957,30.435H15.217c-1.202,0-2.174,0.972-2.174,2.174c0,1.202,0.972,2.174,2.174,2.174h21.739   c1.202,0,2.174-0.972,2.174-2.174C39.13,31.407,38.158,30.435,36.957,30.435z"/>
	<path fill="#a50202" d="M36.957,65.217H15.217c-1.202,0-2.174,0.972-2.174,2.174s0.972,2.174,2.174,2.174h21.739   c1.202,0,2.174-0.972,2.174-2.174S38.158,65.217,36.957,65.217z"/>
	<path fill="#a50202" d="M36.957,47.826H15.217c-1.202,0-2.174,0.972-2.174,2.174s0.972,2.174,2.174,2.174h21.739   c1.202,0,2.174-0.972,2.174-2.174S38.158,47.826,36.957,47.826z"/>
	<path fill="#a50202" d="M36.957,39.13H15.217c-1.202,0-2.174,0.972-2.174,2.174s0.972,2.174,2.174,2.174h21.739   c1.202,0,2.174-0.972,2.174-2.174S38.158,39.13,36.957,39.13z"/>
	<path fill="#a50202" d="M36.957,56.522H15.217c-1.202,0-2.174,0.972-2.174,2.174s0.972,2.174,2.174,2.174h21.739   c1.202,0,2.174-0.972,2.174-2.174S38.158,56.522,36.957,56.522z"/>
	<path fill="#a50202" d="M84.783,56.522H63.043c-1.202,0-2.174,0.972-2.174,2.174s0.972,2.174,2.174,2.174h21.739   c1.202,0,2.174-0.972,2.174-2.174S85.984,56.522,84.783,56.522z"/>
	<path fill="#a50202" d="M84.783,47.826H63.043c-1.202,0-2.174,0.972-2.174,2.174s0.972,2.174,2.174,2.174h21.739   c1.202,0,2.174-0.972,2.174-2.174S85.984,47.826,84.783,47.826z"/>
</g>
</svg>