<svg xmlns="http://www.w3.org/2000/svg" xmlns:xlink="http://www.w3.org/1999/xlink" version="1.1" id="Layer_1" x="0px" y="0px" viewBox="0 0 90 90" enable-background="new 0 0 90 90" xml:space="preserve" height="100px" width="100px">
<path d="M63.4,7.7H30.6c-2.5,0-4.5,2-4.5,4.5v65.6c0,2.5,2,4.5,4.5,4.5h32.8c2.5,0,4.5-2,4.5-4.5V12.2C67.9,9.7,65.9,7.7,63.4,7.7z   M39,11.6h16c0.3,0,0.6,0.3,0.6,0.6c0,0.3-0.3,0.6-0.6,0.6H39c-0.3,0-0.6-0.3-0.6-0.6C38.4,11.9,38.7,11.6,39,11.6z M47,79.3  c-2.4,0-4.3-1.9-4.3-4.3c0-2.4,1.9-4.3,4.3-4.3c2.4,0,4.3,1.9,4.3,4.3C51.3,77.3,49.4,79.3,47,79.3z M65.8,65.5  c0,1.5-1.2,2.7-2.7,2.7H30.9c-1.5,0-2.7-1.2-2.7-2.7V17.6c0-1.5,1.2-2.7,2.7-2.7h32.2c1.5,0,2.7,1.2,2.7,2.7V65.5z"/>
</svg>