<svg xmlns="http://www.w3.org/2000/svg" xmlns:xlink="http://www.w3.org/1999/xlink" version="1.1" id="Capa_1" x="0px" y="0px" width="100px" height="100px" viewBox="0 0 100 100" enable-background="new 0 0 100 100" xml:space="preserve">
<g id="Capa_29">
	<g>
		<polygon points="57.125,14.055 44.729,1.659 32.333,14.055 32.333,24.579 41.073,15.834 41.073,98.342 48.385,98.342     48.385,15.834 57.125,24.579   "  style="fill:#a50202"/>
		<polygon points="87.605,45.02 77.078,45.02 85.826,53.759 54.723,53.759 54.723,98.342 62.035,98.342 62.035,61.073     85.826,61.073 77.078,69.813 87.605,69.813 100,57.416   "  style="fill:#a50202"/>
		<polygon points="22.92,24.734 12.396,24.734 0,37.132 12.396,49.528 22.92,49.528 14.178,40.788 27.475,40.788 27.475,98.342     34.788,98.342 34.788,33.475 14.178,33.475   "  style="fill:#a50202"/>
	</g>
</g>
</svg>