<svg width="600" height="600" viewBox="0 0 600 600" fill="none" xmlns="http://www.w3.org/2000/svg">
<path d="M369.448 100.273C369.58 102.259 369.713 104.244 369.845 106.23C367.421 104.568 365.121 102.562 363.812 99.9309C362.503 97.2977 362.366 93.9305 364.085 91.5459C365.595 89.4507 368.187 88.4682 370.652 87.6976C384.159 83.4754 398.594 82.2512 412.736 84.2893C408.239 80.5892 403.903 76.0456 402.908 70.3074C402.19 66.1582 403.364 61.8221 405.594 58.2474C408.677 53.3048 413.721 49.7142 419.282 47.9838C424.843 46.2512 430.885 46.315 436.54 47.7125C442.648 49.224 448.366 52.2858 453.009 56.5307C456.427 59.654 459.334 63.5638 460.291 68.0938C461.591 74.2492 459.008 80.8149 454.577 85.2833C450.147 89.7517 444.098 92.3255 438.086 93.2922C441.866 96.5317 444.107 101.495 444.039 106.472C443.97 111.448 441.595 116.348 437.73 119.485C438.348 120.595 438.601 121.885 438.564 123.155C438.473 126.274 436.592 129.222 433.927 130.842C431.261 132.463 427.905 132.796 424.893 131.985C421.881 131.173 419.216 129.276 417.243 126.86C419.361 124.958 420.077 121.938 420.189 119.095C420.26 117.298 420.125 115.461 419.448 113.797C418.771 112.132 417.487 110.653 415.795 110.049C414.101 109.447 412.006 109.878 411.171 111.198C404.226 112.264 396.985 111.337 390.532 108.553C384.079 105.769 378.434 101.141 374.444 95.3576C373.502 97.4459 371.774 99.1672 369.448 100.273Z" fill="#BD3D3C"/>
<path d="M380.588 294.065C391.124 265.997 396.088 235.851 395.11 205.886C394.829 197.309 393.199 187.012 386.831 181.257C388.096 179.575 390.898 177.97 392.392 176.399C396.124 172.478 398.87 168.762 401.706 164.533C405.806 158.419 409.775 156.1 417.005 154.714C425.412 153.102 438.053 155.448 445.386 159.862C452.721 164.275 458.587 170.855 463.049 178.157C450.712 178.811 439.799 188.133 430.401 196.153C427.471 198.654 422.94 200.04 422.113 202.963C420.831 207.486 423.622 215.196 424.53 221.103C426.942 219.188 429.357 217.273 431.092 215.746C433.34 221.231 435.599 226.75 436.89 232.536C438.183 238.323 438.47 244.446 436.787 250.13C434.45 258.02 428.586 264.333 422.544 269.92C415.811 276.149 408.615 281.875 401.054 287.069C397.958 289.196 394.77 291.25 391.263 292.604C387.756 293.958 383.887 294.581 380.588 294.065Z" fill="#E9BC6C"/>
<path d="M369.733 100.433C370.137 106.289 370.538 112.144 370.942 118.001C371.038 119.403 371.131 120.837 370.757 122.191C370.381 123.545 369.442 124.829 368.092 125.221C369.166 126.249 370.24 127.277 371.316 128.305C370.871 131.542 370.427 134.814 370.721 138.069C371.015 141.325 372.118 144.61 374.392 146.956C376.827 149.471 380.352 150.661 383.827 151.082C387.302 151.504 390.82 151.242 394.32 151.306C395.503 151.329 396.835 151.459 397.58 152.377C398.045 152.95 398.18 153.716 398.296 154.443C398.98 158.676 399.666 162.912 400.35 167.146C403.508 160.482 410.166 155.599 417.474 154.591C415.579 145.752 413.714 136.344 416.845 127.863C417.691 125.572 418.881 123.42 419.672 121.108C420.463 118.798 420.83 116.227 419.991 113.933C419.15 111.642 416.838 109.773 414.414 110.065C413.253 110.204 412.202 110.794 411.083 111.127C409.252 111.672 407.293 111.512 405.394 111.298C399.391 110.625 393.376 109.445 387.878 106.939C382.381 104.431 377.399 100.503 374.412 95.2529C373.402 97.3731 371.669 99.14 369.733 100.433Z" fill="#C19C9C"/>
<path d="M431.276 215.611C433.886 220.828 436.244 226.215 437.548 231.898C438.852 237.582 439.071 243.605 437.432 249.202C435.774 254.858 432.302 259.839 428.243 264.111C424.182 268.384 419.52 272.027 414.987 275.798C410.057 279.897 405.244 284.178 399.849 287.646C394.455 291.113 388.383 293.769 381.942 294.323C379.486 294.8 376.98 293.812 374.807 292.572C372.634 291.332 370.582 289.809 368.195 289.059C365.135 288.097 361.776 288.505 358.758 289.588C355.739 290.669 352.996 292.387 350.278 294.09C346.486 296.468 342.658 298.876 339.514 302.058C338.898 302.681 338.296 303.353 337.981 304.174C337.669 304.992 337.694 305.993 338.257 306.666C338.976 307.525 340.259 307.582 341.379 307.521C349.51 307.067 357.465 303.868 363.648 298.568C363.833 300.624 365.97 301.751 367.429 303.21C372.288 308.068 376.597 314.057 380.934 317.166C384.741 315.183 386.962 310.548 385.911 306.447C405.221 301.7 425.158 296.658 440.866 284.465C453.967 274.295 464.934 259.673 466.811 243.197C468.596 227.535 466.555 210.938 460.112 194.913C449.457 200.535 439.511 207.498 431.276 215.611Z" fill="#C19C9C"/>
<path d="M351.287 505.2C351.508 509.696 351.727 514.192 351.948 518.69C355.868 518.637 359.785 518.583 363.704 518.53C364.45 513.478 365.193 508.429 365.939 503.377C361.534 504.767 356.912 505.46 351.287 505.2Z" fill="#C19C9C"/>
<path d="M379.415 195.274C383.569 202.444 387.723 209.614 391.875 216.786C392.473 217.819 393.093 219.013 392.73 220.148C392.452 221.026 391.657 221.621 390.904 222.152C384.105 226.949 377.073 231.415 369.841 235.53C364.371 238.642 358.73 241.576 352.647 243.188C346.563 244.8 339.953 245.009 334.087 242.737C326.321 239.73 320.748 232.79 316.674 225.527C312.599 218.263 309.624 210.377 304.956 203.479C300.289 196.58 293.417 190.536 285.147 189.547C283.964 189.406 282.746 189.365 281.638 188.925C280.53 188.485 279.524 187.532 279.447 186.342C279.369 185.152 280.607 183.948 281.567 184.228C280.35 183.902 279.077 183.547 278.156 182.685C277.235 181.823 276.811 180.289 277.575 179.283C277.981 178.75 278.624 178.467 279.241 178.207C277.659 178.214 276.115 177.22 275.47 175.775C274.825 174.332 275.112 172.517 276.172 171.343C275.404 171.767 274.367 171.475 273.808 170.8C273.247 170.126 273.126 169.159 273.338 168.309C273.55 167.458 274.061 166.708 274.649 166.058C276.606 163.897 279.401 162.73 282.098 161.627C282.244 162.584 282.388 163.542 282.534 164.499C282.564 164.688 282.598 164.889 282.728 165.028C282.908 165.22 283.204 165.226 283.469 165.219C285.167 165.181 286.864 165.142 288.562 165.101C289.6 165.076 290.649 165.053 291.661 165.281C292.673 165.507 293.661 166.013 294.203 166.995C294.548 167.228 294.566 167.732 294.466 168.138C294.365 168.543 294.185 168.949 294.26 169.357C294.363 169.9 294.874 170.249 295.275 170.627C296.737 172 296.946 174.5 295.736 176.099C297.024 176.511 297.733 178.173 297.142 179.388C296.86 179.967 296.328 180.487 296.385 181.128C296.436 181.714 296.955 182.124 297.336 182.571C297.915 183.253 298.221 184.16 298.173 185.054C298.148 185.539 298.045 186.1 298.385 186.447C298.652 186.72 299.078 186.734 299.459 186.729C302.143 186.7 304.824 186.67 307.508 186.638C306.965 185.272 307.054 183.731 307.396 182.302C307.738 180.872 308.319 179.514 308.757 178.112C309.706 175.07 309.963 171.817 309.507 168.667C307.455 169.417 305.016 168.979 303.349 167.565C302.884 167.171 302.45 166.519 302.754 165.99C302.911 165.716 303.221 165.575 303.511 165.445C307.293 163.754 310.714 161.255 313.475 158.164C314.307 157.231 315.1 156.228 316.165 155.569C317.228 154.91 318.657 154.664 319.834 155.198C321.804 156.693 323.774 158.189 325.746 159.684C326.225 160.047 326.733 160.452 326.893 161.032C327.071 161.679 326.765 162.349 326.476 162.956C324.583 166.909 323.049 171.035 321.897 175.264C321.263 177.596 320.741 180.013 321.004 182.416C321.482 186.809 324.465 190.468 326.218 194.558C330.4 200.385 335.457 205.786 341.843 209.053C345.099 210.717 348.811 211.807 352.414 211.166C354.799 210.742 356.986 209.591 359.083 208.38C365.768 204.525 372.011 199.931 379.415 195.274Z" fill="#C19C9C"/>
<path d="M357.145 73.9461C357.176 73.3374 357.591 72.7652 358.157 72.5418L357.145 73.9461Z" fill="white"/>
<path d="M394.813 223.652C389.078 212.363 382.856 201.324 376.166 190.573C375.845 190.055 375.516 189.403 375.819 188.874C375.947 188.649 376.171 188.498 376.385 188.352C379.908 185.988 383.43 183.622 386.953 181.258C388.369 184.187 390.043 186.991 391.949 189.629C392.836 190.855 393.789 192.075 394.274 193.509C394.68 194.708 394.357 207.735 394.37 209.002C394.466 217.695 394.813 216.033 394.813 223.652Z" fill="white"/>
<path d="M417.682 298.085C433.971 295.214 449.06 287.83 463.894 280.514C462.134 274.911 460.372 269.305 458.611 263.701C457.804 267.034 455.517 269.788 453.231 272.344C443.825 282.86 432.906 292.479 417.682 298.085Z" fill="#E9BC6C"/>
<path d="M424.939 220.946C423.992 216.348 423.044 211.748 422.098 207.149C421.895 206.169 421.696 205.127 422.041 204.188C422.321 203.419 422.93 202.822 423.523 202.257C429.246 196.783 435.192 191.494 441.793 187.121C448.394 182.749 455.697 179.295 463.465 177.765C465.652 182.172 467.836 186.576 470.023 190.983C453.157 197.779 437.769 208.216 424.939 220.946Z" fill="white"/>
<path d="M347.249 525.188C346.907 523.79 346.837 522.329 347.044 520.904C347.115 520.416 347.236 519.898 347.603 519.568C348.013 519.196 348.62 519.16 349.174 519.148C350.428 519.123 351.682 519.13 352.936 519.137C357.118 519.16 361.299 519.185 365.481 519.208C365.912 519.21 366.366 519.217 366.744 519.427C367.478 519.832 367.64 520.801 367.718 521.638C367.825 522.787 367.891 524.075 367.141 524.953C366.692 525.479 366.021 525.76 365.353 525.942C362.241 526.792 358.962 525.871 355.749 525.591C353.344 525.381 350.923 525.536 348.513 525.694" fill="white"/>
<path d="M298.591 553.311C298.411 552.522 298.23 551.715 298.328 550.915C298.427 550.112 298.862 549.303 299.605 548.981C300.013 548.806 300.469 548.79 300.914 548.779C322.108 548.206 343.301 547.634 364.499 547.333C364.038 548.086 364.602 549.025 365.103 549.75C365.605 550.475 366.043 551.533 365.42 552.16C365.078 552.504 364.549 552.552 364.066 552.579C342.471 553.835 320.828 554.277 298.591 553.311Z" fill="white"/>
<path d="M350.595 525.929C349.174 531.254 344.247 535.458 338.763 536.026C333.952 536.523 329.296 534.478 324.615 533.263C319.018 531.808 312.859 531.578 307.638 534.065C302.417 536.553 298.477 542.243 299.311 547.965C321.097 548.123 342.89 547.516 364.635 546.148C364.95 539.307 364.715 532.438 363.935 525.632C359.71 526.248 355.378 526.132 350.595 525.929Z" fill="#8CAA84"/>
<path d="M447.887 510.569C448.108 515.065 448.327 519.561 448.548 524.059C452.467 524.007 456.385 523.952 460.304 523.899C461.05 518.847 461.793 513.798 462.539 508.746C458.133 510.134 453.512 510.829 447.887 510.569Z" fill="#C19C9C"/>
<path d="M443.849 530.554C443.507 529.157 443.436 527.695 443.644 526.27C443.714 525.783 443.835 525.265 444.202 524.934C444.613 524.563 445.219 524.526 445.773 524.515C447.027 524.49 448.281 524.497 449.535 524.504C453.717 524.526 457.899 524.551 462.081 524.574C462.511 524.576 462.965 524.583 463.344 524.793C464.078 525.199 464.24 526.168 464.317 527.004C464.424 528.154 464.491 529.442 463.74 530.319C463.291 530.846 462.621 531.126 461.953 531.309C458.841 532.159 455.562 531.238 452.349 530.958C449.944 530.748 447.522 530.903 445.112 531.06" fill="white"/>
<path d="M395.194 558.678C395.014 557.889 394.834 557.082 394.932 556.282C395.03 555.479 395.466 554.67 396.209 554.348C396.617 554.173 397.073 554.157 397.518 554.145C418.711 553.573 439.904 553.001 461.102 552.7C460.642 553.452 461.205 554.392 461.707 555.117C462.208 555.842 462.646 556.899 462.023 557.526C461.681 557.871 461.153 557.918 460.669 557.946C439.074 559.202 417.432 559.647 395.194 558.678Z" fill="white"/>
<path d="M447.192 531.295C445.772 536.62 440.845 540.824 435.361 541.392C430.55 541.889 425.894 539.844 421.213 538.629C415.616 537.174 409.457 536.944 404.236 539.431C399.014 541.919 395.074 547.609 395.909 553.331C417.695 553.489 439.488 552.882 461.233 551.514C461.548 544.673 461.313 537.804 460.533 530.998C456.308 531.614 451.976 531.498 447.192 531.295Z" fill="#8CAA84"/>
<path d="M347.299 369.95L323.506 499.002C323.506 499.002 348.614 517.391 392.093 492.201L403.088 486.659L415.658 485.702L422.922 488.921L440.654 506.265L452.782 511.301L467.181 512.931L473.706 511.301L480.64 477.647L483.433 453.684L484.363 428.21L484.131 407.04C484.131 407.04 484.115 392.472 483.773 388.642C481.274 360.633 463.895 280.893 463.895 280.893L448.172 288.072L421.873 297.565L413.391 299.551L387.081 305.907C387.081 305.907 385.554 316.077 381.032 317.992L404.577 344.608L357.901 382.099L350.42 373.527" fill="#0090BA"/>
<path d="M467.19 513.045L467.17 513.043L452.755 511.411L452.739 511.404L440.591 506.361L440.575 506.345L422.856 489.017L415.637 485.818L403.12 486.771L392.146 492.302C382.223 498.049 372.437 501.986 363.059 503.999C355.555 505.611 348.295 506.001 341.482 505.157C329.874 503.721 323.504 499.137 323.44 499.091L323.383 499.048L323.396 498.977L347.189 369.925L347.413 369.966L323.634 498.945C324.295 499.406 330.561 503.578 341.528 504.929C348.313 505.766 355.546 505.376 363.024 503.769C372.375 501.761 382.136 497.832 392.039 492.097L403.058 486.541L403.081 486.538L415.678 485.579L423.002 488.832L440.721 506.161L452.814 511.181L467.176 512.808L473.613 511.199L480.533 477.615L483.324 453.664L484.254 428.199L484.022 407.033C484.022 406.888 484.001 392.425 483.664 388.645C481.242 361.511 464.639 284.821 463.818 281.048L448.224 288.168L421.919 297.665L413.426 299.653L387.191 305.991C387.034 306.99 385.492 316.034 381.229 318.024L404.748 344.615L404.654 344.691L357.892 382.25L350.34 373.596L350.511 373.445L357.919 381.935L404.417 344.588L380.848 317.942L380.994 317.88C385.403 316.011 386.958 305.984 386.974 305.884L386.986 305.809L413.371 299.435L421.853 297.449L448.138 287.958L463.982 280.724L464.012 280.864C464.185 281.661 481.42 360.929 483.892 388.626C484.229 392.415 484.25 406.888 484.25 407.033L484.482 428.203L483.552 453.682L480.759 477.654L473.809 511.388L467.19 513.045Z" fill="#0090BA"/>
<path d="M340.754 273.146L296.826 309.705L357.073 381.491L404.622 343.635L363.471 298.769L348.206 305.642L339.851 308.086L337.498 306.304L337.188 304.042L339.876 301.354C339.876 301.354 355.623 290.785 355.666 290.532C355.709 290.279 341.121 272.659 341.121 272.659" fill="white"/>
<path d="M357.057 381.65L356.986 381.566L296.664 309.691L296.753 309.618L340.681 273.06L340.827 273.235L296.986 309.721L357.089 381.335L404.455 343.626L363.443 298.91L348.253 305.752L339.831 308.218L337.396 306.372L337.072 304.008L339.799 301.279C343.987 298.466 354.72 291.225 355.531 290.518C354.888 289.52 344.915 277.421 341.037 272.736L341.212 272.59C341.249 272.633 344.902 277.047 348.502 281.433C355.819 290.347 355.798 290.464 355.782 290.557C355.739 290.806 347.145 296.619 339.942 301.454L337.311 304.09L337.608 306.249L339.876 307.97L348.173 305.542L363.498 298.639L363.553 298.7L404.786 343.655L404.69 343.731L357.057 381.65Z" fill="#008FBE"/>
<path d="M375.037 130.701C374.923 130.701 374.809 130.676 374.7 130.626C372.069 129.395 369.663 127.758 367.554 125.761C367.237 125.46 367.219 124.961 367.518 124.639L375.963 115.518C376.262 115.194 376.768 115.176 377.092 115.475C377.416 115.773 377.434 116.279 377.135 116.603L369.232 125.136C371.075 126.775 373.138 128.134 375.377 129.181C375.776 129.368 375.95 129.842 375.763 130.241C375.623 130.533 375.336 130.701 375.037 130.701Z" fill="#08311E"/>
<path d="M391.73 152.674C388.69 152.674 385.653 152.361 382.696 151.734C380.329 151.233 376.895 150.296 374.417 147.959C372.089 145.766 370.648 142.435 370.135 138.06C369.941 136.417 369.877 134.752 369.814 133.141C369.743 131.33 369.67 129.459 369.412 127.655C369.351 127.22 369.654 126.814 370.089 126.753C370.527 126.689 370.931 126.994 370.992 127.43C371.261 129.313 371.337 131.228 371.41 133.079C371.471 134.659 371.535 136.293 371.722 137.876C372.192 141.868 373.469 144.87 375.516 146.799C377.703 148.86 380.851 149.712 383.031 150.173C388.845 151.404 394.986 151.379 400.791 150.098C401.222 150.002 401.646 150.275 401.742 150.704C401.837 151.135 401.564 151.561 401.135 151.655C398.059 152.334 394.895 152.674 391.73 152.674Z" fill="#08311E"/>
<path d="M400.258 167.175C400.258 167.175 400.255 167.175 400.253 167.175C399.813 167.173 399.457 166.815 399.46 166.373C399.483 161.441 398.463 156.444 396.509 151.916C396.334 151.513 396.521 151.043 396.927 150.868C397.332 150.692 397.802 150.879 397.975 151.285C400.014 156.013 401.079 161.234 401.056 166.382C401.053 166.822 400.698 167.175 400.258 167.175Z" fill="#08311E"/>
<path d="M411.785 129.406C410.228 129.406 408.723 128.959 407.537 128.038C407.189 127.767 407.127 127.268 407.396 126.919C407.665 126.57 408.167 126.509 408.516 126.778C410.438 128.271 414.106 128.33 416.683 125.822C419.392 123.185 419.759 119.248 419.736 117.134C419.72 115.703 419.424 112.233 416.995 110.933C415.009 109.869 412.426 110.828 410.901 112.326C409.127 114.068 408.153 116.644 407.371 118.714C407.216 119.127 406.755 119.334 406.343 119.179C405.93 119.024 405.723 118.564 405.878 118.151C406.714 115.935 407.756 113.177 409.781 111.189C412.465 108.553 415.791 108.48 417.748 109.529C419.987 110.728 421.291 113.496 421.33 117.121C421.373 121.208 420.117 124.708 417.793 126.969C416.152 128.57 413.919 129.406 411.785 129.406Z" fill="#08311E"/>
<path d="M409.984 124.261C409.943 124.261 409.902 124.259 409.861 124.252C409.426 124.183 409.127 123.775 409.195 123.34C409.788 119.553 411.804 115.96 414.724 113.48C415.06 113.195 415.564 113.236 415.849 113.571C416.134 113.906 416.093 114.41 415.757 114.695C413.122 116.931 411.304 120.171 410.771 123.586C410.712 123.98 410.372 124.261 409.984 124.261Z" fill="#08311E"/>
<path d="M414.803 123.718C414.801 123.718 414.796 123.718 414.794 123.718C414.354 123.714 414 123.351 414.005 122.911C414.012 122.209 413.718 121.493 413.216 121.001C412.714 120.508 411.996 120.225 411.291 120.244C410.854 120.253 410.484 119.909 410.473 119.469C410.462 119.029 410.808 118.662 411.248 118.65C412.393 118.618 413.519 119.063 414.335 119.865C415.152 120.668 415.612 121.787 415.601 122.932C415.596 123.367 415.238 123.718 414.803 123.718Z" fill="#08311E"/>
<path d="M370.088 123.493C370.07 123.493 370.05 123.493 370.031 123.49C369.591 123.458 369.261 123.078 369.29 122.638C369.794 115.452 369.692 108.172 368.982 101.002C368.939 100.565 369.261 100.173 369.698 100.129C370.136 100.084 370.528 100.405 370.572 100.845C371.29 108.104 371.395 115.475 370.884 122.749C370.854 123.171 370.503 123.493 370.088 123.493Z" fill="#08311E"/>
<path d="M380.002 138.546C379.389 138.546 378.776 138.498 378.171 138.402C377.736 138.334 377.439 137.923 377.508 137.49C377.576 137.055 377.989 136.758 378.42 136.827C380.894 137.219 383.523 136.672 385.634 135.327C387.745 133.982 389.353 131.83 390.044 129.424C390.165 129 390.607 128.756 391.031 128.877C391.455 128.998 391.699 129.44 391.578 129.864C390.782 132.639 388.929 135.122 386.491 136.672C384.572 137.894 382.282 138.546 380.002 138.546Z" fill="#08311E"/>
<path d="M427.967 133.054C427.306 133.054 426.638 133.004 425.977 132.899C422.552 132.363 419.216 130.489 416.585 127.628C416.287 127.304 416.309 126.798 416.633 126.499C416.957 126.201 417.463 126.224 417.762 126.547C420.149 129.144 423.156 130.84 426.225 131.321C429.554 131.843 433.002 130.842 435.216 128.709C437.578 126.433 438.458 122.852 437.355 120.002C437.195 119.592 437.4 119.129 437.811 118.969C438.221 118.81 438.684 119.015 438.844 119.425C440.171 122.859 439.135 127.149 436.322 129.858C434.201 131.903 431.125 133.054 427.967 133.054Z" fill="#08311E"/>
<path d="M411.108 112.103C411.099 112.103 411.092 112.103 411.083 112.103C403.773 111.879 395.346 111.346 387.851 107.855C381.143 104.73 375.603 99.3769 372.253 92.7769C372.053 92.3848 372.21 91.9038 372.604 91.7032C372.999 91.5048 373.478 91.6599 373.678 92.0543C376.868 98.335 382.14 103.433 388.526 106.408C395.747 109.77 403.981 110.288 411.133 110.507C411.573 110.52 411.92 110.888 411.906 111.33C411.893 111.761 411.537 112.103 411.108 112.103Z" fill="#08311E"/>
<path d="M434.132 122.02C433.822 122.02 433.525 121.838 433.395 121.532C433.224 121.126 433.413 120.659 433.819 120.486C438.003 118.716 441.323 115.076 442.7 110.749C444.077 106.419 443.469 101.532 441.075 97.6718C436.954 91.0308 428.536 88.4045 422.563 87.007C406.007 83.136 388.79 83.3183 372.77 87.5382C369.304 88.4501 365.148 89.9434 363.766 93.4018C362.929 95.4969 363.292 98.1324 364.733 100.449C366.192 102.795 368.497 104.527 370.342 105.774C370.707 106.02 370.802 106.517 370.556 106.882C370.31 107.247 369.813 107.343 369.448 107.096C367.471 105.761 364.995 103.893 363.378 101.292C361.671 98.545 361.262 95.3738 362.284 92.8113C363.928 88.6895 368.534 87.0047 372.364 85.9971C388.635 81.7134 406.119 81.5264 422.925 85.4568C429.177 86.9181 437.999 89.688 442.431 96.8352C445.067 101.087 445.737 106.47 444.221 111.237C442.705 116.004 439.05 120.011 434.442 121.961C434.339 121.999 434.234 122.02 434.132 122.02Z" fill="#08311E"/>
<path d="M367.872 102.01C367.564 102.01 367.27 101.83 367.14 101.529C366.965 101.126 367.152 100.656 367.557 100.481C370.077 99.3931 372.321 97.551 373.876 95.2917C374.126 94.9293 374.623 94.8381 374.986 95.0866C375.349 95.3373 375.44 95.8343 375.191 96.1968C373.467 98.7 370.982 100.74 368.191 101.946C368.084 101.987 367.977 102.01 367.872 102.01Z" fill="#08311E"/>
<path d="M439.141 94.0992C438.767 94.0992 438.434 93.8347 438.359 93.454C438.274 93.0209 438.555 92.6014 438.988 92.517C445.372 91.2654 450.277 88.5571 454.42 83.9929C458.863 79.0982 460.662 72.3091 459.003 66.694C457.619 62.0113 453.907 57.7299 447.969 53.9682C442.014 50.1952 435.981 48.0385 430.039 47.5598C423.385 47.0217 416.826 48.7772 412.051 52.3724C406.805 56.3232 403.706 62.5334 403.966 68.5816C404.228 74.7142 409.883 82.0848 415.831 84.0431C416.251 84.1799 416.477 84.6313 416.34 85.0508C416.201 85.4702 415.752 85.6959 415.332 85.5591C408.72 83.3797 402.662 75.478 402.37 68.65C402.089 62.0842 405.432 55.3589 411.091 51.098C416.176 47.2702 423.128 45.4008 430.169 45.9685C436.373 46.47 442.65 48.7065 448.824 52.6209C455.099 56.5968 459.039 61.1792 460.535 66.2426C462.347 72.382 460.412 79.7708 455.603 85.0667C451.216 89.8976 446.036 92.7632 439.296 94.0832C439.243 94.0946 439.191 94.0992 439.141 94.0992Z" fill="#08311E"/>
<path d="M417.397 154C417.023 154 416.69 153.736 416.615 153.355C414.935 144.788 414.725 136.063 415.99 127.425C416.054 126.99 416.46 126.686 416.895 126.75C417.331 126.814 417.634 127.22 417.57 127.655C416.33 136.115 416.535 144.658 418.181 153.047C418.266 153.481 417.985 153.9 417.552 153.984C417.5 153.996 417.449 154 417.397 154Z" fill="#08311E"/>
<path d="M380.683 294.447C380.589 294.447 380.494 294.431 380.4 294.394C379.988 294.237 379.78 293.776 379.937 293.366C385.104 279.74 388.957 265.498 391.393 251.037C393.828 236.577 394.849 221.858 394.427 207.291C394.379 205.635 394.313 203.948 394.247 202.316C393.994 195.928 393.73 189.324 394.553 182.856C395.387 176.29 397.806 167.1 404.594 160.619C411.147 154.359 421.339 151.525 431.191 153.221C439.821 154.707 448.468 159.566 455.534 166.9C461.268 172.852 466.113 180.323 470.776 190.416C470.867 190.612 470.874 190.837 470.796 191.038C470.719 191.239 470.562 191.401 470.363 191.485C453.696 198.509 438.164 209.016 425.448 221.877C425.24 222.086 424.935 222.164 424.652 222.08C424.369 221.995 424.157 221.763 424.098 221.473L414.387 173.678C414.301 173.247 414.579 172.825 415.01 172.736C415.441 172.649 415.862 172.927 415.951 173.358L425.366 219.697C437.831 207.364 452.868 197.239 468.981 190.334C464.501 180.786 459.852 173.675 454.384 168.003C447.551 160.913 439.22 156.219 430.92 154.792C421.556 153.18 411.89 155.854 405.695 161.77C399.247 167.93 396.938 176.744 396.135 183.054C395.33 189.39 395.59 195.928 395.841 202.25C395.907 203.885 395.973 205.576 396.021 207.24C396.445 221.911 395.415 236.734 392.963 251.297C390.512 265.86 386.629 280.205 381.429 293.927C381.308 294.251 381.004 294.447 380.683 294.447Z" fill="#08311E"/>
<path d="M421.821 204.452C421.614 204.452 421.409 204.372 421.251 204.213C420.943 203.898 420.948 203.392 421.263 203.084C426.883 197.576 433.014 191.824 439.766 187.085C447.201 181.864 454.682 178.397 462.006 176.778C462.436 176.682 462.863 176.953 462.956 177.384C463.052 177.815 462.778 178.241 462.35 178.335C455.234 179.908 447.942 183.291 440.682 188.391C434.024 193.067 427.952 198.764 422.38 204.224C422.225 204.375 422.024 204.452 421.821 204.452Z" fill="#08311E"/>
<path d="M395.084 224.386C394.784 224.386 394.496 224.215 394.362 223.926C388.716 211.882 381.894 200.314 374.087 189.547C373.953 189.36 373.905 189.125 373.955 188.899C374.005 188.676 374.153 188.484 374.354 188.375C384.338 183.011 393.16 175.344 399.864 166.204C400.123 165.848 400.625 165.771 400.978 166.033C401.334 166.293 401.412 166.792 401.149 167.148C394.485 176.233 385.77 183.893 375.907 189.346C383.552 199.986 390.244 211.389 395.803 223.251C395.99 223.65 395.819 224.124 395.42 224.311C395.312 224.361 395.198 224.386 395.084 224.386Z" fill="#08311E"/>
<path d="M394.373 193.642C394.117 193.642 393.869 193.521 393.714 193.293C391.217 189.641 388.862 185.826 386.714 181.96C386.5 181.575 386.639 181.089 387.024 180.875C387.409 180.66 387.895 180.8 388.109 181.185C390.232 185.008 392.56 188.779 395.032 192.392C395.28 192.757 395.187 193.252 394.822 193.5C394.685 193.596 394.528 193.642 394.373 193.642Z" fill="#08311E"/>
<path d="M321 182.614C320.952 182.614 320.904 182.609 320.858 182.6C320.425 182.523 320.136 182.108 320.215 181.673C321.319 175.56 323.109 169.56 325.535 163.842C325.961 162.839 326.267 162.019 326.034 161.321C325.861 160.806 325.371 160.368 324.88 159.962C323.28 158.633 321.552 157.438 319.741 156.41C319.075 156.032 318.366 155.665 317.678 155.688C316.643 155.724 315.749 156.606 314.85 157.587C311.745 160.977 308.607 164.114 304.392 165.222L304.307 165.244C303.753 165.39 303.126 165.554 302.983 165.883C302.855 166.172 303.117 166.631 303.427 166.915C304.082 167.511 305.067 167.85 306.528 167.982C311.64 168.447 316.969 166.387 320.437 162.602C320.735 162.276 321.239 162.256 321.565 162.552C321.889 162.851 321.912 163.354 321.615 163.678C317.819 167.823 311.984 170.08 306.387 169.571C305.238 169.467 303.571 169.2 302.355 168.094C301.667 167.467 301.035 166.341 301.526 165.235C301.982 164.205 303.094 163.913 303.906 163.701L303.988 163.68C307.784 162.682 310.737 159.718 313.676 156.511C314.768 155.318 315.972 154.151 317.625 154.094C318.729 154.058 319.705 154.555 320.532 155.024C322.423 156.098 324.231 157.347 325.904 158.736C326.54 159.265 327.245 159.903 327.55 160.815C327.995 162.139 327.425 163.484 327.008 164.467C324.627 170.075 322.872 175.959 321.789 181.955C321.713 182.343 321.378 182.614 321 182.614Z" fill="#08311E"/>
<path d="M308.216 188.031C307.931 188.031 307.658 187.878 307.512 187.611C306.34 185.432 306.18 182.607 307.083 180.058C307.877 177.815 309.443 175.754 311.609 174.104C312.679 173.287 313.675 172.879 314.585 172.879C314.587 172.879 314.592 172.879 314.594 172.879C314.662 170.948 314.84 169.011 315.13 167.105C315.196 166.669 315.604 166.371 316.037 166.434C316.473 166.501 316.774 166.906 316.708 167.342C316.384 169.487 316.201 171.673 316.165 173.839C316.16 174.101 316.026 174.345 315.807 174.491C315.588 174.637 315.31 174.664 315.066 174.566C314.291 174.252 313.283 174.831 312.576 175.371C310.656 176.835 309.279 178.638 308.588 180.59C307.833 182.721 307.957 185.065 308.919 186.854C309.129 187.242 308.983 187.725 308.593 187.935C308.474 187.999 308.344 188.031 308.216 188.031Z" fill="#08311E"/>
<path d="M283.645 173.406C281.062 173.406 278.467 173.03 276.007 172.289C273.788 171.621 272.534 170.479 272.377 168.985C272.231 167.586 273.145 166.441 273.845 165.7C276.007 163.421 278.747 161.775 281.778 160.94C282.202 160.824 282.642 161.072 282.758 161.496C282.874 161.92 282.626 162.36 282.202 162.477C279.454 163.234 276.964 164.727 275.006 166.797C274.237 167.608 273.907 168.251 273.966 168.817C274.078 169.884 275.583 170.492 276.467 170.759C279.726 171.739 283.232 172.04 286.611 171.63C289.733 171.249 291.976 170.237 293.278 168.618C293.764 168.014 293.967 167.408 293.816 167C293.643 166.528 293.007 166.193 291.922 166.008C287.829 165.31 283.485 165.851 279.691 167.529C279.288 167.706 278.818 167.524 278.638 167.123C278.458 166.722 278.643 166.25 279.044 166.07C283.123 164.264 287.793 163.685 292.189 164.435C292.818 164.542 294.735 164.87 295.315 166.453C295.668 167.419 295.385 168.545 294.521 169.619C292.95 171.573 290.353 172.784 286.803 173.214C285.759 173.344 284.703 173.406 283.645 173.406Z" fill="#08311E"/>
<path d="M285.079 179.538C282.696 179.538 280.377 179.176 278.229 178.451C276.246 177.781 275.046 176.825 274.561 175.531C274.08 174.242 274.385 172.658 275.402 171.183C275.653 170.82 276.15 170.729 276.513 170.978C276.875 171.229 276.966 171.726 276.718 172.088C276.378 172.58 275.635 173.846 276.056 174.972C276.362 175.788 277.24 176.431 278.74 176.937C282.91 178.344 287.781 178.271 292.459 176.732C293.125 176.513 293.889 176.233 294.525 175.809C294.958 175.519 295.531 175.024 295.791 174.322C296.067 173.572 295.918 172.633 295.412 171.931C294.913 171.24 294.097 170.759 293.171 170.613C292.735 170.545 292.439 170.137 292.507 169.701C292.576 169.266 292.986 168.969 293.419 169.038C294.762 169.25 295.962 169.966 296.707 170.998C297.528 172.136 297.751 173.62 297.289 174.874C296.967 175.749 296.317 176.531 295.412 177.135C294.616 177.667 293.725 177.997 292.959 178.248C290.348 179.11 287.676 179.538 285.079 179.538Z" fill="#08311E"/>
<path d="M286.19 185.085C285.732 185.085 285.267 185.074 284.79 185.049C282.69 184.942 279.66 184.563 277.601 182.518C276.6 181.524 276.226 180.334 276.598 179.331C277.036 178.155 278.308 177.69 278.992 177.441C279.405 177.291 279.863 177.503 280.016 177.918C280.166 178.333 279.954 178.791 279.539 178.941C278.928 179.165 278.26 179.441 278.096 179.89C277.92 180.359 278.326 180.991 278.727 181.39C279.998 182.653 281.952 183.31 284.875 183.458C288.584 183.647 291.658 183.054 294.006 181.693C294.843 181.21 295.443 180.701 295.842 180.145C296.296 179.511 296.489 178.784 296.373 178.155C296.257 177.526 295.778 176.988 295.238 176.878C294.807 176.789 294.526 176.368 294.615 175.937C294.704 175.506 295.124 175.228 295.557 175.314C296.727 175.554 297.707 176.602 297.942 177.863C298.138 178.919 297.844 180.088 297.139 181.073C296.603 181.819 295.842 182.473 294.804 183.072C292.492 184.411 289.599 185.085 286.19 185.085Z" fill="#08311E"/>
<path d="M288.48 191.14C285.662 191.14 283.026 190.415 280.894 189.004C280.404 188.68 279.786 188.222 279.358 187.554C278.867 186.793 278.74 185.888 279.018 185.135C279.312 184.333 280.012 183.726 281.157 183.282C281.567 183.122 282.03 183.325 282.189 183.736C282.349 184.146 282.146 184.609 281.736 184.768C281.052 185.035 280.641 185.343 280.516 185.685C280.413 185.967 280.484 186.353 280.701 186.692C280.967 187.11 281.414 187.436 281.774 187.673C284.631 189.563 288.562 190.048 292.559 189.004C294.032 188.619 295.092 188.133 295.899 187.47C296.85 186.69 297.42 185.623 297.427 184.611C297.434 183.56 296.741 182.555 295.849 182.324C295.423 182.215 295.165 181.78 295.277 181.353C295.386 180.927 295.824 180.672 296.248 180.779C297.842 181.189 299.035 182.842 299.023 184.62C299.014 186.1 298.223 187.627 296.91 188.703C295.918 189.515 294.664 190.101 292.96 190.545C291.451 190.944 289.942 191.14 288.48 191.14Z" fill="#08311E"/>
<path d="M283.08 165.632C282.672 165.632 282.323 165.32 282.286 164.905L281.347 154.518C281.329 154.322 281.386 154.126 281.504 153.966L285.198 149.051L281.801 147.257C281.523 147.109 281.356 146.812 281.377 146.498L281.7 141.656C281.728 141.245 282.065 140.921 282.476 140.91L309.326 140.235C309.755 140.228 310.113 140.552 310.142 140.976L310.466 145.524C310.484 145.764 310.391 146.001 310.215 146.165L307.317 148.871L310.87 152.284C311.043 152.45 311.132 152.687 311.111 152.927L310.354 161.775C310.316 162.215 309.93 162.538 309.49 162.502C309.05 162.465 308.726 162.078 308.763 161.638L309.486 153.168L305.6 149.436C305.443 149.284 305.354 149.074 305.354 148.855C305.354 148.636 305.448 148.426 305.607 148.278L308.843 145.258L308.601 141.849L283.24 142.488L283 146.085L286.767 148.073C286.974 148.183 287.123 148.376 287.173 148.604C287.223 148.832 287.173 149.072 287.031 149.259L282.961 154.675L283.873 164.757C283.912 165.194 283.588 165.584 283.151 165.623C283.13 165.63 283.105 165.632 283.08 165.632Z" fill="#08311E"/>
<path d="M350.656 211.952C350.476 211.952 350.293 211.95 350.113 211.943C343.154 211.697 335.965 207.669 329.87 200.604C324.918 194.861 321.126 187.538 320.21 181.946C320.139 181.511 320.433 181.1 320.869 181.03C321.306 180.959 321.715 181.253 321.785 181.688C323.39 191.494 335.386 209.823 350.168 210.35C357.872 210.619 366.167 204.299 372.225 199.683C374.66 197.825 376.765 196.222 378.521 195.239C378.906 195.025 379.392 195.162 379.606 195.545C379.82 195.93 379.683 196.416 379.3 196.63C377.643 197.558 375.579 199.131 373.192 200.953C367.081 205.608 358.761 211.952 350.656 211.952Z" fill="#08311E"/>
<path d="M298.22 187.269C297.784 187.269 297.429 186.918 297.422 186.481C297.417 186.041 297.768 185.678 298.211 185.673L307.559 185.553C307.564 185.553 307.566 185.553 307.571 185.553C308.006 185.553 308.362 185.904 308.369 186.341C308.373 186.781 308.022 187.144 307.58 187.149L298.231 187.269C298.227 187.269 298.222 187.269 298.22 187.269Z" fill="#08311E"/>
<path d="M309.49 177.644C309.485 177.644 309.481 177.644 309.476 177.644C309.036 177.637 308.683 177.275 308.69 176.835L308.806 169.421C308.813 168.981 309.18 168.625 309.615 168.637C310.055 168.644 310.409 169.006 310.402 169.446L310.286 176.86C310.281 177.295 309.925 177.644 309.49 177.644Z" fill="#08311E"/>
<path d="M343.945 245.048C340.373 245.048 336.478 244.453 332.7 242.727C327.016 240.13 322.123 235.27 317.296 227.432C315.061 223.805 313.055 219.973 311.114 216.27C308.449 211.182 305.692 205.92 302.338 201.178C298.255 195.408 293.984 192.433 289.645 192.333C289.205 192.323 288.856 191.956 288.865 191.516C288.875 191.076 289.237 190.725 289.682 190.737C294.552 190.848 299.249 194.049 303.64 200.255C307.058 205.083 309.84 210.393 312.528 215.527C314.455 219.207 316.45 223.014 318.655 226.593C323.308 234.151 327.98 238.815 333.364 241.273C340.017 244.312 347.108 243.616 351.882 242.495C358.207 241.01 364.095 238.033 369.514 235.037C377.474 230.635 385.261 225.715 392.653 220.417C393.011 220.16 393.51 220.242 393.765 220.6C394.021 220.957 393.941 221.457 393.581 221.712C386.138 227.049 378.299 232.001 370.285 236.433C364.765 239.485 358.759 242.52 352.245 244.047C349.915 244.599 347.051 245.048 343.945 245.048Z" fill="#08311E"/>
<path d="M340.899 308.567C339.143 308.567 337.529 307.993 336.92 306.395C336.46 305.191 336.558 303.265 339.629 300.923C344.023 297.579 348.603 294.367 353.243 291.38C356.983 288.973 361.363 286.474 366.037 287.297C368.36 287.705 370.376 288.897 372.323 290.051C373.438 290.71 374.592 291.394 375.766 291.9C379.706 293.598 384.64 293.605 389.663 291.925C394.255 290.388 398.487 287.655 402.429 284.988C409.735 280.043 419.131 273.311 427.004 265.046C430.413 261.469 435.167 255.936 437.087 249.225C440.179 238.421 435.762 227.127 430.559 215.541C430.379 215.14 430.559 214.668 430.96 214.485C431.361 214.305 431.833 214.485 432.016 214.887C437.347 226.753 441.864 238.341 438.624 249.662C436.606 256.711 431.688 262.445 428.16 266.145C420.182 274.519 410.697 281.317 403.326 286.305C399.292 289.034 394.953 291.834 390.172 293.434C384.777 295.24 379.437 295.215 375.137 293.361C373.869 292.814 372.672 292.107 371.512 291.421C369.601 290.293 367.797 289.226 365.761 288.865C361.655 288.143 357.594 290.475 354.11 292.718C349.504 295.682 344.96 298.869 340.598 302.191C339.335 303.153 337.933 304.562 338.414 305.822C338.922 307.154 341.116 307.138 342.842 306.721C350.603 304.842 357.995 301.206 364.22 296.206C364.564 295.931 365.066 295.985 365.342 296.329C365.618 296.674 365.563 297.175 365.218 297.451C358.811 302.597 351.205 306.34 343.218 308.273C342.463 308.458 341.667 308.567 340.899 308.567Z" fill="#08311E"/>
<path d="M381.359 318.361C381.118 318.361 380.881 318.252 380.723 318.047C380.456 317.696 380.525 317.196 380.876 316.93C384.143 314.445 385.908 310.209 385.37 306.137C385.313 305.702 385.616 305.303 386.052 305.241C406.755 302.359 424.182 295.746 437.846 285.585C445.409 279.961 451.978 272.927 456.839 265.242C462.036 257.031 465.216 248.347 466.295 239.433C468.098 224.53 463.944 209.153 460.28 195.584C460.166 195.157 460.417 194.72 460.843 194.606C461.27 194.492 461.707 194.742 461.821 195.169C465.524 208.877 469.722 224.416 467.88 239.624C466.771 248.775 463.511 257.683 458.187 266.095C453.221 273.944 446.515 281.128 438.797 286.866C425.082 297.064 407.669 303.739 387.03 306.714C387.331 311.093 385.347 315.532 381.841 318.197C381.697 318.309 381.528 318.361 381.359 318.361Z" fill="#08311E"/>
<path d="M357.55 382.845C357.322 382.845 357.096 382.747 356.939 382.56L296.088 310.122C295.951 309.96 295.885 309.75 295.903 309.538C295.922 309.326 296.024 309.132 296.186 308.996L340.698 271.719C340.862 271.582 341.074 271.516 341.288 271.537C341.503 271.557 341.697 271.664 341.831 271.831L356.335 289.841C356.611 290.185 356.556 290.687 356.214 290.963C355.87 291.238 355.368 291.186 355.092 290.842L341.099 273.465L297.823 309.707L357.659 380.939L403.471 344.339L362.81 299.74C362.514 299.414 362.537 298.91 362.863 298.614C363.189 298.317 363.693 298.34 363.989 298.666L405.222 343.895C405.37 344.059 405.445 344.275 405.427 344.494C405.409 344.713 405.302 344.916 405.131 345.055L358.047 382.671C357.901 382.788 357.726 382.845 357.55 382.845Z" fill="#08311E"/>
<path d="M393.67 353.269C393.428 353.269 393.186 353.16 393.031 352.95C383.045 339.634 371.551 332.136 358.871 330.663C348.729 329.484 339.686 332.469 333.886 335.179C327.57 338.129 323.616 341.408 323.575 341.439C323.238 341.722 322.734 341.677 322.451 341.339C322.169 341.002 322.214 340.498 322.552 340.215C322.716 340.076 326.672 336.796 333.159 333.757C339.153 330.95 348.51 327.859 359.037 329.076C372.175 330.597 384.043 338.307 394.308 351.993C394.573 352.346 394.502 352.845 394.149 353.11C394.003 353.217 393.836 353.269 393.67 353.269Z" fill="#08311E"/>
<path d="M387.797 358.33C387.599 358.33 387.4 358.257 387.245 358.109C387.063 357.934 382.722 353.723 379.737 346.881C376.971 340.537 374.938 330.679 380.966 319.75C381.178 319.364 381.664 319.223 382.049 319.437C382.434 319.649 382.576 320.135 382.361 320.522C377.783 328.823 377.384 337.461 381.176 346.193C384.026 352.756 388.306 356.917 388.349 356.958C388.666 357.263 388.677 357.767 388.372 358.086C388.214 358.248 388.007 358.33 387.797 358.33Z" fill="#08311E"/>
<path d="M294.568 149.747C291.718 149.747 288.87 149.662 286.039 149.494C285.599 149.469 285.263 149.09 285.288 148.65C285.316 148.21 285.687 147.873 286.132 147.9C292.922 148.304 299.803 148.217 306.584 147.645C307.027 147.606 307.41 147.934 307.446 148.372C307.483 148.812 307.157 149.197 306.719 149.234C302.692 149.576 298.627 149.747 294.568 149.747Z" fill="#08311E"/>
<path d="M294.559 156.481C290.427 156.481 286.303 156.13 282.269 155.425C281.836 155.35 281.544 154.935 281.619 154.502C281.694 154.069 282.107 153.777 282.543 153.852C291.558 155.425 301.043 155.195 309.972 153.187C310.403 153.091 310.829 153.36 310.925 153.791C311.021 154.222 310.752 154.648 310.321 154.744C305.186 155.9 299.869 156.481 294.559 156.481Z" fill="#08311E"/>
<path d="M464.096 513.693C460.836 513.693 457.545 513.307 454.312 512.535C447.748 510.966 441.692 507.872 436.797 503.584C434.79 501.826 432.909 499.834 431.092 497.91C427.065 493.647 423.262 489.618 418.07 487.715C411.33 485.243 403.991 487.209 399.02 489.295C395.45 490.792 391.998 492.744 388.662 494.631C386.247 495.997 383.753 497.408 381.21 498.651C371.561 503.368 360.806 505.743 350.055 505.743C340.905 505.743 331.76 504.022 323.299 500.557C322.95 500.413 322.749 500.046 322.815 499.674L346.784 369.18C346.863 368.747 347.283 368.459 347.711 368.539C348.145 368.619 348.432 369.034 348.352 369.467L324.503 499.323C342.356 506.432 363.241 505.656 380.508 497.219C383.007 495.997 385.481 494.6 387.875 493.245C391.252 491.335 394.745 489.361 398.402 487.826C403.637 485.631 411.394 483.57 418.62 486.219C424.165 488.253 428.276 492.607 432.252 496.818C434.045 498.717 435.898 500.68 437.848 502.387C442.547 506.505 448.368 509.48 454.682 510.987C460.833 512.457 467.197 512.471 473.121 511.037C482.453 472.424 485.524 430.898 482.248 387.603C479.304 348.714 471.157 307.336 458.031 264.624C457.901 264.203 458.138 263.756 458.56 263.628C458.982 263.498 459.429 263.735 459.556 264.157C472.717 306.983 480.887 348.477 483.837 387.484C487.139 431.121 484.015 472.976 474.555 511.885C474.484 512.172 474.263 512.396 473.978 512.468C470.781 513.282 467.455 513.693 464.096 513.693Z" fill="#08311E"/>
<path d="M412.833 300.33C412.466 300.33 412.136 300.075 412.053 299.701C411.96 299.27 412.234 298.846 412.662 298.751C430.192 294.93 447.028 288.571 462.703 279.849C463.089 279.635 463.574 279.774 463.789 280.159C464.003 280.544 463.864 281.03 463.479 281.244C447.666 290.042 430.682 296.457 413.002 300.31C412.947 300.326 412.89 300.33 412.833 300.33Z" fill="#08311E"/>
<path d="M387.072 122.66C388.129 122.495 388.716 120.628 388.383 118.489C388.049 116.351 386.921 114.751 385.864 114.916C384.806 115.081 384.22 116.948 384.553 119.087C384.887 121.225 386.014 122.825 387.072 122.66Z" fill="#08311E"/>
<path d="M373.226 120.344C374.013 120.344 374.651 119.147 374.651 117.67C374.651 116.193 374.013 114.996 373.226 114.996C372.439 114.996 371.801 116.193 371.801 117.67C371.801 119.147 372.439 120.344 373.226 120.344Z" fill="#08311E"/>
<path d="M320.89 554.569C313.277 554.569 305.705 554.498 298.219 554.428C298.003 554.425 297.798 554.337 297.649 554.182C297.501 554.027 297.421 553.817 297.428 553.6C297.544 550.431 297.734 547.064 298.637 543.815C299.644 540.186 301.443 537.225 303.844 535.248C305.994 533.479 309.916 531.448 316.401 531.817C319.527 531.997 322.612 532.674 325.592 533.328C326.718 533.577 327.883 533.832 329.03 534.056C332.528 534.74 337.079 535.369 341.265 534.16C345.46 532.95 348.65 529.872 349.394 526.323C349.482 525.892 349.907 525.614 350.337 525.705C350.768 525.794 351.047 526.218 350.955 526.649C350.096 530.77 346.466 534.322 341.707 535.695C337.193 536.997 332.398 536.34 328.725 535.622C327.562 535.394 326.387 535.136 325.25 534.888C322.329 534.245 319.308 533.581 316.309 533.41C313.017 533.223 308.357 533.602 304.859 536.479C302.148 538.711 300.814 541.932 300.176 544.239C299.396 547.05 299.175 550.007 299.056 552.836C320.407 553.035 342.453 553.219 364.102 551.728C364.013 543.571 363.922 535.157 363.929 526.87C363.719 526.587 363.715 526.188 363.945 525.899C364.219 525.554 364.72 525.495 365.067 525.769L365.224 525.894C365.416 526.047 365.527 526.277 365.527 526.521C365.518 535.15 365.614 543.925 365.708 552.41V552.465C365.712 552.887 365.386 553.24 364.966 553.27C350.34 554.307 335.537 554.569 320.89 554.569Z" fill="#08311E"/>
<path d="M341.862 542.822C341.486 542.822 341.151 542.555 341.08 542.172L339.842 535.654C339.76 535.221 340.045 534.804 340.478 534.721C340.912 534.639 341.329 534.924 341.411 535.358L342.649 541.875C342.731 542.309 342.446 542.726 342.013 542.808C341.963 542.817 341.912 542.822 341.862 542.822Z" fill="#08311E"/>
<path d="M346.68 542.058C346.338 542.058 346.021 541.837 345.916 541.493L343.689 534.206C343.561 533.785 343.798 533.338 344.218 533.21C344.64 533.082 345.087 533.32 345.214 533.739L347.442 541.025C347.57 541.447 347.332 541.894 346.913 542.022C346.835 542.047 346.758 542.058 346.68 542.058Z" fill="#08311E"/>
<path d="M350.811 539.302C350.578 539.302 350.348 539.201 350.191 539.005C348.757 537.229 347.505 535.296 346.472 533.263C346.271 532.87 346.429 532.389 346.823 532.189C347.218 531.988 347.696 532.145 347.897 532.54C348.88 534.475 350.07 536.313 351.433 538.002C351.709 538.344 351.657 538.848 351.315 539.124C351.164 539.242 350.987 539.302 350.811 539.302Z" fill="#08311E"/>
<path d="M366.21 526.516H348.357C346.993 526.516 345.883 525.406 345.883 524.043V520.783C345.883 519.419 346.993 518.309 348.357 518.309H366.21C367.573 518.309 368.684 519.419 368.684 520.783V524.043C368.684 525.406 367.573 526.516 366.21 526.516ZM348.357 519.905C347.873 519.905 347.479 520.299 347.479 520.783V524.043C347.479 524.526 347.873 524.92 348.357 524.92H366.21C366.693 524.92 367.088 524.526 367.088 524.043V520.783C367.088 520.299 366.693 519.905 366.21 519.905H348.357Z" fill="#08311E"/>
<path d="M298.464 549.137C298.033 549.137 297.678 548.792 297.666 548.359C297.655 547.919 298.004 547.552 298.444 547.541L364.505 545.833C364.945 545.822 365.312 546.168 365.323 546.61C365.335 547.05 364.986 547.418 364.546 547.429L298.485 549.137C298.478 549.137 298.471 549.137 298.464 549.137Z" fill="#08311E"/>
<path d="M352.172 519.504C351.752 519.504 351.401 519.178 351.376 518.754L350.537 505C350.509 504.56 350.845 504.182 351.285 504.154C351.727 504.125 352.103 504.462 352.131 504.902L352.97 518.656C352.997 519.096 352.662 519.474 352.222 519.502C352.204 519.504 352.188 519.504 352.172 519.504Z" fill="#08311E"/>
<path d="M363.774 519.572C363.749 519.572 363.724 519.572 363.697 519.567C363.259 519.526 362.935 519.137 362.978 518.697L364.365 504.168C364.406 503.73 364.796 503.406 365.236 503.45C365.673 503.491 365.997 503.88 365.954 504.32L364.568 518.849C364.529 519.264 364.18 519.572 363.774 519.572Z" fill="#08311E"/>
<path d="M417.565 559.535C409.954 559.535 402.382 559.464 394.899 559.394C394.682 559.391 394.477 559.302 394.329 559.147C394.181 558.992 394.101 558.783 394.108 558.566C394.224 555.397 394.413 552.03 395.316 548.781C396.324 545.152 398.123 542.19 400.524 540.214C402.674 538.445 406.598 536.411 413.08 536.783C416.206 536.96 419.289 537.64 422.271 538.294C423.398 538.543 424.565 538.798 425.71 539.021C429.207 539.705 433.759 540.335 437.945 539.126C442.14 537.916 445.33 534.838 446.073 531.288C446.164 530.857 446.586 530.579 447.017 530.671C447.448 530.759 447.726 531.183 447.635 531.614C446.776 535.736 443.146 539.288 438.387 540.661C433.873 541.965 429.078 541.306 425.404 540.588C424.241 540.36 423.067 540.102 421.929 539.851C419.009 539.208 415.988 538.545 412.989 538.374C409.697 538.187 405.036 538.565 401.539 541.443C398.828 543.674 397.494 546.896 396.855 549.203C396.076 552.014 395.854 554.971 395.736 557.8C417.089 557.998 439.14 558.183 460.782 556.692C460.693 548.533 460.602 540.123 460.609 531.833C460.399 531.551 460.394 531.154 460.622 530.864C460.896 530.518 461.398 530.458 461.744 530.732L461.904 530.857C462.095 531.01 462.207 531.24 462.207 531.484C462.198 540.132 462.294 548.925 462.387 557.428C462.392 557.85 462.066 558.203 461.646 558.233C447.019 559.273 432.215 559.535 417.565 559.535Z" fill="#08311E"/>
<path d="M438.54 547.785C438.164 547.785 437.829 547.518 437.758 547.135L436.52 540.617C436.438 540.184 436.723 539.767 437.156 539.685C437.589 539.603 438.007 539.888 438.089 540.321L439.327 546.839C439.409 547.272 439.124 547.689 438.691 547.771C438.638 547.78 438.59 547.785 438.54 547.785Z" fill="#08311E"/>
<path d="M443.355 547.021C443.013 547.021 442.696 546.8 442.591 546.456L440.364 539.169C440.234 538.748 440.471 538.301 440.893 538.173C441.315 538.043 441.759 538.28 441.889 538.702L444.117 545.988C444.244 546.41 444.007 546.857 443.588 546.985C443.51 547.01 443.431 547.021 443.355 547.021Z" fill="#08311E"/>
<path d="M447.489 544.264C447.256 544.264 447.026 544.164 446.869 543.968C445.434 542.192 444.183 540.261 443.15 538.225C442.949 537.833 443.106 537.352 443.501 537.151C443.895 536.951 444.374 537.108 444.575 537.503C445.558 539.438 446.748 541.278 448.111 542.965C448.387 543.307 448.335 543.811 447.993 544.087C447.842 544.207 447.664 544.264 447.489 544.264Z" fill="#08311E"/>
<path d="M462.884 531.48H445.031C443.667 531.48 442.557 530.369 442.557 529.006V525.746C442.557 524.383 443.667 523.272 445.031 523.272H462.884C464.247 523.272 465.358 524.383 465.358 525.746V529.006C465.36 530.372 464.249 531.48 462.884 531.48ZM445.033 524.868C444.549 524.868 444.155 525.263 444.155 525.746V529.006C444.155 529.489 444.549 529.884 445.033 529.884H462.886C463.369 529.884 463.764 529.489 463.764 529.006V525.746C463.764 525.263 463.369 524.868 462.886 524.868H445.033Z" fill="#08311E"/>
<path d="M395.142 554.102C394.711 554.102 394.355 553.758 394.344 553.324C394.333 552.884 394.681 552.517 395.122 552.506L461.183 550.798C461.625 550.78 461.99 551.136 462.001 551.576C462.012 552.016 461.664 552.383 461.224 552.394L395.163 554.102C395.156 554.102 395.149 554.102 395.142 554.102Z" fill="#08311E"/>
<path d="M448.849 524.469C448.43 524.469 448.079 524.143 448.054 523.719L447.214 509.965C447.187 509.525 447.522 509.147 447.962 509.12C448.405 509.088 448.781 509.427 448.808 509.867L449.647 523.621C449.675 524.061 449.34 524.44 448.9 524.467C448.884 524.467 448.865 524.469 448.849 524.469Z" fill="#08311E"/>
<path d="M460.45 524.536C460.432 524.536 460.411 524.536 460.393 524.533C459.953 524.501 459.623 524.121 459.654 523.681L460.409 513.03C460.441 512.59 460.822 512.259 461.262 512.291C461.702 512.323 462.033 512.704 462.001 513.144L461.246 523.795C461.214 524.214 460.865 524.536 460.45 524.536Z" fill="#08311E"/>
<path d="M252.633 52.7896H23.377V376.516H252.633V52.7896Z" fill="#FFF7FF"/>
<path d="M252.634 377.314H23.3781C22.9381 377.314 22.5801 376.956 22.5801 376.516V52.7895C22.5801 52.3495 22.9381 51.9916 23.3781 51.9916H252.634C253.074 51.9916 253.432 52.3495 253.432 52.7895V376.516C253.432 376.956 253.074 377.314 252.634 377.314ZM24.1761 375.718H251.836V53.5874H24.1761V375.718Z" fill="#08311E"/>
<path d="M153.792 114.369C153.228 116.963 155.565 119.767 158.217 119.678C156.664 121.135 155.602 123.239 155.823 125.357C156.044 127.475 157.789 129.463 159.916 129.552C162.303 129.652 164.184 127.582 165.447 125.556C166.711 123.529 167.889 121.213 170.069 120.237C172.552 119.127 175.637 120.273 177.336 122.398C179.034 124.523 179.547 127.386 179.424 130.104C179.201 135.028 177.01 139.836 173.439 143.238C171.841 144.761 169.951 146.044 168.797 147.927C166.727 151.308 167.857 156.253 171.195 158.396C174.531 160.539 179.5 159.513 181.714 156.223C180.485 160.391 182.172 165.254 185.72 167.761C189.267 170.271 194.414 170.244 197.936 167.697C201.457 165.151 203.096 160.272 201.824 156.118C205.326 159.226 210.737 159.903 214.964 157.89C219.194 155.879 222.06 151.361 222.24 146.68C222.42 142.002 219.978 137.344 216.118 134.693C220.824 133.752 224.547 129.224 224.561 124.425C224.577 118.755 220.067 114.052 215.178 111.177C213.065 109.935 210.789 108.893 208.363 108.539C206.117 108.211 203.833 108.482 201.578 108.754C185.549 110.685 169.52 112.618 153.792 114.369Z" fill="#0090BA"/>
<path d="M153.396 331.753C139.394 319.531 124.66 308.146 109.299 297.677C108.905 297.408 108.458 297.034 108.527 296.56C108.568 296.268 108.8 296.045 109.017 295.844C113.185 292.028 117.353 288.214 121.521 284.397C122.244 283.736 123.058 283.034 124.038 283.011C124.786 282.993 125.477 283.376 126.124 283.752C141.319 292.573 155.916 303.397 165.235 318.288C161.21 322.729 157.186 327.17 153.396 331.753Z" fill="white"/>
<path d="M187.295 180.143C187.355 180.514 187.412 180.883 187.471 181.255C187.51 180.257 187.199 179.281 187.104 178.287C187.008 177.293 187.188 176.169 187.97 175.549C188.652 175.011 189.603 174.997 190.467 175.075C191.707 175.184 193 175.464 193.928 176.294C195.082 177.329 195.428 179.053 195.13 180.573C194.831 182.094 193.985 183.448 193.057 184.691C189.803 189.038 185.375 192.435 180.51 194.847C175.644 197.259 170.345 198.714 164.982 199.564C164 199.719 162.994 199.856 162.011 199.694C161.029 199.532 160.057 199.028 159.556 198.166C158.812 196.89 159.284 195.267 159.907 193.928C162.372 188.632 166.834 184.584 171.184 180.685C171.449 183.015 171.713 185.345 171.975 187.677C177.509 186.483 182.819 184.276 187.295 180.143Z" fill="white"/>
<path d="M145.489 115.506C145.546 118.108 145.605 120.709 145.662 123.31C141.617 126.992 137.57 130.676 133.525 134.358C135.297 137.75 140.694 137.486 142.874 140.632C143.724 141.861 143.929 143.413 144.03 144.904C144.379 150.104 143.831 155.656 146.365 160.211C148.588 164.207 152.888 166.71 157.332 167.795C161.776 168.881 166.416 168.726 170.987 168.564C170.729 168.828 170.47 169.093 170.212 169.357C169.893 175.271 170.527 181.235 172.084 186.95C177.266 185.327 182.447 183.704 187.629 182.081C186.916 177.678 186.957 173.153 187.755 168.767C183.165 166.241 180.582 160.53 181.717 155.416C180.878 158.33 177.565 160.154 174.571 159.673C171.578 159.192 169.115 156.709 168.256 153.804C167.394 150.898 167.998 147.681 169.475 145.036C170.451 145.593 171.719 145.419 172.688 144.849C173.657 144.279 174.375 143.372 175.005 142.44C177.597 138.601 179.022 133.986 179.047 129.354C179.059 127.277 178.771 125.134 177.709 123.351C176.644 121.568 174.672 120.221 172.601 120.365C169.831 120.556 167.93 123.116 166.283 125.353C164.637 127.589 162.314 129.958 159.573 129.518C157.692 129.217 156.196 127.484 155.98 125.59C155.763 123.698 156.728 121.764 158.257 120.629C155.451 120.107 153.462 116.918 154.226 114.168C151.073 114.357 147.92 114.547 144.766 114.734C145.056 114.59 145.464 114.439 145.489 115.506Z" fill="#FFF0F0"/>
<path d="M121.191 305.977C118.888 310.525 114.565 313.76 109.954 315.935C105.344 318.113 100.367 319.38 95.5488 321.047C94.7303 321.329 93.8958 321.637 93.23 322.193C92.5642 322.75 92.0945 323.618 92.2382 324.473C92.4548 325.768 93.8821 326.454 95.1612 326.757C98.8846 327.64 102.777 327.074 106.559 326.504C100.615 329.416 94.6733 332.325 88.7291 335.236C88.2138 335.489 87.6803 335.756 87.3223 336.205C86.4285 337.327 87.0806 339.114 88.2754 339.91C89.4701 340.705 90.9864 340.78 92.4183 340.831C91.1688 340.418 89.7688 341.556 89.6503 342.866C89.534 344.177 90.4529 345.424 91.6339 346.003C92.815 346.582 94.199 346.598 95.501 346.4C94.231 346.594 93.8821 348.491 94.7166 349.469C95.5511 350.447 96.9921 350.638 98.2713 350.526C99.5527 350.415 100.832 350.068 102.106 350.239C101.783 350.128 101.516 350.609 101.673 350.912C101.83 351.215 102.198 351.338 102.53 351.413C106.911 352.387 111.238 349.829 114.875 347.2C124.896 339.96 133.893 331.306 141.518 321.575C134.949 316.337 128.38 311.1 121.191 305.977Z" fill="#FFF0F0"/>
<path d="M144.937 114.987C144.49 109.588 143.04 104.306 142.696 98.9006C142.349 93.4952 143.286 87.6749 146.932 83.6693C150.672 79.5612 156.47 78.1409 161.942 77.1765C172.057 75.3937 182.344 74.4613 192.607 74.8512C196.951 75.0153 201.814 75.6901 204.463 79.1371C206.073 81.2323 206.536 83.9817 206.693 86.6194C207.138 94.072 205.567 101.481 204.007 108.781C184.351 110.865 164.696 112.946 144.937 114.987Z" fill="#F6817B"/>
<path d="M24.133 254.306L24.2151 174.509L46.2977 173.942L46.243 115.677L43.0622 108.475L38.9877 104.821L30.4465 101.312L23.3555 101.467L23.417 89.1862L47.6475 89.8588L59.317 96.8258L62.655 101.983L64.6022 108.332L65.382 119.899L65.8996 158.533L67.4113 161.991L71.26 163.774L74.5571 163.721L109.921 164.496L117.35 166.184L122.076 170.091L126.659 176.748L128.299 184.802L128.009 197.439L127.188 211.426L127.886 249.806L126.233 252.149L120.891 253.342L98.3315 254.226C98.3315 254.226 96.5348 241.58 96.2703 241.758C96.0035 241.936 92.7248 234.401 92.7248 234.401L89.7105 228.618L85.278 224.762L77.5873 221.172L68.7314 220.663L59.114 222.515L53.163 226.215L46.8859 233.69L43.0759 244.613L42.4945 253.684L24.133 254.306Z" fill="#8CAA84"/>
<path d="M102.041 108.519C112.244 105.363 123.099 105.211 133.779 105.083C136.417 105.051 139.055 105.019 141.694 104.99C142.017 104.985 142.368 104.992 142.624 105.19C142.859 105.375 142.954 105.68 143.036 105.968C143.844 108.831 144.443 111.751 144.826 114.701C135.802 115.294 128.373 115.317 119.349 115.907C113.927 116.263 106.571 117.12 101.801 114.519C100.964 114.063 100.155 113.507 99.6031 112.729C99.0514 111.952 99.9337 111.033 100.26 110.14C100.588 109.244 100.524 108.986 102.041 108.519Z" fill="#F6817B"/>
<path d="M145.493 372.16C146.243 356.972 146.991 341.786 147.741 326.598C149.248 328.18 150.756 329.763 152.265 331.345C157.249 327.264 161.759 322.609 165.681 317.5C154.933 302.706 140.402 290.683 123.857 282.893C134.67 273.126 144.494 262.265 152.933 250.761C154.791 233.456 157.468 216.239 160.954 199.186C172.54 200.846 186.241 193.083 194.579 183.444C211.978 202.84 213.401 242.643 213.109 268.09C212.817 293.537 210.307 309.874 208.476 334.687C208.079 348.329 206.187 358.631 205.136 372.88C185.151 373.99 165.1 373.828 145.493 372.16Z" fill="#F6817B"/>
<path d="M71.1686 261.196C78.0316 261.196 83.5951 255.633 83.5951 248.771C83.5951 241.909 78.0316 236.346 71.1686 236.346C64.3057 236.346 58.7422 241.909 58.7422 248.771C58.7422 255.633 64.3057 261.196 71.1686 261.196Z" fill="#98D5E9"/>
<path d="M127.625 210.927L128.158 226.696L107.922 227.061L107.074 224.197L107.633 212.844L111.101 211.244L127.625 210.927Z" fill="#E9BC6C"/>
<path d="M24.1523 101.098L24.1546 173.764L46.0184 173.75L46.9532 136.302L46.618 115.016L44.0392 109.162L37.2241 102.99L26.1679 101.103L24.1523 101.098Z" fill="#91D6ED"/>
<g opacity="0.9882">
<path opacity="0.9882" d="M278.967 372.869H0.796875V386.568H278.967V372.869Z" fill="#E9BC6C"/>
<path opacity="0.9882" d="M279.766 387.366H0V372.071H279.766V387.366ZM1.59606 385.77H278.17V373.667H1.59606V385.77Z" fill="#08311E"/>
</g>
<path d="M268.841 373.666H10.9269C10.4869 373.666 10.1289 373.309 10.1289 372.869V40.4902C10.1289 40.0502 10.4869 39.6923 10.9269 39.6923H268.839C269.279 39.6923 269.637 40.0502 269.637 40.4902V372.869C269.639 373.309 269.281 373.666 268.841 373.666ZM11.725 372.071H268.041V41.2882H11.725V372.071Z" fill="#08311E"/>
<path d="M225.625 372.132L223.432 363.405L238.362 363.699L235.952 372.08" fill="#98D5E9"/>
<path d="M225.625 372.93C225.268 372.93 224.944 372.688 224.853 372.326L222.659 363.596C222.598 363.355 222.655 363.099 222.81 362.906C222.965 362.712 223.199 362.596 223.45 362.605L238.38 362.901C238.629 362.906 238.859 363.027 239.007 363.225C239.155 363.425 239.201 363.681 239.133 363.918L236.723 372.296C236.602 372.72 236.157 372.964 235.735 372.843C235.311 372.722 235.067 372.28 235.188 371.856L237.311 364.474L224.463 364.219L226.403 371.934C226.51 372.362 226.25 372.795 225.824 372.903C225.755 372.923 225.689 372.93 225.625 372.93Z" fill="#08311E"/>
<path d="M231.126 355.04C241.059 355.04 249.111 346.989 249.111 337.057C249.111 327.126 241.059 319.075 231.126 319.075C221.193 319.075 213.141 327.126 213.141 337.057C213.141 346.989 221.193 355.04 231.126 355.04Z" fill="#8CAA84"/>
<path d="M231.127 355.841C220.769 355.841 212.344 347.415 212.344 337.06C212.344 326.703 220.771 318.279 231.127 318.279C241.483 318.279 249.91 326.705 249.91 337.06C249.91 347.415 241.483 355.841 231.127 355.841ZM231.127 319.873C221.649 319.873 213.94 327.583 213.94 337.058C213.94 346.532 221.651 354.243 231.127 354.243C240.605 354.243 248.314 346.532 248.314 337.058C248.314 327.583 240.603 319.873 231.127 319.873Z" fill="#08311E"/>
<path d="M229.54 364.062C229.116 364.062 228.763 363.729 228.744 363.301L228.368 355.226C228.348 354.786 228.687 354.412 229.127 354.391C229.561 354.371 229.941 354.71 229.962 355.15L230.338 363.225C230.359 363.665 230.019 364.039 229.579 364.06C229.565 364.062 229.551 364.062 229.54 364.062Z" fill="#08311E"/>
<path d="M232.271 363.852C232.239 363.852 232.21 363.85 232.178 363.847C231.74 363.795 231.428 363.401 231.478 362.963L232.42 354.936C232.472 354.498 232.869 354.188 233.304 354.236C233.742 354.288 234.054 354.683 234.004 355.12L233.063 363.148C233.017 363.553 232.67 363.852 232.271 363.852Z" fill="#08311E"/>
<path d="M168.024 146.678C166.376 146.678 164.81 146.14 163.644 145.107C163.314 144.815 163.284 144.309 163.578 143.981C163.87 143.65 164.376 143.621 164.705 143.915C166.091 145.146 168.38 145.426 170.4 144.615C172.14 143.915 173.738 142.495 175.147 140.393C177.416 137.012 178.577 132.908 178.419 128.841C178.34 126.773 177.927 125.129 177.156 123.821C176.251 122.282 174.817 121.256 173.319 121.076C171.42 120.848 169.632 121.942 168.462 122.898C165.494 125.33 163.594 129.069 163.382 132.901C163.357 133.341 162.985 133.679 162.541 133.654C162.101 133.628 161.763 133.252 161.788 132.812C162.023 128.542 164.141 124.373 167.45 121.662C168.859 120.508 171.05 119.195 173.508 119.489C175.499 119.729 177.375 121.044 178.531 123.012C179.436 124.555 179.922 126.44 180.013 128.777C180.184 133.179 178.926 137.62 176.472 141.279C174.881 143.653 173.036 145.274 170.993 146.094C170.022 146.486 169.007 146.678 168.024 146.678Z" fill="#08311E"/>
<path d="M167.287 137.167C167.237 137.167 167.186 137.162 167.136 137.153C166.703 137.071 166.42 136.651 166.502 136.218C166.929 134 167.369 131.704 168.208 129.523C169.175 127.006 170.536 125.034 172.251 123.666C172.595 123.392 173.096 123.447 173.372 123.791C173.648 124.135 173.591 124.637 173.247 124.913C171.756 126.103 170.563 127.847 169.699 130.095C168.912 132.144 168.484 134.369 168.071 136.519C167.996 136.902 167.663 137.167 167.287 137.167Z" fill="#08311E"/>
<path d="M171.719 137.002C171.434 137.002 171.158 136.85 171.014 136.581C170.264 135.181 169.218 133.909 167.989 132.903C167.649 132.623 167.599 132.121 167.877 131.779C168.158 131.437 168.659 131.389 169.001 131.668C170.39 132.805 171.571 134.244 172.419 135.824C172.627 136.211 172.481 136.697 172.093 136.904C171.974 136.97 171.844 137.002 171.719 137.002Z" fill="#08311E"/>
<path d="M165.272 169.613C162.84 169.613 160.4 169.376 157.994 168.899C153.279 167.964 149.711 166.168 147.394 163.562C145.094 160.975 143.739 157.331 143.254 152.425C143.103 150.905 143.035 149.364 142.969 147.87C142.871 145.695 142.77 143.448 142.415 141.284C139.603 139.456 136.831 137.905 134.145 136.405C133.743 136.18 132.904 135.712 132.74 134.812C132.537 133.718 133.442 132.929 133.828 132.591L144.314 123.447C144.647 123.158 145.151 123.192 145.44 123.525C145.73 123.857 145.696 124.361 145.363 124.651L134.877 133.795C134.316 134.283 134.302 134.474 134.309 134.522C134.329 134.632 134.537 134.796 134.925 135.012C137.724 136.579 140.62 138.197 143.58 140.14C143.762 140.26 143.89 140.45 143.929 140.666C144.35 143.037 144.46 145.456 144.565 147.797C144.631 149.268 144.699 150.788 144.845 152.268C145.294 156.828 146.521 160.174 148.589 162.5C150.671 164.841 153.94 166.467 158.307 167.331C164.634 168.584 171.192 168.108 177.27 165.949C177.685 165.801 178.141 166.02 178.289 166.435C178.438 166.85 178.221 167.305 177.804 167.454C173.766 168.89 169.525 169.613 165.272 169.613Z" fill="#08311E"/>
<path d="M171.23 187.653C170.795 187.653 170.439 187.301 170.432 186.866C170.352 180.863 169.867 174.808 168.989 168.869C168.925 168.434 169.226 168.028 169.662 167.964C170.099 167.901 170.503 168.201 170.567 168.637C171.454 174.646 171.946 180.774 172.026 186.845C172.033 187.285 171.679 187.648 171.239 187.655C171.237 187.653 171.233 187.653 171.23 187.653Z" fill="#08311E"/>
<path d="M144.879 124.913C144.856 124.913 144.833 124.913 144.812 124.91C144.372 124.874 144.046 124.489 144.083 124.049C144.338 120.978 144.37 117.859 144.176 114.781C144.149 114.341 144.482 113.963 144.922 113.936C145.364 113.908 145.74 114.243 145.768 114.681C145.966 117.836 145.934 121.033 145.672 124.181C145.638 124.598 145.289 124.913 144.879 124.913Z" fill="#08311E"/>
<path d="M144.772 149.635C144.478 149.635 144.186 149.621 143.894 149.594C143.456 149.553 143.132 149.163 143.173 148.725C143.214 148.287 143.602 147.966 144.042 148.005C146.071 148.194 148.158 147.587 149.767 146.338C151.377 145.089 152.483 143.217 152.802 141.206C152.871 140.771 153.281 140.474 153.714 140.543C154.15 140.611 154.446 141.022 154.378 141.455C153.997 143.864 152.672 146.103 150.746 147.599C149.052 148.914 146.915 149.635 144.772 149.635Z" fill="#08311E"/>
<path d="M160.521 130.115C159.896 130.115 159.271 130.015 158.681 129.812C157.035 129.244 155.737 127.899 155.297 126.301C154.782 124.436 155.395 122.357 156.987 120.435C155.867 120.114 154.864 119.448 154.182 118.538C153.154 117.166 152.928 115.342 153.596 113.783C153.77 113.377 154.239 113.19 154.643 113.363C155.049 113.537 155.236 114.006 155.062 114.412C154.625 115.433 154.78 116.678 155.457 117.583C156.152 118.511 157.397 119.09 158.617 119.056C158.943 119.045 159.253 119.245 159.379 119.553C159.504 119.861 159.426 120.214 159.182 120.44C158.261 121.292 156.186 123.531 156.836 125.879C157.135 126.962 158.063 127.915 159.203 128.307C160.357 128.706 161.754 128.538 162.76 127.881C163.129 127.639 163.624 127.744 163.863 128.111C164.105 128.481 164 128.975 163.633 129.217C162.723 129.807 161.622 130.115 160.521 130.115Z" fill="#08311E"/>
<path d="M191.82 170.24C189.462 170.24 187.103 169.531 185.19 168.112C182.034 165.778 180.363 161.725 180.773 157.858C179.831 158.56 178.833 159.208 177.725 159.696C175.597 160.628 173.449 160.74 171.678 160.006C169.208 158.984 167.492 156.258 167.305 153.057C167.143 150.287 168.025 147.576 168.805 145.185C168.942 144.765 169.393 144.537 169.81 144.674C170.23 144.811 170.458 145.26 170.321 145.679C169.55 148.048 168.75 150.497 168.896 152.963C169.019 155.088 170.116 157.635 172.287 158.531C173.634 159.087 175.383 158.98 177.084 158.234C178.7 157.525 180.132 156.363 181.519 155.239C181.795 155.015 182.184 154.999 182.476 155.202C182.768 155.405 182.891 155.777 182.777 156.112C181.509 159.864 182.955 164.472 186.138 166.829C189.323 169.186 194.153 169.223 197.372 166.916C200.592 164.608 202.108 160.022 200.897 156.251C200.79 155.913 200.915 155.544 201.209 155.346C201.504 155.147 201.893 155.166 202.165 155.394C205.642 158.278 210.74 158.957 214.853 157.085C218.964 155.214 221.801 150.921 221.908 146.407C222.015 141.89 219.391 137.468 215.371 135.402C215.04 135.231 214.872 134.857 214.963 134.497C215.054 134.137 215.387 133.888 215.754 133.895C215.802 133.895 215.848 133.898 215.895 133.898C220.084 133.898 223.951 129.887 224.209 125.237C224.444 120.999 222.038 116.535 217.929 113.587C214.682 111.257 210.46 109.757 204.641 108.868C204.205 108.802 203.907 108.394 203.973 107.958C204.039 107.523 204.445 107.224 204.883 107.29C208.706 107.876 214.315 109.03 218.86 112.292C223.406 115.554 226.067 120.549 225.802 125.326C225.545 129.995 222.141 134.11 218.036 135.208C221.475 137.828 223.609 142.1 223.504 146.448C223.381 151.561 220.171 156.422 215.515 158.542C211.493 160.373 206.638 160.049 202.851 157.822C203.284 161.756 201.547 165.89 198.3 168.217C196.419 169.567 194.121 170.24 191.82 170.24Z" fill="#08311E"/>
<path d="M171.457 188.005C171.049 188.005 170.702 187.695 170.664 187.283C170.623 186.845 170.946 186.455 171.384 186.414C176.863 185.903 182.269 183.795 186.656 180.466C186.563 176.431 186.631 172.553 186.866 168.625C186.893 168.185 187.274 167.85 187.71 167.877C188.15 167.905 188.485 168.281 188.46 168.721C188.22 172.733 188.154 176.695 188.261 180.831C188.268 181.084 188.154 181.326 187.956 181.481C183.277 185.135 177.445 187.454 171.532 188.005C171.507 188.003 171.482 188.005 171.457 188.005Z" fill="#08311E"/>
<path d="M163.78 200.558C163.11 200.558 162.389 200.508 161.68 200.3C160.554 199.972 159.646 199.268 159.192 198.372C158.413 196.828 159.04 195.064 159.578 193.871C162.145 188.192 166.505 183.569 170.431 179.794C170.748 179.488 171.254 179.497 171.56 179.816C171.865 180.133 171.856 180.639 171.537 180.945C167.72 184.613 163.486 189.095 161.033 194.528C160.629 195.422 160.146 196.719 160.618 197.651C160.873 198.155 161.422 198.563 162.127 198.768C162.868 198.985 163.709 198.976 164.439 198.948C175.146 198.556 185.762 192.884 192.147 184.146C193.127 182.803 194.114 181.207 193.984 179.557C193.886 178.305 193.075 177.083 191.916 176.442C190.783 175.815 189.333 175.715 188.036 176.176C187.621 176.324 187.165 176.105 187.016 175.69C186.868 175.275 187.087 174.819 187.502 174.671C189.223 174.06 191.162 174.199 192.689 175.045C194.329 175.952 195.434 177.632 195.576 179.431C195.747 181.613 194.522 183.601 193.437 185.087C190.154 189.583 185.751 193.386 180.707 196.087C175.641 198.8 170.037 200.341 164.498 200.544C164.268 200.551 164.026 200.558 163.78 200.558Z" fill="#08311E"/>
<path d="M121.394 117.12C115.373 117.12 109.349 116.74 103.366 115.753C101.704 115.477 99.6948 114.936 98.931 113.181C98.1922 111.485 99.1134 109.59 100.406 108.596C101.603 107.675 103.062 107.329 104.581 107.026C117.133 104.527 129.979 103.592 142.759 104.251C143.199 104.274 143.539 104.65 143.516 105.09C143.493 105.53 143.117 105.872 142.679 105.845C130.029 105.193 117.318 106.118 104.896 108.592C103.521 108.865 102.308 109.15 101.384 109.862C100.602 110.463 99.9912 111.61 100.399 112.545C100.855 113.594 102.367 113.97 103.63 114.177C119.573 116.81 135.909 115.057 151.708 113.359L205.673 107.564C206.113 107.516 206.505 107.833 206.551 108.273C206.599 108.71 206.282 109.105 205.842 109.15L151.877 114.946C141.86 116.022 131.63 117.12 121.394 117.12Z" fill="#08311E"/>
<path d="M144.875 114.895C144.517 114.895 144.193 114.654 144.102 114.291C143.429 111.606 141.252 102.322 141.477 95.6676C141.689 89.437 144.049 83.9906 147.95 80.7259C151.897 77.4225 157.212 76.3829 161.882 75.6671C170.218 74.3904 179.158 73.6016 188.452 73.3257C192.921 73.1935 197.597 73.271 201.359 75.7492C205.666 78.5852 208.069 84.385 207.787 91.2608C207.664 94.2724 207.114 97.2634 206.583 100.156C206.12 102.678 205.643 105.284 205.459 107.855C205.427 108.295 205.048 108.626 204.606 108.594C204.166 108.562 203.835 108.181 203.867 107.741C204.056 105.081 204.542 102.429 205.014 99.867C205.534 97.0286 206.072 94.0923 206.193 91.1924C206.453 84.882 204.316 79.6065 200.481 77.0805C197.107 74.8578 192.713 74.7939 188.499 74.9193C179.27 75.1952 170.396 75.9771 162.123 77.2424C157.666 77.9241 152.604 78.9089 148.974 81.9479C145.42 84.923 143.267 89.9431 143.071 95.7223C142.898 100.847 144.289 108.475 145.65 113.906C145.757 114.334 145.497 114.768 145.071 114.875C145.005 114.886 144.938 114.895 144.875 114.895Z" fill="#08311E"/>
<path d="M171.708 75.291C171.436 75.291 171.172 75.152 171.021 74.9012C170.15 73.4399 170.855 71.591 172.04 70.6471C173.217 69.7101 174.72 69.4958 175.898 69.4138C176.683 69.359 177.709 69.3317 178.696 69.6121C179.804 69.9267 180.684 70.5765 181.177 71.4428C181.783 72.5074 181.701 73.8593 180.981 74.7348C180.7 75.0745 180.196 75.1223 179.857 74.8419C179.517 74.5615 179.469 74.0577 179.749 73.718C180.048 73.3555 180.066 72.7172 179.79 72.2339C179.51 71.7414 178.951 71.3447 178.26 71.1487C177.515 70.9367 176.703 70.9595 176.01 71.0073C175.062 71.0734 173.867 71.2353 173.037 71.8964C172.398 72.4048 171.988 73.4057 172.394 74.085C172.62 74.4635 172.496 74.9536 172.118 75.1793C171.986 75.2546 171.847 75.291 171.708 75.291Z" fill="#08311E"/>
<path d="M153.145 332.469C152.949 332.469 152.751 332.396 152.598 332.252C138.742 319.191 123.513 307.478 107.334 297.44C107.117 297.305 106.978 297.075 106.958 296.82C106.937 296.565 107.044 296.316 107.24 296.152C134.987 272.784 161.951 246.797 171.29 215.144C173.436 207.872 178.386 202.1 184.531 199.704C191.524 196.977 199.771 199.17 203.715 204.806C207.76 210.585 206.873 218.243 205.311 225.657C200.797 247.098 194.663 266.389 187.082 282.995C178.187 302.476 166.96 319.045 153.711 332.238C153.553 332.389 153.35 332.469 153.145 332.469ZM109.108 296.663C124.813 306.491 139.613 317.887 153.127 330.558C166.003 317.591 176.936 301.368 185.627 282.33C193.161 265.831 199.255 246.651 203.747 225.324C205.234 218.261 206.103 210.998 202.406 205.718C200.674 203.244 197.922 201.434 194.659 200.62C191.473 199.827 188.083 200.03 185.11 201.188C179.423 203.404 174.829 208.791 172.82 215.594C163.458 247.328 136.749 273.315 109.108 296.663Z" fill="#08311E"/>
<path d="M164.761 318.438C164.513 318.438 164.269 318.324 164.114 318.108C153.66 303.618 139.769 291.576 123.943 283.284C123.553 283.079 123.403 282.598 123.606 282.208C123.811 281.818 124.292 281.668 124.682 281.871C140.727 290.279 154.809 302.485 165.407 317.175C165.664 317.533 165.585 318.03 165.227 318.29C165.088 318.388 164.923 318.438 164.761 318.438Z" fill="#08311E"/>
<path d="M205.017 372.513C204.987 372.513 204.96 372.511 204.93 372.508C204.492 372.461 204.175 372.066 204.223 371.628C208.396 333.362 212.71 293.794 212.283 254.646C212.162 243.45 211.656 230.298 208.833 217.641C205.856 204.293 200.666 193.097 193.411 184.363C193.128 184.023 193.176 183.521 193.516 183.239C193.856 182.956 194.357 183.004 194.64 183.344C202.059 192.274 207.358 203.695 210.391 217.294C213.245 230.095 213.756 243.35 213.879 254.63C214.306 293.874 209.985 333.49 205.81 371.804C205.765 372.21 205.418 372.513 205.017 372.513Z" fill="#08311E"/>
<path d="M152.804 252.311C152.765 252.311 152.726 252.309 152.685 252.302C152.25 252.238 151.949 251.832 152.012 251.397L159.701 199.343C159.765 198.907 160.168 198.604 160.606 198.67C161.042 198.734 161.343 199.14 161.279 199.575L153.59 251.63C153.533 252.026 153.194 252.311 152.804 252.311Z" fill="#08311E"/>
<path d="M145.448 372.351C145.432 372.351 145.416 372.351 145.4 372.349C144.96 372.324 144.625 371.945 144.65 371.505L147.233 327.195C147.258 326.755 147.632 326.42 148.077 326.445C148.517 326.47 148.852 326.849 148.827 327.289L146.244 371.601C146.221 372.023 145.867 372.351 145.448 372.351Z" fill="#08311E"/>
<path d="M92.9151 341.241C91.0386 341.241 89.3126 340.913 87.7416 340.252C86.2276 339.616 85.3612 338.636 85.3019 337.489C85.2586 336.664 85.6758 335.806 86.4191 335.198C87.0188 334.705 87.737 334.427 88.3162 334.201C89.1667 333.871 90.0194 333.545 90.8744 333.219C95.6011 331.415 100.442 329.567 104.769 326.981C101.698 327.715 98.5173 327.857 95.3571 327.38C92.6141 326.968 91.6907 325.75 91.3966 324.804C90.9383 323.329 91.7842 321.881 92.8239 321.099C93.8135 320.356 95.0242 320.051 96.0913 319.782C100.421 318.692 105.428 317.267 109.904 314.935C114.596 312.491 118.281 309.229 120.561 305.506C120.791 305.13 121.282 305.011 121.658 305.241C122.034 305.472 122.153 305.962 121.922 306.338C119.492 310.309 115.591 313.77 110.641 316.348C106.019 318.758 100.898 320.215 96.4994 321.323C95.4665 321.583 94.5112 321.824 93.7793 322.374C93.1887 322.818 92.7031 323.632 92.9197 324.33C93.207 325.256 94.5317 325.641 95.5942 325.8C100.453 326.532 105.36 325.709 109.785 323.416C110.146 323.229 110.588 323.343 110.814 323.678C111.04 324.013 110.98 324.467 110.672 324.729C105.123 329.487 98.1684 332.14 91.4422 334.707C90.5894 335.033 89.7389 335.357 88.8908 335.688C88.3709 335.891 87.8305 336.098 87.4292 336.429C87.0827 336.714 86.8774 337.088 86.8934 337.404C86.9299 338.104 87.9286 338.597 88.3572 338.777C91.5402 340.115 95.5327 339.898 100.225 338.136C104.915 336.376 109.288 333.597 112.873 330.1C113.187 329.792 113.694 329.799 114.001 330.114C114.309 330.428 114.302 330.934 113.988 331.242C110.244 334.892 105.679 337.792 100.786 339.629C97.9381 340.706 95.3046 341.241 92.9151 341.241Z" fill="#08311E"/>
<path d="M95.1143 347.002C93.7873 347.002 92.5127 346.82 91.3408 346.457C89.69 345.947 88.6868 345.005 88.5112 343.808C88.3835 342.93 88.7529 341.978 89.5007 341.264C90.0981 340.692 90.8277 340.343 91.4707 340.035C91.8697 339.844 92.344 340.012 92.5355 340.411C92.7248 340.808 92.5583 341.284 92.1593 341.476C91.5984 341.745 91.017 342.023 90.6043 342.418C90.2349 342.771 90.0388 343.218 90.0913 343.58C90.2076 344.38 91.4388 344.82 91.8127 344.934C93.5639 345.475 95.5954 345.555 97.6863 345.162C99.4579 344.832 101.332 344.164 103.416 343.124C107.732 340.97 111.65 337.876 114.744 334.176C115.026 333.839 115.53 333.793 115.868 334.076C116.205 334.358 116.251 334.862 115.968 335.2C112.733 339.064 108.64 342.299 104.13 344.551C101.911 345.659 99.9002 346.373 97.9804 346.731C97.0091 346.911 96.0492 347.002 95.1143 347.002Z" fill="#08311E"/>
<path d="M97.5528 351.017C96.9304 351.017 96.2577 350.955 95.5965 350.727C94.5431 350.365 93.7132 349.605 93.3826 348.691C92.9653 347.54 93.4122 346.193 94.3995 345.623C94.7802 345.402 95.2682 345.534 95.4894 345.914C95.7105 346.295 95.5783 346.783 95.1975 347.004C94.876 347.189 94.7301 347.725 94.8829 348.146C95.0516 348.611 95.5122 349.01 96.1141 349.218C96.7799 349.446 97.5323 349.437 98.1821 349.4C101.732 349.193 105.421 347.848 109.147 345.399C112.506 343.192 115.499 340.372 118.397 337.646C118.719 337.342 119.223 337.358 119.526 337.68C119.829 338.001 119.813 338.505 119.492 338.808C116.546 341.583 113.5 344.453 110.025 346.735C106.06 349.339 102.106 350.773 98.2756 350.996C98.043 351.007 97.8014 351.017 97.5528 351.017Z" fill="#08311E"/>
<path d="M103.897 352.435C103.79 352.435 103.68 352.43 103.571 352.423C102.401 352.341 101.017 351.664 100.561 350.333C100.417 349.916 100.641 349.462 101.058 349.318C101.475 349.175 101.929 349.398 102.073 349.815C102.292 350.451 103.06 350.789 103.685 350.832C104.513 350.889 105.386 350.588 106.211 350.276C112.673 347.823 118.948 343.826 125.389 338.056C131.112 332.931 136.263 327.034 141.247 321.329C141.537 320.997 142.04 320.965 142.373 321.254C142.706 321.544 142.738 322.048 142.449 322.38C137.435 328.121 132.25 334.058 126.454 339.246C119.862 345.149 113.428 349.245 106.777 351.769C105.878 352.107 104.923 352.435 103.897 352.435Z" fill="#08311E"/>
<path d="M70.2454 279.081C57.6274 279.081 49.8341 272.754 45.4677 267.32C40.5564 261.203 38.8714 255.038 38.8008 254.781C38.6868 254.354 38.9399 253.917 39.3662 253.803C39.7903 253.689 40.2281 253.942 40.3421 254.368C40.3581 254.43 42.0294 260.512 46.7469 266.367C53.0285 274.161 61.4625 277.893 71.8187 277.453C81.6504 277.036 89.1291 273.124 94.0495 265.826C97.725 260.375 98.5093 255.013 98.5185 254.959C98.58 254.523 98.9836 254.22 99.4191 254.279C99.8546 254.341 100.16 254.744 100.099 255.18C100.067 255.412 99.2526 260.966 95.3742 266.718C91.7854 272.039 84.7992 278.497 71.8871 279.047C71.333 279.069 70.7835 279.081 70.2454 279.081Z" fill="#08311E"/>
<path d="M70.5096 261.994C63.2179 261.994 57.2852 256.062 57.2852 248.771C57.2852 241.48 63.2179 235.548 70.5096 235.548C77.8014 235.548 83.7341 241.48 83.7341 248.771C83.7341 256.062 77.8014 261.994 70.5096 261.994ZM70.5096 237.144C64.098 237.144 58.8812 242.36 58.8812 248.771C58.8812 255.182 64.098 260.398 70.5096 260.398C76.9212 260.398 82.1381 255.182 82.1381 248.771C82.1381 242.36 76.9212 237.144 70.5096 237.144Z" fill="#08311E"/>
<path d="M109.226 228.324C108.38 228.324 107.568 228 106.982 227.428C106.426 226.885 106.123 226.171 106.125 225.419L106.166 214.887C106.175 212.607 108.184 210.737 110.646 210.717L127.811 210.582C127.813 210.582 127.815 210.582 127.818 210.582C128.256 210.582 128.611 210.936 128.616 211.373C128.618 211.813 128.265 212.174 127.825 212.178L110.66 212.313C109.069 212.324 107.769 213.482 107.762 214.891L107.721 225.424C107.721 225.741 107.853 226.046 108.097 226.285C108.396 226.577 108.822 226.735 109.272 226.725L127.029 226.251C127.48 226.235 127.836 226.586 127.847 227.029C127.859 227.469 127.512 227.836 127.07 227.847L109.313 228.321C109.285 228.324 109.256 228.324 109.226 228.324Z" fill="#08311E"/>
<path d="M45.1256 174.92C45.1256 174.92 45.1233 174.92 45.1256 174.92L23.3781 174.897C22.9381 174.897 22.5801 174.539 22.5801 174.099C22.5801 173.659 22.9381 173.301 23.3781 173.301L45.1233 173.324C45.2396 173.324 45.349 173.278 45.4334 173.196C45.5154 173.114 45.561 173.002 45.561 172.886L45.3239 118.053C45.3216 113.692 43.6025 109.62 40.4765 106.581C37.3527 103.542 33.2304 101.937 28.8777 102.056L23.4602 102.204C23.0087 102.213 22.653 101.869 22.6394 101.429C22.628 100.989 22.9745 100.622 23.4146 100.61L28.8321 100.462C33.6202 100.328 38.1531 102.097 41.5891 105.439C45.0252 108.779 46.9177 113.258 46.92 118.051L47.1571 172.882C47.1594 173.426 46.9496 173.939 46.5643 174.325C46.1812 174.708 45.6705 174.92 45.1256 174.92Z" fill="#08311E"/>
<path d="M97.7175 255.371C97.51 255.371 97.3094 255.289 97.1611 255.143C97.0015 254.988 96.9149 254.771 96.9217 254.548C96.9263 254.375 97.3139 237.176 87.8174 227.763C83.4578 223.44 77.6482 221.382 70.5434 221.651C62.2325 221.963 55.6796 224.717 51.0692 229.835C42.6329 239.203 43.4902 253.497 43.4993 253.64C43.513 253.857 43.4401 254.071 43.2918 254.233C43.1436 254.395 42.9384 254.489 42.7218 254.493L23.4825 254.929C23.0515 254.938 22.6776 254.589 22.6662 254.149C22.6571 253.709 23.0059 253.344 23.446 253.333L41.8713 252.915C41.7961 249.612 42.088 237.427 49.8722 228.775C54.7835 223.317 61.7172 220.383 70.4819 220.055C78.0426 219.77 84.2581 221.983 88.946 226.634C97.7927 235.411 98.4927 250 98.5224 253.729L123.492 252.396C125.473 252.309 127.021 250.693 127.021 248.718V183.663C127.021 178.754 125.124 174.129 121.677 170.634C118.229 167.139 113.63 165.176 108.723 165.107L71.7929 164.588C71.7815 164.588 71.7678 164.588 71.7564 164.585C68.008 164.36 65.0302 161.241 64.9777 157.488L64.3507 113.735C64.4351 107.386 62.0387 101.415 57.6039 96.901C53.1692 92.3871 47.241 89.8839 40.9114 89.8542L24.8915 89.779C24.4515 89.7767 24.0958 89.4188 24.0981 88.9765C24.1004 88.5365 24.4561 88.1831 24.8961 88.1831C24.8984 88.1831 24.8984 88.1831 24.9007 88.1831L40.9206 88.2584C47.6787 88.2903 54.0082 90.9622 58.744 95.7816C63.4797 100.601 66.038 106.978 65.9491 113.735L66.5761 157.466C66.6171 160.384 68.9268 162.807 71.8385 162.992L108.751 163.512C114.082 163.587 119.077 165.718 122.819 169.512C126.561 173.308 128.622 178.332 128.622 183.66V248.716C128.622 251.55 126.406 253.864 123.574 253.989L97.7654 255.369C97.7448 255.371 97.7312 255.371 97.7175 255.371Z" fill="#08311E"/>
<path d="M152.308 130.849C152.568 128.706 152.154 126.892 151.382 126.799C150.611 126.705 149.775 128.367 149.515 130.511C149.256 132.654 149.67 134.468 150.441 134.561C151.213 134.655 152.049 132.993 152.308 130.849Z" fill="#08311E"/>
<path d="M533.671 479.339L532.398 522.464L537.818 522.605L541.685 478.681L533.671 479.339Z" fill="#FFE8E2"/>
<path d="M537.923 522.721L532.279 522.573L532.282 522.459L533.558 479.232L541.808 478.553L541.796 478.687L537.923 522.721ZM532.514 522.352L537.713 522.486L541.557 478.801L533.78 479.442L532.514 522.352Z" fill="#008FBE"/>
<path d="M492.643 406.65C494.599 400.199 498.765 394.675 503.056 389.477C505.584 386.413 508.197 383.397 511.209 380.809C514.221 378.222 517.664 376.06 521.467 374.92C521.971 379.361 521.75 383.914 520.519 388.209C519.285 392.507 517.014 396.54 513.765 399.608C508.33 404.74 500.477 406.812 492.643 406.65Z" fill="#D0E2CC"/>
<path d="M493.507 406.774C493.22 406.774 492.93 406.771 492.641 406.765L492.49 406.762L492.534 406.619C494.556 399.95 498.979 394.237 502.969 389.404C505.806 385.968 508.282 383.176 511.137 380.723C514.488 377.843 517.954 375.853 521.438 374.811L521.568 374.772L521.584 374.907C522.124 379.667 521.803 384.154 520.631 388.241C519.331 392.769 516.985 396.729 513.845 399.693C508.989 404.273 501.793 406.774 493.507 406.774ZM492.798 406.539C501.319 406.682 508.738 404.197 513.69 399.524C516.8 396.588 519.126 392.664 520.414 388.175C521.568 384.156 521.89 379.747 521.374 375.066C517.966 376.111 514.573 378.071 511.287 380.894C508.444 383.338 505.977 386.121 503.145 389.548C499.201 394.328 494.827 399.971 492.798 406.539Z" fill="#008FBE"/>
<path d="M492.267 406.735C483.329 404.948 475.16 399.089 471.14 390.909C467.12 382.729 467.59 372.363 472.825 364.901C476.931 359.047 483.642 355.249 490.696 354.066C497.45 352.933 504.655 354.141 510.428 357.823C516.204 361.505 520.408 367.717 521.227 374.518C508.039 381.127 497.505 392.861 492.267 406.735Z" fill="#8CAA84"/>
<path d="M492.339 406.867L492.243 406.849C483.075 405.016 474.951 398.929 471.036 390.961C469.034 386.887 468.122 382.278 468.398 377.632C468.678 372.903 470.176 368.481 472.73 364.84C476.706 359.17 483.248 355.203 490.677 353.958C497.667 352.787 504.888 354.161 510.49 357.731C516.48 361.55 520.537 367.822 521.341 374.508L521.351 374.588L521.28 374.625C508.14 381.211 497.603 392.931 492.375 406.781L492.339 406.867ZM495.597 353.774C493.971 353.774 492.336 353.908 490.713 354.179C483.344 355.415 476.857 359.348 472.915 364.967C470.384 368.574 468.899 372.958 468.624 377.643C468.35 382.25 469.255 386.819 471.239 390.859C475.108 398.738 483.132 404.763 492.19 406.605C497.442 392.769 507.971 381.056 521.1 374.451C520.281 367.863 516.273 361.687 510.363 357.921C506.113 355.208 500.914 353.774 495.597 353.774Z" fill="#008FBE"/>
<path d="M507.1 403.514C503.162 406.161 498.276 407.362 492.224 408.155C486.358 427.021 491.766 448.936 505.736 462.907C519.706 476.877 541.625 482.287 560.492 476.423C579.36 470.56 594.347 453.678 597.936 434.25C601.525 414.821 593.551 393.702 578.022 381.489C562.492 369.276 540.086 366.504 522.048 374.565C523.587 382.87 520.985 391.839 515.237 398.029C509.491 404.218 500.738 407.481 492.341 406.564C492.277 407.528 492.213 408.495 492.151 409.459" fill="#8CAA84"/>
<path d="M544.89 478.863C530.428 478.863 515.876 473.209 505.657 462.988C491.694 449.027 486.251 426.977 492.115 408.123L492.131 408.075L492.239 406.436L492.357 406.45C496.233 406.874 500.196 406.397 503.901 405.15C505.041 404.64 506.076 404.068 507.036 403.42L507.164 403.609C506.763 403.881 506.348 404.136 505.919 404.382C509.403 402.903 512.586 400.719 515.158 397.949C520.872 391.793 523.471 382.84 521.939 374.583L521.923 374.494L522.005 374.458C540.034 366.401 562.575 369.189 578.097 381.397C593.618 393.606 601.637 414.853 598.053 434.27C594.468 453.687 579.388 470.671 560.532 476.533C555.472 478.103 550.187 478.863 544.89 478.863ZM492.065 409.085C486.671 427.659 492.134 449.143 505.819 462.827C519.723 476.731 541.682 482.152 560.461 476.314C579.24 470.478 594.256 453.564 597.825 434.229C601.395 414.894 593.408 393.733 577.954 381.578C562.52 369.44 540.118 366.652 522.178 374.631C523.688 382.934 521.066 391.919 515.324 398.104C512.244 401.423 508.29 403.906 503.99 405.358C501.012 406.689 497.319 407.597 492.348 408.255L492.268 409.464L492.04 409.45L492.065 409.085ZM492.451 406.687L492.364 408.023C496.058 407.533 499.04 406.904 501.541 406.065C498.57 406.778 495.485 407.004 492.451 406.687Z" fill="#008FBE"/>
<path d="M515.497 559.414L505.223 522.664L565.72 523.863L553.433 560.768L515.497 559.414Z" fill="#EBACE3"/>
<path d="M553.431 561.566C553.421 561.566 553.412 561.566 553.401 561.566L515.465 560.212C515.118 560.2 514.817 559.963 514.724 559.628L504.447 522.878C504.379 522.634 504.432 522.374 504.584 522.174C504.739 521.973 504.974 521.85 505.232 521.864L565.729 523.063C565.982 523.067 566.22 523.193 566.365 523.4C566.511 523.608 566.55 523.872 566.47 524.112L554.183 561.017C554.078 561.347 553.773 561.566 553.431 561.566ZM516.106 558.637L552.861 559.947L564.617 524.636L506.276 523.48L516.106 558.637Z" fill="#08311E"/>
<path d="M544.32 480.299C529.477 480.299 515.522 474.519 505.027 464.026C494.532 453.532 488.752 439.58 488.752 424.738C488.752 409.897 494.532 395.945 505.027 385.451C515.522 374.957 529.477 369.178 544.32 369.178C559.163 369.178 573.117 374.957 583.613 385.451C594.108 395.945 599.888 409.897 599.888 424.738C599.888 439.58 594.108 453.532 583.613 464.026C573.117 474.519 559.163 480.299 544.32 480.299ZM544.32 370.776C529.903 370.776 516.35 376.389 506.156 386.582C495.962 396.775 490.348 410.326 490.348 424.741C490.348 439.156 495.962 452.707 506.156 462.899C516.35 473.092 529.903 478.705 544.32 478.705C558.737 478.705 572.29 473.092 582.484 462.899C592.678 452.707 598.292 439.156 598.292 424.741C598.292 410.326 592.678 396.775 582.484 386.582C572.29 376.389 558.737 370.776 544.32 370.776Z" fill="#08311E"/>
<path d="M495.443 407.494C480.31 407.494 468 395.183 468 380.055C468 364.926 480.312 352.615 495.443 352.615C510.576 352.615 522.886 364.926 522.886 380.055C522.886 395.183 510.576 407.494 495.443 407.494ZM495.443 354.209C481.19 354.209 469.596 365.802 469.596 380.053C469.596 394.303 481.193 405.896 495.443 405.896C509.694 405.896 521.29 394.303 521.29 380.053C521.29 365.802 509.696 354.209 495.443 354.209Z" fill="#08311E"/>
<path d="M532.494 523.809C532.485 523.809 532.476 523.809 532.467 523.809C532.026 523.793 531.68 523.426 531.696 522.983L533.196 478.571C533.212 478.131 533.579 477.787 534.021 477.8C534.462 477.816 534.808 478.183 534.792 478.625L533.292 523.038C533.276 523.469 532.922 523.809 532.494 523.809Z" fill="#08311E"/>
<path d="M538.179 523.425C538.161 523.425 538.142 523.425 538.124 523.423C537.684 523.393 537.351 523.013 537.381 522.573L540.281 479.483C540.311 479.043 540.696 478.717 541.131 478.739C541.571 478.769 541.904 479.15 541.875 479.59L538.975 522.68C538.947 523.102 538.596 523.425 538.179 523.425Z" fill="#08311E"/>
<path d="M367.845 125.077C370.334 129.059 386.065 128.902 394.525 123.925L402.488 137.861L389.076 151.846C386.588 151.846 382.255 151.602 376.615 148.615C368.156 144.136 367.348 129.556 367.845 125.077Z" fill="#F6817B"/>
<path fill-rule="evenodd" clip-rule="evenodd" d="M394.795 122.91L403.403 137.974L389.391 152.585H389.076C386.511 152.585 382.048 152.328 376.27 149.268C371.758 146.879 369.368 141.854 368.155 137.026C366.936 132.175 366.853 127.321 367.112 124.995C367.146 124.683 367.375 124.427 367.681 124.357C367.988 124.287 368.305 124.419 368.472 124.686C368.929 125.417 370.12 126.098 372.046 126.558C373.921 127.006 376.317 127.203 378.923 127.122C384.15 126.961 390.063 125.694 394.151 123.289L394.795 122.91ZM368.48 126.71C368.412 129.158 368.644 132.912 369.588 136.666C370.769 141.368 373.014 145.873 376.961 147.963C382.23 150.753 386.309 151.083 388.763 151.106L401.573 137.748L394.248 124.929C389.927 127.258 384.083 128.441 378.969 128.599C376.274 128.682 373.741 128.482 371.703 127.995C370.47 127.7 369.345 127.284 368.48 126.71Z" fill="#08311E"/>
<path fill-rule="evenodd" clip-rule="evenodd" d="M163.701 127.976C163.937 128.308 163.86 128.769 163.528 129.006L144.89 142.294C144.558 142.53 144.097 142.453 143.86 142.121C143.623 141.789 143.7 141.328 144.032 141.091L162.671 127.803C163.003 127.567 163.464 127.644 163.701 127.976ZM169.65 145.619C170.031 145.766 170.22 146.193 170.073 146.574L161.797 167.989C161.65 168.369 161.223 168.558 160.842 168.411C160.462 168.264 160.273 167.837 160.42 167.456L168.695 146.042C168.842 145.661 169.27 145.472 169.65 145.619Z" fill="#08311E"/>
<path d="M165.699 155.672L154.325 134.769L132.924 134.308C135.91 142.768 136.905 148.207 142.878 159.156C146.859 166.456 156.764 167.964 161.078 168.462L165.699 155.672Z" fill="#E9BC6C"/>
<path fill-rule="evenodd" clip-rule="evenodd" d="M132.326 133.875C132.468 133.678 132.698 133.564 132.94 133.569L154.341 134.031C154.605 134.037 154.847 134.184 154.973 134.416L166.348 155.319C166.449 155.505 166.466 155.725 166.394 155.923L161.772 168.712C161.656 169.035 161.333 169.234 160.993 169.195C158.821 168.944 155.191 168.435 151.588 167.049C147.989 165.664 144.337 163.373 142.23 159.51C137.659 151.13 135.97 145.921 134.119 140.211C133.537 138.413 132.938 136.565 132.228 134.553C132.147 134.325 132.184 134.071 132.326 133.875ZM133.972 135.069C134.548 136.74 135.052 138.296 135.542 139.808C137.384 145.489 139.026 150.553 143.526 158.803C145.4 162.239 148.691 164.352 152.119 165.67C155.249 166.875 158.425 167.39 160.583 167.659L164.892 155.734L153.881 135.498L133.972 135.069Z" fill="#08311E"/>
<path fill-rule="evenodd" clip-rule="evenodd" d="M393.574 123.841L409.5 111.399L410.41 112.563L394.483 125.005L393.574 123.841Z" fill="#08311E"/>
<path fill-rule="evenodd" clip-rule="evenodd" d="M401.455 137.85L410.911 127.896L411.982 128.913L402.526 138.867L401.455 137.85Z" fill="#08311E"/>
</svg>
