<svg width="295" height="295" viewBox="0 0 295 295" fill="none" xmlns="http://www.w3.org/2000/svg">
<g clip-path="url(#clip0)">
<path d="M190.603 257.765L189.738 265.485L187.05 269.765L182.88 270.473L155.091 242.809L154.031 239.306L154.243 235.769L166.992 147.224L181.145 44.9754L182.446 40.6875L187.914 36.9902L207.656 25.1615L212.651 25.1316L216.02 27.7641L217.497 31.9043L216.582 41.1901L190.603 257.765Z" fill="#9A9D9D"/>
<path d="M182.855 270.556L155.024 242.849L155.017 242.831L153.953 239.315L153.955 239.301L154.167 235.764L166.916 147.212L181.07 44.9626L182.381 40.6354L187.872 36.9239L207.636 25.0827L212.68 25.0528L216.088 27.7151L217.579 31.8931L217.577 31.9104L216.66 41.1962L190.682 257.772L189.815 265.509L187.099 269.835L182.855 270.556ZM155.163 242.768L182.908 270.388L187.005 269.694L189.664 265.458L190.528 257.755L216.505 41.1805L217.419 31.9135L215.954 27.8109L212.625 25.2099L207.679 25.2398L187.955 37.0575L182.514 40.736L181.222 44.9972L167.071 147.233L154.322 235.78L154.112 239.297L155.163 242.768Z" fill="white"/>
<path d="M39.6816 86.5007C35.3931 86.3279 31.6179 82.3557 31.6603 78.0631C26.8711 77.9233 22.3126 74.7113 20.5655 70.2474C18.8184 65.7836 19.9879 60.3287 23.4083 56.9721C29.6699 50.8308 40.7632 52.623 47.3246 46.8021C46.2431 46.3717 45.0344 46.7691 43.8916 46.9906C42.7489 47.212 41.3392 47.1413 40.7208 46.155C39.9547 44.9346 41.0457 43.3168 42.347 42.6995C43.6483 42.0838 45.1709 41.9958 46.4095 41.2592C45.229 41.377 43.9842 41.4869 42.8995 41.0032C41.8149 40.5194 40.9986 39.2189 41.468 38.1289C41.7741 37.4173 42.5118 37.0027 43.2245 36.6995C48.1817 34.5933 54.3444 35.7304 58.2232 39.4671C58.8542 38.1006 60.3235 37.3435 61.7409 36.8393C66.8943 35.0079 72.7604 35.2765 77.7254 37.5713C79.5228 38.4021 81.2526 39.5346 82.342 41.1885C83.4314 42.8424 83.7626 45.101 82.7737 46.8162C81.8632 48.3947 80.0675 49.2288 78.3219 49.7471C74.2485 50.9565 69.8234 50.9518 65.7532 49.7345C65.0436 51.4434 63.3389 52.524 61.6264 53.223C59.9138 53.9219 58.0772 54.3617 56.5075 55.3387C54.9362 56.3156 53.6302 58.0308 53.839 59.87C54.0587 61.7957 55.7791 63.1417 57.3253 64.3087C58.8731 65.4757 60.526 66.9694 60.5118 68.9076C60.5009 70.2851 59.5967 71.5291 58.4618 72.3081C57.3269 73.0872 55.9801 73.4814 54.6583 73.8631C55.1403 73.4846 55.9094 73.8662 56.1292 74.4395C56.3489 75.0128 56.1794 75.6537 55.9706 76.2301C55.269 78.173 54.1262 79.9557 52.6554 81.4039C52.4482 78.9191 50.216 76.8489 47.7437 76.5458C45.2714 76.2411 42.7473 77.5448 41.2969 79.5709C39.8496 81.5971 39.4085 84.2421 39.6816 86.5007Z" fill="#0090BA"/>
<path d="M39.771 86.5838L39.6784 86.5806C35.3491 86.4063 31.5833 82.4718 31.5802 78.1399C26.7909 77.9671 22.2387 74.7441 20.4916 70.2771C18.7351 65.7866 19.9108 60.2924 23.3532 56.917C26.5696 53.7631 31.1218 52.6746 35.5264 51.6223C39.6878 50.6281 43.9904 49.5993 47.1738 46.8317C46.3277 46.5459 45.3937 46.7501 44.488 46.9464C44.2933 46.9888 44.0987 47.0312 43.9072 47.0689C43.182 47.2103 41.4145 47.4066 40.6547 46.1972C40.3769 45.7558 40.3157 45.2312 40.4758 44.6815C40.7191 43.849 41.4396 43.0433 42.3139 42.6302C42.9026 42.3506 43.543 42.1779 44.1631 42.0098C44.7925 41.8402 45.4392 41.6643 46.0279 41.3768C45.028 41.4695 43.868 41.5213 42.868 41.0768C41.7755 40.5883 40.9027 39.247 41.3972 38.0988C41.7284 37.3323 42.5321 36.9114 43.1961 36.6287C48.1454 34.5256 54.2988 35.6407 58.2027 39.3365C58.9232 37.8994 60.5478 37.1831 61.7188 36.7669C66.9115 34.9214 72.7603 35.1884 77.763 37.5004C79.9386 38.5056 81.4597 39.6978 82.4125 41.1459C83.6008 42.9506 83.775 45.2454 82.8458 46.8569C82.0813 48.1809 80.6105 49.1516 78.3485 49.8239C74.3033 51.0254 69.85 51.027 65.8017 49.8302C65.1817 51.2626 63.7877 52.428 61.6608 53.2966C61.1035 53.5244 60.5259 53.727 59.9655 53.9233C58.8054 54.3301 57.6077 54.7511 56.5529 55.406C55.2014 56.2463 53.7007 57.9175 53.922 59.862C54.1434 61.8081 55.9376 63.1604 57.3786 64.2473C58.9781 65.4536 60.6106 66.9504 60.5965 68.909C60.5871 70.1891 59.8069 71.485 58.5119 72.3739C57.5889 73.0085 56.5372 73.3855 55.4839 73.7059C55.8104 73.83 56.0867 74.097 56.2076 74.4127C56.4383 75.0158 56.2578 75.6833 56.0506 76.2582C55.3458 78.2074 54.1936 80.0074 52.7165 81.4603L52.5972 81.5781L52.5831 81.4116C52.3853 79.0367 50.2583 76.9336 47.7405 76.6242C45.378 76.3336 42.8759 77.5085 41.3674 79.6179C40.0629 81.4414 39.4633 84.011 39.7631 86.4943L39.771 86.5838ZM46.2414 46.5317C46.6197 46.5317 46.9933 46.5852 47.3527 46.7297L47.4705 46.7768L47.3747 46.8616C44.1521 49.7202 39.7835 50.7647 35.561 51.7746C31.1783 52.8223 26.6465 53.906 23.4615 57.0285C20.0631 60.3615 18.9015 65.785 20.636 70.219C22.3706 74.653 26.9039 77.8461 31.6602 77.9844L31.7371 77.9859V78.0629C31.6963 82.3131 35.3553 86.1942 39.592 86.4173C39.3126 83.9246 39.9248 81.355 41.234 79.5236C42.7754 77.3687 45.3341 76.1687 47.7546 76.4655C50.285 76.7765 52.4324 78.8529 52.7181 81.2294C54.123 79.8126 55.2218 78.077 55.8983 76.2017C56.0961 75.6551 56.2688 75.0205 56.0569 74.4661C55.9438 74.1692 55.6534 73.9101 55.3364 73.8221C55.283 73.808 55.2312 73.7985 55.181 73.7938C55.0146 73.8425 54.8482 73.8912 54.6818 73.9383L54.2941 74.0498L54.6111 73.8001C54.7665 73.6776 54.958 73.6211 55.1637 73.6336C56.297 73.2991 57.4366 72.9174 58.4193 72.242C59.6719 71.3813 60.4254 70.1342 60.4348 68.9043C60.4489 67.0148 58.8478 65.551 57.2797 64.3698C55.8151 63.2656 53.9911 61.8897 53.7619 59.8777C53.5327 57.861 55.0758 56.1364 56.4666 55.2709C57.5355 54.6066 58.7426 54.1825 59.9105 53.7725C60.4678 53.5762 61.0439 53.3752 61.598 53.149C63.7187 52.2835 65.0922 51.1244 65.6808 49.7029L65.7075 49.637L65.775 49.6574C69.8123 50.8652 74.2594 50.8699 78.2983 49.6699C80.5194 49.0103 81.9604 48.0632 82.7029 46.7752C83.6024 45.214 83.4313 42.9852 82.2744 41.2292C81.3373 39.8061 79.8382 38.6329 77.6908 37.6402C72.7242 35.3455 66.9193 35.08 61.7644 36.9114C60.5949 37.3276 58.9608 38.0486 58.2906 39.4983L58.2498 39.602L58.1697 39.525C54.3145 35.8119 48.1816 34.6795 43.2558 36.7732C42.6185 37.0433 41.8493 37.4454 41.54 38.1617C41.0817 39.225 41.9042 40.4753 42.9308 40.9339C44.0249 41.4224 45.287 41.2951 46.3999 41.1836L46.7515 41.1475L46.447 41.3281C45.7548 41.7396 44.9652 41.9548 44.2007 42.1606C43.5885 42.3271 42.9544 42.4983 42.3783 42.7716C41.5557 43.1611 40.8509 43.9464 40.6233 44.7255C40.4758 45.2312 40.5323 45.7119 40.7834 46.114C41.5102 47.2731 43.3327 47.0202 43.8727 46.915C44.0642 46.8773 44.2572 46.8365 44.4503 46.7941C45.0468 46.6637 45.6512 46.5317 46.2414 46.5317Z" fill="#2E3233"/>
<path d="M15.8604 251.146C15.7223 254.414 15.4272 258.156 15.2891 261.424C27.0855 261.528 39.3529 261.946 51.1478 262.048C51.5277 261.124 50.8983 259.236 50.2484 258.477C49.5985 257.719 48.6693 257.259 47.7243 256.938C41.5882 254.854 35.055 257.491 28.7369 256.051C27.467 255.762 26.2693 255.49 25.4059 254.515C24.5426 253.539 23.8205 252.281 24.5175 251.183C21.6229 251.202 18.7236 251.221 15.8604 251.146Z" fill="#98D5E9"/>
<path d="M51.5994 244.668C53.9728 244.752 56.3462 244.835 58.7196 244.916C58.3822 246.272 58.9771 247.752 60.01 248.691C61.0413 249.632 62.4446 250.084 63.8354 250.199C65.2262 250.313 66.6216 250.117 68.0014 249.903C71.2978 249.391 74.6225 248.774 77.9488 249.044C80.0773 249.217 82.2624 249.803 83.8462 251.237C85.4301 252.671 86.2322 255.109 85.3076 257.034C73.8957 255.539 62.3959 254.724 50.8867 254.595C51.1599 251.378 51.433 248.161 51.5994 244.668Z" fill="#98D5E9"/>
<path d="M64.4082 82.241C63.8258 81.385 64.0644 79.3479 64.8697 78.6992C65.6765 78.0505 66.9197 78.6631 67.9542 78.6316C68.9886 78.6002 70.0388 78.6835 71.0465 78.4494C72.8407 78.0348 74.2912 76.6416 75.1655 75.0207C76.0398 73.3997 76.4071 71.5574 76.6756 69.7338C77.349 65.1553 77.4589 60.4983 77.0617 55.8884C76.9393 54.4763 76.7776 53.0031 77.2909 51.6821C77.8042 50.3612 79.2515 49.2774 80.603 49.7015C79.8888 51.8832 80.6799 54.3444 82.1225 56.1287C83.5651 57.9145 85.5775 59.1381 87.6008 60.2218C89.6242 61.3056 91.7214 62.2983 93.4936 63.7574C95.2658 65.2166 96.7115 67.238 96.9156 69.5249C97.0741 71.3092 96.4525 73.1092 95.4165 74.5699C94.3805 76.0306 92.952 77.1772 91.4169 78.0976C86.9321 80.7897 81.3753 81.6316 76.2941 80.3892C75.2801 82.4107 73.2724 83.9012 71.0465 84.2892C68.8191 84.6756 65.8947 84.429 64.4082 82.241Z" fill="#0090BA"/>
<path d="M69.3204 84.5183C68.7271 84.5183 68.0819 84.4617 67.432 84.3062C66.0727 83.9795 65.0335 83.2994 64.3444 82.2848C63.7275 81.3785 64.0006 79.2989 64.8216 78.6377C65.382 78.1869 66.1386 78.3141 66.8701 78.4382C67.2343 78.4995 67.611 78.5654 67.9532 78.5529C68.231 78.545 68.5136 78.5434 68.7867 78.5434C69.5308 78.5419 70.3015 78.5419 71.0314 78.3722C72.6577 77.9953 74.141 76.7607 75.0986 74.9827C75.9792 73.3492 76.3402 71.4896 76.6008 69.7226C77.2617 65.2352 77.3904 60.5829 76.9854 55.896L76.9665 55.6855C76.8472 54.33 76.7248 52.9274 77.2193 51.6536C77.7373 50.3201 79.2301 49.1877 80.6271 49.6275L80.7025 49.651L80.6774 49.7264C80.0322 51.6976 80.6099 54.1321 82.1827 56.0798C83.6237 57.864 85.6565 59.0923 87.6375 60.1525C87.9782 60.3347 88.3204 60.5153 88.6641 60.6944C90.3359 61.5708 92.0642 62.4787 93.5428 63.6959C95.5835 65.3765 96.8094 67.4435 96.9931 69.5168C97.1438 71.2163 96.6069 73.0257 95.4799 74.6136C94.5365 75.944 93.2195 77.1047 91.4567 78.1633C86.95 80.868 81.4434 81.7115 76.3355 80.4785C75.3026 82.4905 73.2871 83.9764 71.0597 84.3643C70.5872 84.4476 69.986 84.5183 69.3204 84.5183ZM65.8466 78.4759C65.5013 78.4759 65.1858 78.545 64.9205 78.7586C64.1639 79.368 63.9064 81.3597 64.4747 82.1952C64.9252 82.8565 66.7257 84.9596 71.0346 84.2088C73.2353 83.8256 75.2242 82.3476 76.2256 80.3513L76.2539 80.2947L76.3151 80.3089C81.3994 81.5528 86.8903 80.7204 91.3782 78.0267C93.1237 76.9791 94.425 75.8325 95.3543 74.521C96.4594 72.9629 96.9868 71.1896 96.8393 69.5278C96.6587 67.4969 95.4532 65.4676 93.4455 63.8137C91.9778 62.6059 90.2574 61.7027 88.5935 60.8295C88.2497 60.6488 87.9075 60.4698 87.5653 60.286C85.5702 59.218 83.5217 57.9803 82.0634 56.174C80.4764 54.2107 79.8847 51.7573 80.5063 49.75C79.2144 49.4013 77.8503 50.4631 77.3668 51.7055C76.8865 52.9447 77.0074 54.3285 77.1235 55.6667L77.1424 55.8771C77.5489 60.5766 77.4186 65.2415 76.7562 69.7414C76.4941 71.5226 76.1283 73.3995 75.2367 75.0534C74.2572 76.8707 72.7377 78.1351 71.0675 78.5215C70.3188 78.6942 69.5402 78.6958 68.7867 78.6958C68.5152 78.6958 68.2342 78.6958 67.9579 78.7052C67.6 78.7162 67.2154 78.6518 66.8434 78.589C66.4965 78.5324 66.159 78.4759 65.8466 78.4759Z" fill="#2E3233"/>
<path d="M55.0915 79.1292C55.8324 77.3874 56.2641 75.5151 56.3598 73.6256C57.3534 73.2141 58.3455 72.7539 59.1665 72.0581C59.9874 71.3623 60.6295 70.3979 60.7331 69.3267C60.8382 68.2461 60.3846 67.1686 59.697 66.3283C59.0095 65.488 58.1069 64.855 57.1886 64.2786C55.8324 63.4289 54.305 62.5508 53.7823 61.0367C53.2753 59.5729 53.9142 57.9048 54.9894 56.7912C56.0647 55.6776 57.512 55.0101 58.9357 54.4038C60.361 53.7975 61.8272 53.2117 63.0092 52.2111C63.6151 51.6975 64.1582 51.0693 64.8991 50.7865C65.5505 50.5368 66.2726 50.5886 66.9696 50.6358C70.3021 50.8557 73.6488 50.8651 76.9813 50.6625C75.9798 58.0634 77.6751 65.7644 75.7145 72.9722C75.2593 74.6481 74.5325 76.3711 73.0978 77.3512C71.6599 78.3345 69.7966 78.3816 68.0558 78.3125C67.0198 78.2717 65.8582 78.2434 65.1 78.9518C64.7029 79.3224 64.4831 79.8439 64.2948 80.3544C63.4926 82.525 63.0374 84.8229 62.9464 87.1349C59.1241 86.0072 56.0223 82.7025 55.0915 79.1292Z" fill="#F7DBAF"/>
<path d="M17.8633 247.445C18.2636 244.61 18.6638 241.774 19.0641 238.938C21.3952 239.762 23.9569 239.363 26.3947 238.954C24.9977 241.763 23.7513 244.648 22.6666 247.591C21.0953 247.456 19.5256 247.321 17.8633 247.445Z" fill="#F7DBAF"/>
<path d="M53.1874 240.542C53.1387 240.768 53.0901 240.996 53.043 241.222C53.189 237.179 53.3334 233.135 53.4794 229.092C54.3349 230.033 55.6675 229.891 56.9359 229.978C58.2042 230.064 59.4317 230.416 60.6797 230.179C59.5887 234.014 58.4978 237.85 57.4068 241.686C55.9156 241.197 54.3192 241.029 53.1874 240.542Z" fill="#F7DBAF"/>
<path d="M92.2359 130.84C97.463 133.702 103.015 135.969 108.753 137.582C110.038 137.943 111.543 138.471 111.886 139.763C112.173 140.847 111.412 141.995 110.413 142.503C109.413 143.012 108.242 143.026 107.122 142.982C106.001 142.938 104.853 142.848 103.781 143.18C105.93 145.325 108.592 146.952 111.482 147.882C112.25 148.129 113.05 148.338 113.703 148.812C114.355 149.286 114.83 150.114 114.623 150.893C114.416 151.672 113.316 152.139 112.741 151.573C113.43 151.647 113.945 152.368 113.893 153.059C113.842 153.75 113.311 154.352 112.663 154.597C112.014 154.842 111.278 154.773 110.631 154.523C111.319 154.567 111.771 155.387 111.597 156.053C111.423 156.719 110.79 157.187 110.124 157.363C109.459 157.539 108.756 157.476 108.07 157.41C108.735 157.953 108.643 159.081 108.056 159.706C107.467 160.333 106.553 160.539 105.695 160.54C102.899 160.546 100.449 158.779 98.2212 157.089C93.8119 153.745 89.4041 150.402 84.9947 147.058C84.6651 146.808 84.3213 146.539 84.1675 146.156C83.943 145.597 84.1832 144.969 84.4281 144.417C86.5535 139.646 89.2597 135.133 92.2359 130.84Z" fill="#F7DBAF"/>
<path d="M142.02 136.767C136.468 135.463 130.915 134.159 125.363 132.856C124.731 132.706 124.087 132.557 123.439 132.6C122.791 132.642 122.125 132.903 121.745 133.43C121.081 134.354 121.513 135.628 121.897 136.699C122.326 137.894 122.67 139.119 122.924 140.365C123.083 141.141 123.178 142.033 122.674 142.644C122.169 143.255 121.216 143.323 120.485 143.015C119.753 142.707 119.191 142.108 118.651 141.526C118.592 141.893 118.216 142.149 117.846 142.178C117.474 142.206 117.113 142.053 116.789 141.867C115.483 141.114 114.559 139.73 114.363 138.235C114.292 139.071 113.047 139.327 112.394 138.801C111.741 138.276 111.567 137.365 111.478 136.533C111.01 132.194 111.663 127.715 113.539 123.776C114.424 121.916 115.677 120.094 117.557 119.254C119.508 118.382 121.761 118.718 123.869 119.07C129.391 119.993 134.915 120.917 140.437 121.841C141.243 121.976 142.142 122.169 142.585 122.855C142.924 123.38 142.899 124.052 142.859 124.677C142.611 128.725 142.362 132.776 142.02 136.767Z" fill="#F7DBAF"/>
<path d="M39.1562 130.374C42.2769 122.371 45.454 113.876 44.0193 105.405C42.7807 98.0919 38.1469 91.0977 39.613 83.8271C40.0667 81.5763 41.1655 79.3852 42.9989 78.0046C44.8324 76.624 47.4632 76.2015 49.4725 77.3088C51.0406 78.1727 52.028 79.781 52.9447 81.3187C55.596 85.7684 57.7763 89.4344 60.4291 93.8841C61.1261 91.583 62.6095 89.7532 63.3065 87.4522C67.5133 90.4207 69.488 95.6149 70.8804 100.574C71.7343 103.616 71.254 106.186 72.1095 109.228C72.4736 110.522 71.8191 110.88 72.3716 112.107C74.9224 117.761 82.6329 122.789 88.2023 125.516C82.0097 129.984 78.2832 136.303 75.8517 144.026C74.7419 143.376 73.687 142.052 72.4846 141.164C71.1927 140.211 70.1913 139.152 68.631 138.771C65.6171 138.031 62.4714 138.144 59.3774 137.905C52.2195 137.352 45.2248 134.863 39.1562 130.374Z" fill="#F6817B"/>
<path d="M37.0511 134.638C33.0907 140.274 31.4849 147.211 30.4504 154.023C29.4175 160.835 28.8556 167.781 26.6423 174.304C21.2079 190.323 6.51529 201.912 1.22689 217.979C0.154767 221.237 -0.496668 224.828 0.638242 228.065C1.90815 231.693 5.21085 234.245 8.67523 235.907C15.1974 239.034 22.8749 239.674 29.8257 237.671C36.7764 235.668 42.1511 230.331 45.8259 224.498C47.022 226.39 49.8396 228.338 51.9745 229.012C54.1093 229.686 56.365 229.851 58.5971 230.011C61.5372 230.223 64.6264 230.408 67.2934 229.15C70.0388 227.856 71.9319 225.172 72.9177 222.3C73.9035 219.429 74.0903 216.352 74.2159 213.319C74.6554 202.742 74.4576 192.122 73.431 181.739C73.566 169.023 72.0026 156.017 75.4984 143.791C74.4843 143.005 73.4718 142.22 72.4578 141.436C71.6478 142.523 70.0404 142.484 68.692 142.357C63.4413 141.857 58.167 141.614 52.9493 141.475C50.0908 141.031 47.2402 140.442 44.5293 139.43C41.8184 138.419 39.244 136.968 37.0511 134.638Z" fill="#D69E20"/>
<path d="M79.4948 135.708C81.807 131.924 84.7063 128.5 88.0592 125.599C90.395 126.751 92.7323 127.902 95.068 129.053C89.1502 134.086 84.802 140.94 82.7677 148.438C80.3817 147.229 78.1244 145.768 76.043 144.088C77.0978 141.559 77.6252 138.765 79.4948 135.708Z" fill="white"/>
<path d="M68.8093 138.421C58.3236 139.017 47.6746 136.299 38.7554 130.748C37.9423 131.744 37.0774 132.947 37.3772 134.197C37.5844 135.058 38.3002 135.691 39.005 136.223C43.6137 139.71 49.3495 141.471 55.0962 142.075C60.843 142.68 66.6447 142.193 72.3883 141.559C71.1781 140.466 69.9662 139.371 68.8093 138.421Z" fill="white"/>
<path d="M63.0436 87.0503C63.2712 85.5157 63.4972 83.9812 63.7248 82.4466C65.9366 85.1278 67.2881 88.5094 67.5345 91.9775C66.183 90.4005 64.8315 88.8251 63.4815 87.2482C62.4141 89.5649 61.3482 91.8816 60.2808 94.1984C57.672 90.4759 55.7647 86.3183 53.8732 82.1859C53.7633 81.9456 53.6519 81.699 53.6268 81.4367C53.553 80.6639 54.2107 80.0388 54.8088 79.5472C56.3628 82.9712 59.3563 85.7152 63.0436 87.0503Z" fill="white"/>
<path d="M141.379 144.452C142.153 136.032 142.925 127.61 143.699 119.189C143.712 119.045 143.729 118.892 143.818 118.778C144.021 118.517 144.427 118.619 144.738 118.731C146.757 119.459 148.991 119.579 151.077 119.071C151.516 118.965 152.034 118.847 152.38 119.141C152.703 119.415 152.697 119.909 152.664 120.333C151.997 128.88 151.329 137.428 150.664 145.974C147.504 145.474 144.347 144.973 141.379 144.452Z" fill="white"/>
<path d="M15.5342 250.865C15.2093 249.906 15.1214 248.87 15.2799 247.871C17.9799 248.165 20.7096 248.177 23.4111 247.91C23.7769 247.874 24.1944 247.85 24.4565 248.107C24.6496 248.295 24.6983 248.582 24.7312 248.851C24.783 249.27 24.8191 249.691 24.8427 250.114C24.8537 250.309 24.8458 250.536 24.6904 250.654C24.6025 250.72 24.4895 250.734 24.3796 250.745C21.5573 251.047 18.7114 251.13 15.5342 250.865Z" fill="white"/>
<path d="M50.8825 243.817C50.7381 243.468 50.5921 243.112 50.5576 242.736C50.5231 242.361 50.6173 241.954 50.892 241.695C51.2624 241.345 51.8338 241.352 52.3424 241.381C54.4395 241.5 56.5367 241.619 58.6339 241.739C58.8583 241.751 59.1048 241.773 59.2633 241.935C59.4533 242.128 59.436 242.439 59.403 242.71C59.312 243.426 59.1958 244.139 59.0545 244.847C56.6843 244.717 54.3171 244.587 50.8825 243.817Z" fill="white"/>
<path d="M12.4679 261.218C25.8891 261.457 39.3102 261.696 52.7313 261.935C52.6262 263.186 51.5713 264.195 50.394 264.633C49.2167 265.071 47.9264 265.049 46.6706 265.023C35.6826 264.787 24.6961 264.553 13.708 264.317C13.2826 264.308 12.8258 264.289 12.4836 264.036C12.0535 263.719 11.9326 263.106 12.0504 262.585C12.1681 262.063 12.482 261.609 12.4679 261.218Z" fill="white"/>
<path d="M49.1027 256.94C49.357 256.816 49.3287 256.437 49.1968 256.186C49.065 255.935 48.8625 255.69 48.8939 255.408C48.9504 254.915 49.6065 254.799 50.1026 254.815C62.2758 255.196 74.4317 256.092 86.528 257.499C86.178 258.525 85.1843 259.222 84.1389 259.508C83.095 259.794 81.9899 259.731 80.91 259.668C71.7161 259.126 62.7593 258.035 53.5654 257.493C52.1589 257.409 50.4542 257.857 49.1027 256.94Z" fill="white"/>
<path d="M102.031 159.323C98.2319 167.063 91.2246 181.889 91.4507 182.845L91.1367 182.924C97.6668 190.834 104.512 198.665 111.042 206.575C113.749 203.757 116.455 200.939 119.163 198.123C120.569 201.351 121.977 204.577 123.384 207.805C127.036 186.488 130.691 165.172 134.343 143.855C130.962 140.481 127.581 137.107 124.2 133.734C123.95 133.484 123.683 133.226 123.343 133.137C122.625 132.948 121.917 133.638 121.8 134.371C121.682 135.105 121.974 135.835 122.261 136.52C122.727 137.632 123.201 138.775 123.245 139.98C123.289 141.186 122.811 142.487 121.765 143.088C120.72 143.69 119.119 143.261 118.781 142.104C116.673 142.561 114.391 140.69 114.425 138.532C111.711 140.277 109.656 143.026 108.752 146.126C109.611 146.949 110.873 147.134 112.031 147.402C113.19 147.669 114.45 148.166 114.915 149.261C115.38 150.356 114.267 151.933 113.198 151.413C114.008 151.862 114.35 152.992 113.928 153.815C113.505 154.638 112.388 155.018 111.551 154.622C111.741 156.188 110.116 157.689 108.572 157.374C108.421 158.792 107.385 160.077 106.033 160.528C104.682 160.977 103.241 159.939 102.031 159.323Z" fill="white"/>
<path d="M150.723 145.206L153.223 119.472L180.014 121.489C180.014 121.489 183.632 138.469 178.854 147.763L150.723 145.206Z" fill="#98D5E9"/>
<path d="M172.779 120.884L183.375 43.3101L185.803 41.3797L187.881 40.2661L188.131 42.6158C188.131 42.6158 190.153 43.2488 192.683 41.8022C195.214 40.3556 200.042 37.9101 200.042 37.9101L199.706 34.3023L199.737 33.4431C199.737 33.4431 206.602 28.6636 206.997 30.9348C207.393 33.206 180.504 262.052 180.504 262.052L179.088 262.97L177.805 261.77L156.771 240.27L155.93 238.836L156.427 236.23L169.227 147.508L178.582 148.177L181.307 137.304L181.467 128.944L180.201 120.703L172.779 120.884Z" fill="#F6D2F1"/>
<path d="M180.748 66.0942C182.577 63.933 185.085 62.3545 187.824 61.6398C188.22 61.5362 188.627 61.4513 189.033 61.4843C189.44 61.5173 189.852 61.6854 190.1 62.0089C190.356 62.3419 190.408 62.7974 190.323 63.2073C190.239 63.6173 190.03 63.9927 189.805 64.3461C189.072 65.4974 188.446 66.9314 187.474 67.8911C185.055 70.2801 182.103 72.0047 179.469 74.1549C179.841 71.4596 180.213 68.7644 180.748 66.0942Z" fill="white"/>
<path d="M191.958 48.0489C192.977 46.7405 194.202 45.5923 195.57 44.6578C195.964 44.3892 196.412 44.1285 196.886 44.1819C197.319 44.2306 197.677 44.5337 198.002 44.8259C198.437 45.2185 198.89 45.6615 198.985 46.241C199.105 46.984 198.597 47.6672 198.118 48.2483C196.727 49.9384 195.214 51.7132 193.12 52.3494C192.585 52.5127 192.007 52.5928 191.469 52.442C190.93 52.2912 190.444 51.8703 190.337 51.3206C190.186 50.5509 190.786 49.7907 190.671 49.0148" fill="white"/>
<path d="M199.122 99.4475C197.012 98.3591 194.976 96.8685 193.98 94.7135C192.941 92.4675 193.225 89.6968 194.581 87.6267C195.937 85.5566 198.287 84.2089 200.747 83.9356C200.1 89.0639 199.646 94.2156 199.122 99.4475Z" fill="white"/>
<path d="M182.723 94.6428C182.417 91.6334 182.112 88.613 182.222 85.5894C182.249 84.8654 182.304 84.124 182.599 83.4628C182.894 82.8015 183.478 82.2251 184.195 82.1308C185.057 82.0162 185.884 82.624 186.302 83.3874C186.719 84.1507 186.814 85.0429 186.9 85.9083C187.068 87.5952 187.236 89.2837 187.308 90.9784C187.347 91.8894 187.355 92.8192 187.096 93.6941C186.836 94.569 186.267 95.392 185.429 95.7548C184.592 96.1161 182.872 96.1019 182.723 94.6428Z" fill="white"/>
<path d="M164.289 181.347C164.721 181.639 164.969 182.124 165.253 182.561C165.537 182.998 165.925 183.43 166.441 183.497C167.159 183.59 167.739 182.955 168.182 182.384C169.551 180.613 170.937 178.81 171.744 176.723C172.056 175.912 172.224 174.86 171.571 174.288C171.094 173.87 170.383 173.903 169.752 173.962C168.532 174.073 167.312 174.183 166.093 174.295C165.794 174.321 165.465 174.365 165.272 174.593C165.121 174.77 165.091 175.017 165.068 175.248C164.859 177.277 164.652 179.31 164.289 181.347Z" fill="#F6FCFE"/>
<path d="M189.186 188.946C187.693 189.316 186.068 188.685 184.99 187.587C183.911 186.489 183.323 184.989 183.045 183.475C182.327 179.566 183.64 175.339 186.446 172.524C187.019 171.949 187.663 171.423 188.413 171.112C189.164 170.801 190.036 170.724 190.787 171.037C190.273 176.526 189.762 182.014 189.186 188.946Z" fill="white"/>
<path d="M164.955 174.343C166.784 173.924 168.667 173.748 170.542 173.819C171.072 173.839 171.672 173.914 171.986 174.343C172.37 174.869 172.108 175.606 171.83 176.195C170.725 178.527 169.507 180.806 168.184 183.021C168.021 183.294 167.827 183.59 167.521 183.679C167.187 183.778 166.84 183.599 166.542 183.42C165.981 183.086 165.418 182.718 165.043 182.182C164.252 181.053 164.5 179.519 164.862 178.19C165.223 176.859 165.666 175.43 164.955 174.343Z" fill="white"/>
<path d="M173.004 202.546C173.123 200.598 173.726 198.681 174.741 197.014C175.255 196.171 176.193 195.296 177.099 195.687C177.84 196.007 178.017 196.962 178.052 197.768C178.228 201.907 177.27 206.088 175.313 209.737C174.989 210.34 174.493 211.009 173.812 210.951C172.993 210.88 172.677 209.856 172.61 209.034C172.426 206.807 172.88 204.588 173.004 202.546Z" fill="white"/>
<path d="M159.349 217.692C160.233 216.471 161.518 215.546 162.958 215.097C163.504 214.926 164.165 214.846 164.592 215.224C165.184 215.749 164.914 216.715 164.562 217.422C163.053 220.453 160.804 223.112 158.066 225.101C158.418 222.346 158.184 219.299 159.349 217.692Z" fill="white"/>
<path d="M168.497 228.376C169.393 227.426 170.162 226.359 171.101 225.451C172.04 224.543 173.197 223.783 174.495 223.645C175.793 223.508 177.229 224.135 177.731 225.341C178.155 226.361 177.857 227.528 177.472 228.561C176.796 230.375 175.849 232.109 174.539 233.534C173.228 234.958 171.534 236.064 169.649 236.507C168.685 236.733 167.547 236.738 166.847 236.039C166.065 235.258 166.175 233.956 166.549 232.915C166.924 231.872 166.659 230.325 168.497 228.376Z" fill="white"/>
<path d="M173.734 256.671C175.524 254.56 178.25 253.276 181.018 253.244C180.996 256.241 180.649 259.235 179.985 262.156C179.935 262.376 179.852 262.632 179.636 262.7C179.437 262.762 179.235 262.626 179.071 262.497C176.937 260.823 174.978 258.927 173.734 256.671Z" fill="white"/>
<path d="M72.3213 51.4776C71.0247 51.4776 69.6748 51.385 68.2777 51.1981C65.0912 50.7724 61.9957 49.9305 59.0995 49.1044C58.8076 49.0211 58.638 48.7164 58.7212 48.4243C58.8044 48.1321 59.109 47.9625 59.4009 48.0457C62.2594 48.8609 65.3094 49.6918 68.4237 50.1065C71.7782 50.5541 74.8313 50.4441 77.5014 49.7829C78.9299 49.4279 79.9957 48.974 80.8528 48.3536C81.87 47.6185 82.5763 46.6039 82.7898 45.5704C83.2749 43.2238 81.3755 41.0657 80.5373 40.2458C78.5202 38.2762 75.9081 36.883 72.9822 36.2186C70.2603 35.5998 67.2684 35.628 64.3299 36.2987C61.4981 36.9443 59.4449 38.0814 58.0557 39.773C57.9489 39.9034 57.7873 39.9756 57.6209 39.9741C57.4529 39.9709 57.2959 39.8908 57.1939 39.7573C55.5065 37.5458 52.3623 36.2265 48.5698 36.1401C46.0222 36.082 44.0035 36.5861 42.5782 37.6401C42.2125 37.9102 41.5971 38.46 41.5924 39.0976C41.5877 39.7275 42.1983 40.2678 42.8027 40.4751C43.4416 40.695 44.1526 40.6872 44.9045 40.6777C45.016 40.6762 45.1274 40.6746 45.2389 40.6746C46.2074 40.6699 47.2246 40.7406 48.0864 41.2919C48.2967 41.4254 48.3893 41.6845 48.314 41.9233C48.2386 42.1604 48.0094 42.3175 47.763 42.3049C45.7114 42.1997 43.6472 42.7761 41.9472 43.9274C41.3146 44.3562 40.6522 45.0725 40.8703 45.6819C41.0791 46.2662 41.9958 46.4437 42.5233 46.4971C44.0176 46.6494 45.5701 46.5112 47.0142 46.0981C47.3062 46.0149 47.6107 46.1829 47.6939 46.4751C47.7771 46.7672 47.6092 47.0719 47.3172 47.1552C45.7396 47.6075 44.0443 47.7583 42.4118 47.5918C41.0352 47.452 40.1436 46.9196 39.8343 46.0526C39.4058 44.851 40.3272 43.6966 41.3303 43.018C42.1104 42.4903 42.9581 42.0709 43.8465 41.7693C43.3788 41.7442 42.9078 41.6783 42.4448 41.518C41.4982 41.1913 40.4842 40.2945 40.4936 39.0929C40.4999 38.2542 40.9944 37.4469 41.9252 36.7589C43.553 35.5558 45.7946 34.9778 48.595 35.0438C53.6275 35.16 56.3274 37.1249 57.6428 38.5825C59.1686 36.9678 61.2846 35.8684 64.085 35.2291C67.1836 34.5223 70.3451 34.494 73.2255 35.149C76.3492 35.8589 79.1434 37.3511 81.3049 39.462C83.3518 41.4615 84.2858 43.7704 83.8666 45.7965C83.5935 47.1143 82.7522 48.341 81.4964 49.2489C80.5216 49.9541 79.3349 50.4646 77.7651 50.8541C76.0824 51.2687 74.2615 51.4776 72.3213 51.4776Z" fill="#2E3233"/>
<path d="M68.2442 79.2848C68.2317 79.2848 68.2191 79.2848 68.2065 79.2848C65.8567 79.277 63.6167 78.5937 61.452 77.934C61.1616 77.8461 60.9984 77.5382 61.0863 77.2477C61.1742 76.9571 61.4819 76.7937 61.7723 76.8817C63.8616 77.5178 66.0215 78.1775 68.2097 78.1838C68.2207 78.1838 68.2332 78.1838 68.2442 78.1838C70.5988 78.1838 72.6394 77.3592 73.845 75.9189C74.9909 74.5508 75.3818 72.6786 75.658 71.0325C76.7757 64.3713 76.6862 57.4887 76.5999 50.8338C76.5951 50.5306 76.8384 50.2809 77.1414 50.2762C77.4412 50.2715 77.694 50.5149 77.6987 50.818C77.7866 57.5217 77.8776 64.4546 76.7427 71.2132C76.4209 73.1341 75.9484 75.1194 74.6879 76.6241C73.272 78.3173 70.9253 79.2848 68.2442 79.2848Z" fill="#2E3233"/>
<path d="M69.9108 85.0696C68.0616 85.0696 66.0477 84.4822 63.7888 83.2885C63.5204 83.1471 63.4184 82.8141 63.5596 82.5456C63.7009 82.277 64.0337 82.1749 64.3021 82.3162C66.8058 83.6403 68.9516 84.1602 70.862 83.9089C72.8383 83.6482 75.1034 82.1686 75.4064 79.9398C75.4283 79.778 75.5209 79.6351 75.6591 79.5487C75.7972 79.4623 75.9667 79.4419 76.1206 79.4922C81.2081 81.1492 87.1479 80.3498 91.6216 77.4032C93.3562 76.2613 94.6653 74.9451 95.5114 73.4907C96.4783 71.8305 96.8252 69.9347 96.4642 68.2886C95.8583 65.5258 93.477 63.7604 92.1114 62.9546C91.0534 62.3311 89.8855 61.8237 88.7553 61.3337C87.0506 60.5955 85.2893 59.8321 83.7934 58.6306C81.0244 56.4049 79.4861 52.8207 79.7765 49.2788C79.8016 48.9757 80.0669 48.7526 80.3698 48.7762C80.6728 48.8013 80.8973 49.0668 80.8721 49.3699C80.61 52.5537 81.9929 55.7735 84.4825 57.7746C85.8623 58.8835 87.4791 59.584 89.1917 60.3269C90.3533 60.8295 91.5541 61.3494 92.6702 62.0091C94.1897 62.9059 96.8441 64.885 97.5379 68.0546C97.957 69.9661 97.5646 72.1509 96.4611 74.0467C95.5287 75.6488 94.1033 77.0891 92.226 78.3252C87.6486 81.3393 81.6272 82.2361 76.3623 80.7189C75.8082 82.6555 73.9135 84.6204 71.0064 85.0036C70.6469 85.0461 70.2812 85.0696 69.9108 85.0696Z" fill="#2E3233"/>
<path d="M53.7399 74.4016C52.6505 74.4016 51.5642 74.2146 50.5502 73.8314C50.2661 73.723 50.1232 73.4058 50.2315 73.123C50.3383 72.8387 50.6554 72.6958 50.9395 72.8042C53.6535 73.833 56.9531 73.2503 59.1507 71.3545C59.9575 70.6571 60.3986 69.9519 60.4614 69.2576C60.5274 68.5273 60.1946 67.7294 59.416 66.7477C58.4773 65.565 57.3597 64.5472 56.0945 63.7257C55.9673 63.6425 55.8386 63.5624 55.7083 63.4791C54.8889 62.9624 53.9596 62.3781 53.4605 61.4153C52.9456 60.421 52.9754 59.1315 53.5421 57.9677C54.0758 56.8713 54.958 56.0593 55.6659 55.4766C57.3879 54.0583 59.3359 52.9902 61.4566 52.3023C61.5916 52.2583 61.7266 52.2159 61.8632 52.1735C62.4142 52.0023 62.9353 51.8405 63.3952 51.5782C63.976 51.2484 64.3622 50.7834 64.4548 50.3028C64.5129 50.0044 64.8001 49.8096 65.0984 49.8677C65.3966 49.9259 65.5913 50.2133 65.5332 50.5117C65.3794 51.308 64.7986 52.0463 63.9368 52.5347C63.3733 52.8551 62.7705 53.0421 62.1881 53.2243C62.0563 53.2651 61.9244 53.3059 61.7941 53.3483C59.832 53.9845 57.9546 55.0132 56.3629 56.3247C55.4367 57.0865 54.8716 57.7415 54.5279 58.4483C54.1135 59.3012 54.0774 60.2216 54.4337 60.908C54.7947 61.6053 55.5215 62.0624 56.2907 62.5477C56.4257 62.6325 56.5591 62.7174 56.6894 62.8022C58.055 63.6896 59.2622 64.7875 60.2746 66.0645C60.8821 66.8309 61.6748 68.0042 61.554 69.3566C61.4645 70.3461 60.8978 71.2995 59.8665 72.1885C58.1963 73.6288 55.9595 74.4016 53.7399 74.4016Z" fill="#2E3233"/>
<path d="M53.592 81.2968C53.4821 81.2968 53.3707 81.2638 53.2734 81.1947C53.0269 81.0188 52.9688 80.6748 53.1446 80.4282C54.5574 78.446 55.438 76.1183 55.6923 73.6963C55.7237 73.3948 55.9968 73.1749 56.2967 73.2063C56.5981 73.2377 56.8178 73.5079 56.7864 73.811C56.5117 76.4199 55.5636 78.9298 54.041 81.0659C53.9326 81.2167 53.7631 81.2968 53.592 81.2968Z" fill="#2E3233"/>
<path d="M63.1307 87.5811C63.0805 87.5811 63.0287 87.5749 62.9785 87.5591C59.0698 86.433 55.7718 83.3607 54.3701 79.5409C54.2649 79.2566 54.4109 78.9393 54.6966 78.8356C54.9823 78.732 55.2978 78.8781 55.4014 79.1623C56.6022 82.434 59.3226 85.1058 62.597 86.2806C62.7053 83.6278 63.3411 80.8885 64.4524 78.3158C64.5733 78.0377 64.8951 77.9089 65.1745 78.0299C65.4523 78.1508 65.5811 78.4744 65.4602 78.7524C64.3033 81.432 63.6864 84.2953 63.6786 87.0314C63.6786 87.2042 63.5969 87.366 63.4588 87.4696C63.363 87.5434 63.2469 87.5811 63.1307 87.5811Z" fill="#2E3233"/>
<path d="M32.1566 78.7318C29.6106 78.7318 27.0723 77.9967 24.9265 76.5784C21.6583 74.4187 19.4874 70.7999 19.1185 66.8984C18.7512 62.9968 20.2063 59.0356 23.0146 56.3027C26.165 53.2351 30.5304 52.0022 35.1014 50.9106L35.1799 50.8917C39.3664 49.8928 43.6941 48.8593 46.8665 46.0917C47.0957 45.8923 47.4426 45.9158 47.642 46.1451C47.8413 46.3745 47.8178 46.7216 47.5886 46.9211C44.2137 49.8661 39.751 50.931 35.4358 51.9613L35.3573 51.9802C30.9401 53.0341 26.7317 54.2199 23.7806 57.0911C21.2471 59.5571 19.8798 63.2764 20.2126 66.7963C20.5454 70.3161 22.5829 73.7135 25.5324 75.6627C28.4819 77.6119 32.4047 78.1522 35.7702 77.0747C36.059 76.9821 36.3682 77.1423 36.4608 77.4313C36.5534 77.7203 36.3933 78.0297 36.1045 78.1224C34.8236 78.5307 33.4893 78.7318 32.1566 78.7318Z" fill="#2E3233"/>
<path d="M38.9023 86.6212C38.9007 86.6212 38.8991 86.6212 38.8976 86.6212C36.8051 86.6024 34.6986 85.6804 33.2654 84.1553C31.8322 82.6302 31.0395 80.4721 31.1463 78.38C31.162 78.0768 31.421 77.8444 31.7239 77.8585C32.0269 77.8742 32.2608 78.1334 32.2451 78.4365C32.1525 80.2349 32.8337 82.0899 34.0675 83.4014C35.3013 84.7129 37.1112 85.5045 38.9101 85.5202C39.2131 85.5233 39.458 85.7715 39.4548 86.0747C39.4501 86.3778 39.2037 86.6212 38.9023 86.6212Z" fill="#2E3233"/>
<path d="M82.8642 149.038C82.7669 149.038 82.6695 149.011 82.5832 148.961C65.6961 138.881 51.9673 123.46 43.924 105.54C40.659 98.2662 39.1913 92.2851 39.3028 86.7155C39.3656 83.5836 40.0029 81.1664 41.2492 79.3271C42.8802 76.9208 45.7324 75.6329 48.1858 76.1983C51.1903 76.8894 52.9138 79.836 54.2936 82.5438C58.86 91.5045 63.8784 100.952 70.5607 109.288C77.852 118.383 86.0507 124.727 94.9306 128.143C95.1065 128.211 95.2352 128.363 95.2729 128.549C95.3105 128.734 95.2493 128.924 95.1143 129.054C89.3613 134.553 85.3098 141.321 83.3979 148.63C83.3539 148.796 83.2346 148.934 83.0745 148.999C83.0055 149.024 82.9348 149.038 82.8642 149.038ZM46.9913 77.1627C45.2143 77.1627 43.3291 78.2166 42.1597 79.9428C41.0357 81.6014 40.4612 83.8239 40.4016 86.7375C40.2933 92.139 41.7311 97.9694 44.9255 105.089C52.7773 122.585 66.1136 137.671 82.5235 147.642C84.4857 140.668 88.3457 134.202 93.7392 128.853C84.9817 125.301 76.8992 118.953 69.702 109.974C62.9554 101.557 57.9071 92.0542 53.3141 83.0417C50.8983 78.2999 49.2721 77.5758 47.9394 77.2695C47.6317 77.1973 47.3131 77.1627 46.9913 77.1627Z" fill="#2E3233"/>
<path d="M76.1166 144.375C76.0663 144.375 76.0161 144.369 75.9659 144.354C75.6739 144.271 75.5044 143.968 75.5876 143.676C77.5952 136.603 81.7911 130.094 87.4013 125.348C87.6336 125.151 87.9805 125.181 88.1752 125.412C88.3714 125.645 88.3416 125.99 88.1108 126.187C82.6654 130.795 78.5936 137.112 76.644 143.976C76.5765 144.218 76.3567 144.375 76.1166 144.375Z" fill="#2E3233"/>
<path d="M112.145 152.117C110.675 152.117 109.244 151.674 107.99 151.209C104.827 150.037 101.846 148.429 99.13 146.426C98.8852 146.245 98.8334 145.901 99.0139 145.658C99.1944 145.413 99.5382 145.361 99.7815 145.542C102.414 147.483 105.304 149.043 108.371 150.178C109.832 150.719 111.545 151.231 113.173 150.924C113.609 150.843 113.928 150.714 114.146 150.532C114.367 150.348 114.491 150.081 114.457 149.866C114.408 149.564 114.064 149.289 113.809 149.109C112.672 148.303 111.372 147.805 109.996 147.276C109.431 147.059 108.848 146.836 108.282 146.589C105.191 145.25 102.417 143.173 100.262 140.585C100.067 140.352 100.099 140.005 100.332 139.81C100.566 139.616 100.912 139.647 101.106 139.881C103.153 142.339 105.784 144.309 108.718 145.581C109.263 145.817 109.836 146.037 110.39 146.249C111.769 146.778 113.196 147.324 114.444 148.21C114.86 148.506 115.427 148.98 115.541 149.688C115.639 150.293 115.374 150.94 114.848 151.377C114.482 151.682 114 151.886 113.375 152.003C112.966 152.082 112.554 152.117 112.145 152.117Z" fill="#2E3233"/>
<path d="M111.5 155.06C111.16 155.06 110.828 155.03 110.522 154.996C105.782 154.479 101.217 152.519 97.6726 149.473C97.4419 149.275 97.4152 148.928 97.613 148.697C97.8108 148.466 98.1577 148.44 98.3884 148.638C101.766 151.539 106.119 153.408 110.642 153.901C111.177 153.959 111.792 154.009 112.332 153.857C112.725 153.747 113.197 153.467 113.345 153.015C113.404 152.83 113.382 152.6 113.288 152.415C113.247 152.335 113.155 152.195 112.996 152.146C112.706 152.057 112.544 151.749 112.634 151.458C112.723 151.168 113.031 151.006 113.321 151.096C113.722 151.22 114.056 151.509 114.263 151.909C114.492 152.352 114.539 152.894 114.389 153.356C114.15 154.091 113.491 154.674 112.627 154.916C112.251 155.025 111.869 155.06 111.5 155.06Z" fill="#2E3233"/>
<path d="M108.688 157.655C106.527 157.655 104.218 157.094 101.814 155.982C99.5367 154.93 97.4395 153.521 95.4114 152.159C95.1587 151.989 95.0928 151.649 95.2607 151.396C95.4303 151.144 95.7709 151.077 96.0236 151.245C98.0172 152.583 100.077 153.965 102.276 154.983C104.707 156.108 107.02 156.632 109.151 156.544C109.688 156.522 110.358 156.449 110.768 156.068C110.941 155.908 111.046 155.638 111.033 155.396C111.027 155.293 110.997 155.151 110.883 155.068C110.638 154.887 110.588 154.543 110.766 154.3C110.947 154.056 111.291 154.005 111.534 154.184C111.89 154.447 112.102 154.856 112.129 155.335C112.16 155.904 111.925 156.493 111.514 156.874C110.842 157.498 109.922 157.612 109.195 157.642C109.029 157.65 108.859 157.655 108.688 157.655Z" fill="#2E3233"/>
<path d="M105.572 160.791C104.195 160.791 102.867 160.226 101.715 159.64C97.9162 157.711 94.5052 155.069 91.2072 152.516C88.7616 150.621 86.2312 148.663 83.5768 147.021C83.3193 146.861 83.2393 146.523 83.3978 146.264C83.5579 146.007 83.8954 145.925 84.1544 146.085C86.8591 147.756 89.4114 149.734 91.8806 151.645C95.1394 154.168 98.508 156.777 102.213 158.66C103.453 159.29 104.905 159.898 106.275 159.626C106.903 159.502 107.408 159.191 107.661 158.776C107.912 158.363 107.87 157.788 107.57 157.52C107.344 157.317 107.325 156.97 107.528 156.744C107.73 156.518 108.077 156.499 108.303 156.701C108.995 157.322 109.126 158.484 108.6 159.35C108.187 160.028 107.418 160.523 106.488 160.707C106.181 160.763 105.875 160.791 105.572 160.791Z" fill="#2E3233"/>
<path d="M109.851 143.926C109.813 143.926 109.774 143.923 109.736 143.913C107.716 143.481 105.649 143.355 103.591 143.539C103.288 143.566 103.021 143.343 102.994 143.04C102.968 142.737 103.191 142.47 103.494 142.443C105.661 142.25 107.838 142.382 109.965 142.836C110.262 142.898 110.452 143.191 110.388 143.487C110.333 143.748 110.105 143.926 109.851 143.926Z" fill="#2E3233"/>
<path d="M111.766 139.473C111.697 139.473 111.628 139.46 111.561 139.432L92.242 131.607C91.961 131.492 91.8244 131.172 91.939 130.891C92.052 130.609 92.3723 130.473 92.6548 130.587L111.973 138.412C112.254 138.527 112.391 138.848 112.276 139.129C112.188 139.342 111.983 139.473 111.766 139.473Z" fill="#2E3233"/>
<path d="M121.476 143.709C120.892 143.709 120.307 143.519 119.848 143.216C119.012 142.661 118.481 141.791 118.034 140.932C117.098 139.138 116.572 137.621 116.378 136.157C116.126 134.274 116.466 132.471 117.334 131.082C117.494 130.825 117.833 130.746 118.09 130.908C118.348 131.068 118.426 131.407 118.266 131.665C117.535 132.838 117.25 134.382 117.467 136.013C117.644 137.346 118.134 138.747 119.008 140.425C119.446 141.267 119.861 141.907 120.454 142.3C120.98 142.647 121.799 142.756 122.261 142.335C122.523 142.096 122.677 141.686 122.683 141.21C122.689 140.72 122.551 140.203 122.42 139.704L121.456 136.079C121.308 135.523 121.14 134.894 121.194 134.232C121.259 133.415 121.688 132.711 122.313 132.394C123.014 132.037 123.81 132.212 124.338 132.326L141.829 136.137C142.126 136.201 142.314 136.495 142.25 136.79C142.185 137.087 141.893 137.275 141.597 137.211L124.102 133.401C123.606 133.292 123.134 133.209 122.807 133.376C122.525 133.518 122.321 133.889 122.286 134.321C122.248 134.794 122.383 135.304 122.515 135.796L123.479 139.421C123.623 139.966 123.788 140.583 123.78 141.226C123.771 142.005 123.485 142.705 122.999 143.148C122.565 143.542 122.021 143.709 121.476 143.709Z" fill="#2E3233"/>
<path d="M117.861 142.564C117.561 142.564 117.254 142.504 116.957 142.379C116.202 142.06 115.69 141.436 115.328 140.927C113.193 137.926 112.838 133.682 114.447 130.368C114.579 130.094 114.909 129.981 115.182 130.113C115.455 130.245 115.568 130.575 115.436 130.848C113.998 133.812 114.314 137.605 116.222 140.29C116.635 140.869 116.993 141.201 117.382 141.366C117.736 141.515 118.247 141.51 118.5 141.208C118.695 140.976 119.042 140.946 119.274 141.141C119.506 141.336 119.536 141.683 119.341 141.915C118.991 142.336 118.444 142.564 117.861 142.564Z" fill="#2E3233"/>
<path d="M113.319 139.803C112.875 139.803 112.426 139.649 112.098 139.371C111.434 138.808 111.206 137.97 111.06 137.148C110.313 132.967 110.718 128.69 112.231 124.778C113.157 122.384 114.344 120.752 115.859 119.792C118.075 118.387 120.802 118.492 123.182 118.701C129.941 119.294 136.672 120.706 143.183 122.071C143.48 122.134 143.67 122.425 143.608 122.722C143.546 123.019 143.254 123.209 142.959 123.147C136.48 121.789 129.781 120.383 123.087 119.796C120.885 119.602 118.375 119.499 116.449 120.721C115.14 121.55 114.096 123.008 113.259 125.173C111.818 128.898 111.434 132.972 112.145 136.955C112.255 137.574 112.413 138.194 112.812 138.532C112.982 138.676 113.272 138.739 113.5 138.683C113.631 138.65 113.716 138.589 113.752 138.499C113.865 138.218 114.187 138.081 114.468 138.196C114.749 138.309 114.886 138.629 114.771 138.912C114.603 139.33 114.236 139.636 113.763 139.752C113.616 139.785 113.467 139.803 113.319 139.803Z" fill="#2E3233"/>
<path d="M60.4676 94.5533C60.3985 94.5533 60.3279 94.5408 60.2588 94.5125C59.9778 94.3963 59.8444 94.0758 59.959 93.7947C60.8616 91.5989 61.7956 89.3261 62.7578 86.8806C62.8285 86.7 62.9901 86.5712 63.1817 86.5398C63.3732 86.5084 63.5662 86.5806 63.6902 86.7298L66.905 90.5732C66.5644 88.0539 65.4719 85.6225 63.7938 83.7204C63.5929 83.4927 63.6149 83.1456 63.8425 82.9445C64.0701 82.7435 64.417 82.7655 64.618 82.9932C66.8344 85.5063 68.109 88.8691 68.1169 92.2209C68.1169 92.4518 67.9724 92.6591 67.7558 92.7392C67.5392 92.8177 67.2943 92.7533 67.1468 92.5759L63.4391 88.145C62.593 90.2748 61.772 92.2743 60.9731 94.2141C60.8899 94.4245 60.6842 94.5533 60.4676 94.5533Z" fill="#2E3233"/>
<path d="M72.015 111.785C71.7136 111.785 71.4687 111.542 71.4656 111.24C71.4075 104.81 69.9493 98.3276 67.2462 92.4926C67.1191 92.2177 67.2383 91.891 67.513 91.7622C67.7877 91.635 68.1143 91.7543 68.243 92.0292C71.0104 98.004 72.5048 104.643 72.5628 111.229C72.566 111.532 72.3211 111.78 72.0181 111.784C72.0181 111.785 72.0166 111.785 72.015 111.785Z" fill="#2E3233"/>
<path d="M68.6881 139.047C68.6787 139.047 68.6677 139.047 68.6583 139.046C58.7282 138.499 47.4717 137.88 38.4536 131.1C38.2449 130.943 38.1758 130.661 38.2872 130.426C42.1833 122.133 44.0607 113.31 43.7122 104.913C43.6997 104.61 43.9351 104.354 44.2381 104.342C44.5395 104.329 44.7969 104.565 44.8095 104.868C45.1579 113.302 43.3135 122.15 39.4708 130.484C48.1655 136.817 59.0767 137.415 68.7179 137.946C69.0209 137.963 69.2532 138.223 69.2359 138.526C69.2202 138.821 68.9769 139.047 68.6881 139.047Z" fill="#2E3233"/>
<path d="M62.3579 142.708C59.4523 142.708 56.5405 142.573 53.6522 142.184C46.568 141.227 40.7365 138.86 36.3209 135.147C36.1262 134.984 36.0697 134.709 36.1827 134.483L38.1747 130.463C38.3097 130.192 38.6393 130.08 38.9109 130.215C39.1825 130.35 39.2939 130.68 39.1589 130.952L37.36 134.58C41.5732 138 47.1017 140.191 53.7982 141.094C59.9264 141.921 66.2225 141.581 72.3115 141.251C72.6144 141.235 72.8735 141.468 72.8891 141.771C72.9048 142.074 72.6725 142.333 72.3696 142.349C69.0763 142.526 65.7218 142.708 62.3579 142.708Z" fill="#2E3233"/>
<path d="M22.1796 239.502C19.1108 239.502 15.9305 239.055 12.7519 238.145C8.97039 237.065 2.31319 234.338 0.206621 228.217C-1.01933 224.656 -0.554695 220.514 1.66646 215.182C4.57359 208.204 8.91545 201.823 13.116 195.654C18.1517 188.256 23.3585 180.607 25.9972 171.993C27.333 167.632 28.0064 163.015 28.6594 158.55C28.9357 156.657 29.2214 154.7 29.5542 152.783C30.5258 147.188 32.2039 140.043 36.6022 134.399C36.789 134.159 37.1344 134.117 37.373 134.304C37.6116 134.49 37.6555 134.836 37.4687 135.075C33.2211 140.527 31.587 147.502 30.6373 152.971C30.3076 154.873 30.022 156.824 29.7473 158.709C29.0895 163.215 28.4083 167.873 27.0489 172.315C24.3615 181.088 19.1077 188.807 14.0265 196.273C9.85729 202.397 5.54682 208.73 2.68365 215.605C0.572367 220.675 0.115577 224.568 1.24892 227.859C3.19381 233.507 9.48212 236.066 13.0564 237.087C21.3571 239.458 29.6421 238.594 35.7891 234.715C39.883 232.131 43.3866 227.975 45.9217 222.696C48.3265 217.687 49.6718 212.127 50.6701 207.348C53.8315 192.216 55.1956 176.707 54.7263 161.253C54.7169 160.95 54.9555 160.696 55.2584 160.688C55.5598 160.68 55.8157 160.917 55.8235 161.22C56.296 176.76 54.9241 192.356 51.7454 207.572C50.7329 212.416 49.3672 218.056 46.9122 223.172C44.2876 228.636 40.6443 232.949 36.3746 235.645C32.3326 238.199 27.4162 239.502 22.1796 239.502Z" fill="#2E3233"/>
<path d="M60.5636 230.755C58.6533 230.755 56.7963 230.542 55.1811 230.297C49.8409 229.489 46.7171 227.652 45.6277 224.678C45.5225 224.394 45.6701 224.077 45.9542 223.973C46.2383 223.869 46.5554 224.015 46.659 224.3C47.5977 226.862 50.4389 228.467 55.3443 229.21C62.3814 230.275 67.0074 229.401 69.8988 226.463C72.4166 223.904 73.156 219.988 73.5453 216.495C74.6959 206.209 74.0131 195.583 73.3522 185.308C72.4575 171.395 71.5329 157.008 75.1731 143.344C75.2516 143.051 75.5514 142.876 75.8449 142.955C76.1385 143.033 76.3127 143.335 76.2342 143.627C72.6395 157.116 73.5594 171.412 74.4479 185.237C75.1119 195.56 75.7978 206.234 74.6362 216.616C74.225 220.296 73.4323 224.435 70.6805 227.232C67.968 229.992 64.1709 230.755 60.5636 230.755Z" fill="#2E3233"/>
<path d="M17.5229 247.916C17.4915 247.916 17.4585 247.913 17.4255 247.907C17.1273 247.854 16.9279 247.568 16.9813 247.269C17.4726 244.525 17.8494 241.726 18.1021 238.949C18.1288 238.648 18.3972 238.423 18.6986 238.452C19 238.478 19.2229 238.747 19.1962 239.048C18.9403 241.855 18.5604 244.686 18.0628 247.461C18.0157 247.73 17.7834 247.916 17.5229 247.916Z" fill="#2E3233"/>
<path d="M22.7951 248.139C22.7292 248.139 22.6617 248.127 22.5973 248.102C22.3148 247.992 22.1735 247.673 22.2834 247.39L25.5877 238.854C25.6975 238.571 26.0162 238.43 26.2987 238.539C26.5813 238.649 26.7226 238.968 26.6127 239.251L23.3084 247.788C23.2237 248.006 23.0149 248.139 22.7951 248.139Z" fill="#2E3233"/>
<path d="M52.9719 241.098C52.9625 241.098 52.9546 241.098 52.9452 241.098C52.6422 241.084 52.4084 240.826 52.4225 240.523L52.9452 229.598C52.9593 229.294 53.2183 229.06 53.5197 229.075C53.8227 229.089 54.0566 229.346 54.0424 229.649L53.5197 240.575C53.5056 240.87 53.2639 241.098 52.9719 241.098Z" fill="#2E3233"/>
<path d="M57.4837 241.755C57.4351 241.755 57.3864 241.748 57.3378 241.734C57.0458 241.654 56.8731 241.351 56.9532 241.059L59.8964 230.312C59.9765 230.02 60.2794 229.847 60.5714 229.927C60.8634 230.008 61.036 230.311 60.956 230.603L58.0127 241.349C57.9468 241.594 57.7255 241.755 57.4837 241.755Z" fill="#2E3233"/>
<path d="M22.1679 251.642C20.0456 251.642 17.9139 251.59 15.8042 251.49C15.641 251.482 15.2595 251.463 15.0131 251.141C14.8812 250.967 14.8498 250.778 14.8341 250.676C14.6928 249.797 14.5814 248.829 14.7321 247.706C14.7682 247.439 14.9927 247.236 15.2627 247.228C18.096 247.155 20.9686 247.17 23.8019 247.272C24.0672 247.282 24.6166 247.302 24.9573 247.728C25.188 248.017 25.2131 248.367 25.2273 248.576L25.3623 250.492C25.3748 250.662 25.4015 251.058 25.1111 251.352C24.8505 251.615 24.5052 251.622 24.3388 251.625C23.6183 251.637 22.8931 251.642 22.1679 251.642ZM15.9031 250.393C18.6752 250.525 21.4866 250.571 24.2634 250.525L24.1316 248.653C24.1269 248.595 24.119 248.466 24.1002 248.417C24.0704 248.402 23.9887 248.38 23.7627 248.37C21.113 248.275 18.4288 248.256 15.7744 248.315C15.7273 249.021 15.7901 249.674 15.9031 250.393Z" fill="#2E3233"/>
<path d="M58.7158 245.553C58.6687 245.553 58.6279 245.549 58.5965 245.548L50.8687 245.055C50.7353 245.047 50.4575 245.028 50.233 244.825C49.9677 244.587 49.9457 244.252 49.9363 244.109C49.883 243.261 49.9002 242.388 49.9913 241.274C50.0148 240.985 50.2581 240.76 50.5485 240.77L58.4238 240.919C58.6671 240.924 59.1742 240.933 59.4944 241.334C59.7565 241.66 59.733 242.063 59.722 242.278L59.587 244.66C59.5791 244.802 59.5603 245.133 59.284 245.363C59.0925 245.526 58.8696 245.553 58.7158 245.553ZM51.0289 243.963L58.5007 244.441L58.6279 242.216C58.6295 242.182 58.6342 242.094 58.631 242.037C58.5918 242.03 58.5243 242.022 58.4066 242.02L51.0508 241.88C50.999 242.667 50.9927 243.328 51.0289 243.963Z" fill="#2E3233"/>
<path d="M51.1333 261.776C51.105 261.776 51.0752 261.774 51.0469 261.77C50.7471 261.723 50.5431 261.44 50.5902 261.14C50.755 260.1 50.226 258.916 49.2418 258.123C48.4224 257.461 47.2906 257.018 45.7837 256.769C43.1889 256.338 40.4544 256.553 37.8095 256.762C34.4518 257.028 30.9796 257.301 27.6847 256.28C26.3473 255.866 25.4039 255.328 24.7164 254.589C23.795 253.596 23.4512 252.231 23.8436 251.113C23.9441 250.827 24.2565 250.674 24.5437 250.775C24.8294 250.876 24.9817 251.19 24.8812 251.476C24.6269 252.203 24.8843 253.153 25.5217 253.839C26.0726 254.433 26.8638 254.874 28.0097 255.229C31.1036 256.187 34.3184 255.935 37.7231 255.666C40.434 255.452 43.236 255.231 45.9642 255.683C47.6626 255.966 48.9608 256.483 49.9324 257.267C51.218 258.303 51.904 259.891 51.678 261.313C51.6309 261.583 51.3986 261.776 51.1333 261.776Z" fill="#2E3233"/>
<path d="M15.4824 261.657C15.1841 261.657 14.9392 261.416 14.933 261.116C14.8733 257.725 14.9549 254.289 15.1763 250.904C15.1967 250.601 15.4573 250.371 15.7602 250.392C16.0632 250.412 16.2923 250.673 16.2719 250.976C16.0522 254.331 15.9706 257.736 16.0302 261.097C16.0349 261.401 15.7947 261.652 15.4902 261.657C15.4902 261.657 15.4871 261.657 15.4824 261.657Z" fill="#2E3233"/>
<path d="M51.4965 265.348C51.4934 265.348 51.4902 265.348 51.4871 265.348L24.3607 264.865C20.3171 264.793 16.1369 264.719 12.0258 264.426C11.8798 264.415 11.7448 264.347 11.649 264.236C11.5533 264.124 11.5062 263.98 11.5172 263.833C11.6145 262.594 11.7071 261.773 11.9238 260.981C11.9928 260.731 12.2236 260.563 12.4826 260.577C25.8503 261.278 39.3201 261.482 52.5184 261.182C52.6863 261.179 52.8449 261.251 52.9516 261.378C53.0584 261.507 53.1023 261.677 53.0694 261.84C52.8527 262.911 52.5011 263.956 51.9925 265.03C51.9015 265.225 51.7084 265.348 51.4965 265.348ZM12.6568 263.369C16.5607 263.628 20.5321 263.698 24.3779 263.767L51.1449 264.243C51.4353 263.59 51.6629 262.948 51.834 262.3C38.9858 262.575 25.8864 262.373 12.8797 261.702C12.7808 262.173 12.7165 262.69 12.6568 263.369Z" fill="#2E3233"/>
<path d="M21.2921 256.147C21.1021 256.147 20.9169 256.048 20.8149 255.87C20.6642 255.606 20.7552 255.27 21.019 255.119L24.1772 253.308C24.4409 253.158 24.7769 253.249 24.9276 253.513C25.0783 253.777 24.9872 254.113 24.7235 254.263L21.5652 256.074C21.4789 256.123 21.3847 256.147 21.2921 256.147Z" fill="#2E3233"/>
<path d="M23.1471 258.201C23.0011 258.201 22.8551 258.143 22.7468 258.028C22.5396 257.807 22.549 257.46 22.7704 257.251L25.5001 254.68C25.7214 254.473 26.0684 254.482 26.2771 254.703C26.4843 254.925 26.4749 255.272 26.2536 255.481L23.5238 258.052C23.4171 258.151 23.2821 258.201 23.1471 258.201Z" fill="#2E3233"/>
<path d="M25.7873 259.255C25.6743 259.255 25.5597 259.22 25.4624 259.148C25.2175 258.967 25.1657 258.623 25.3447 258.38L27.3335 255.674C27.514 255.429 27.8578 255.377 28.1011 255.556C28.346 255.737 28.3978 256.081 28.2188 256.324L26.23 259.03C26.1217 259.178 25.9553 259.255 25.7873 259.255Z" fill="#2E3233"/>
<path d="M85.4117 256.869C85.374 256.869 85.3348 256.866 85.2971 256.857C85.0004 256.794 84.8105 256.502 84.8748 256.205C85.3112 254.163 83.8404 252.123 82.1608 251.161C80.3007 250.096 78.0136 249.894 75.8207 249.831C72.901 249.749 69.9499 249.87 67.0459 250.192L66.6017 250.242C65.5233 250.365 64.4088 250.494 63.2864 250.42C61.7795 250.323 60.4939 249.854 59.5662 249.068C58.3999 248.078 57.852 246.576 58.1723 245.245C58.2429 244.949 58.5396 244.767 58.8347 244.838C59.1298 244.908 59.3119 245.205 59.2412 245.501C59.0215 246.419 59.4375 247.516 60.2773 248.229C61.2207 249.028 62.4733 249.265 63.3571 249.322C64.3821 249.388 65.4464 249.267 66.4761 249.149L66.925 249.099C69.8777 248.772 72.8806 248.648 75.8505 248.731C78.1878 248.797 80.635 249.02 82.7055 250.206C85.5043 251.808 86.3488 254.557 85.9485 256.434C85.8936 256.692 85.666 256.869 85.4117 256.869Z" fill="#2E3233"/>
<path d="M51.0072 254.787C50.9821 254.787 50.9554 254.785 50.9287 254.78C50.6289 254.738 50.4201 254.458 50.4625 254.158C50.9004 251.091 51.1579 247.965 51.2285 244.866C51.2348 244.563 51.4891 244.326 51.7905 244.329C52.0934 244.335 52.3336 244.588 52.3273 244.891C52.2551 248.033 51.993 251.202 51.5503 254.314C51.5126 254.589 51.2772 254.787 51.0072 254.787Z" fill="#2E3233"/>
<path d="M85.2077 260.237C85.1952 260.237 85.181 260.237 85.1685 260.235L50.6911 257.79C50.3598 257.766 49.9062 257.735 49.5169 257.463C48.8419 256.992 48.8043 256.175 48.7713 255.454C48.7603 255.226 48.7509 254.992 48.7226 254.764C48.7038 254.604 48.754 254.444 48.8623 254.326C48.9706 254.208 49.1245 254.141 49.2862 254.149C61.3605 254.577 73.9434 255.379 86.6848 256.531C86.8701 256.549 87.0333 256.657 87.1196 256.82C87.2075 256.984 87.206 257.18 87.1165 257.343L85.6865 259.951C85.5923 260.128 85.4071 260.237 85.2077 260.237ZM49.8638 255.269C49.8654 255.314 49.8685 255.358 49.8701 255.404C49.8984 256.024 49.9313 256.41 50.1464 256.56C50.2861 256.657 50.5435 256.676 50.7695 256.692L84.8953 259.112L85.7524 257.549C73.5321 256.461 61.4656 255.693 49.8638 255.269Z" fill="#2E3233"/>
<path d="M56.9059 251.182C56.7269 251.182 56.5495 251.094 56.4444 250.932C56.2795 250.678 56.3502 250.337 56.6045 250.172L59.5116 248.278C59.7659 248.113 60.1065 248.183 60.2713 248.438C60.4362 248.692 60.3655 249.033 60.1112 249.198L57.2025 251.092C57.1131 251.154 57.0095 251.182 56.9059 251.182Z" fill="#2E3233"/>
<path d="M59.2168 252.92C59.0834 252.92 58.95 252.872 58.8448 252.774C58.6219 252.569 58.6078 252.222 58.8134 251.997C59.5779 251.168 60.2591 250.257 60.8384 249.288C60.9938 249.027 61.3313 248.942 61.5918 249.098C61.8524 249.253 61.9372 249.591 61.7818 249.851C61.1633 250.885 60.4365 251.857 59.6218 252.741C59.512 252.861 59.3644 252.92 59.2168 252.92Z" fill="#2E3233"/>
<path d="M62.2494 253.299C62.1991 253.299 62.1489 253.293 62.0987 253.277C61.8067 253.194 61.6372 252.889 61.7204 252.597L62.5115 249.82C62.5947 249.528 62.8992 249.358 63.1912 249.442C63.4832 249.525 63.6527 249.83 63.5695 250.122L62.7784 252.899C62.7093 253.142 62.488 253.299 62.2494 253.299Z" fill="#2E3233"/>
<path d="M72.1327 66.2594C71.9475 66.2594 71.7685 66.1667 71.6634 65.9971C71.5048 65.7379 71.5849 65.4002 71.8439 65.2416L75.7447 62.8447L71.8392 58.9683C71.6241 58.7547 71.6226 58.406 71.836 58.1909C72.0495 57.9757 72.398 57.9741 72.6131 58.1877L76.5248 62.0704C76.6582 62.2039 77.013 62.5557 76.9235 63.0458C76.8482 63.4589 76.4997 63.6725 76.3506 63.7651L72.42 66.1808C72.3305 66.2327 72.2316 66.2594 72.1327 66.2594ZM75.853 62.9657H75.8545H75.853Z" fill="#2E3233"/>
<path d="M69.4891 70.9335C68.1282 70.9335 66.7594 70.4136 65.7642 69.4854C64.5508 68.3545 63.904 66.6252 64.0736 64.976C64.105 64.6744 64.3765 64.4545 64.6763 64.4859C64.9777 64.5173 65.1975 64.7875 65.1661 65.0891C65.0311 66.4037 65.5475 67.7812 66.5129 68.6827C67.4799 69.5843 68.8879 70.0037 70.1892 69.7759C70.4891 69.7241 70.7732 69.9236 70.825 70.2236C70.8768 70.522 70.6774 70.8079 70.3776 70.8597C70.0856 70.9084 69.7874 70.9335 69.4891 70.9335Z" fill="#2E3233"/>
<path d="M108.584 146.37C108.499 146.37 108.413 146.349 108.333 146.308C108.063 146.168 107.958 145.837 108.096 145.569L111.433 139.094C111.573 138.824 111.904 138.719 112.172 138.857C112.442 138.997 112.548 139.328 112.409 139.597L109.072 146.071C108.977 146.261 108.783 146.37 108.584 146.37Z" fill="#2E3233"/>
<path d="M111.4 207.494C111.24 207.494 111.085 207.423 110.98 207.297L90.5778 182.98C90.4413 182.817 90.4099 182.589 90.5009 182.396L101.252 159.229C101.379 158.954 101.707 158.834 101.982 158.962C102.257 159.089 102.376 159.417 102.249 159.692L91.6437 182.542L111.19 205.838L131.665 144.347L121.665 135.15C121.442 134.945 121.426 134.597 121.632 134.373C121.837 134.15 122.184 134.134 122.409 134.34L132.672 143.776C132.832 143.923 132.89 144.15 132.821 144.354L111.923 207.117C111.86 207.305 111.7 207.445 111.504 207.483C111.468 207.491 111.433 207.494 111.4 207.494Z" fill="#2E3233"/>
<path d="M123.281 208.128C123.055 208.128 122.851 207.99 122.77 207.776L119.175 198.426L111.868 207.285C111.675 207.519 111.328 207.552 111.094 207.359C110.86 207.165 110.827 206.818 111.02 206.584L118.927 197C119.051 196.849 119.246 196.775 119.439 196.807C119.632 196.838 119.793 196.97 119.862 197.152L123.087 205.538L134.015 143.921L123.291 133.25C123.076 133.036 123.074 132.687 123.289 132.472C123.503 132.257 123.851 132.256 124.066 132.471L134.993 143.344C135.12 143.472 135.178 143.652 135.147 143.83L123.824 207.674C123.782 207.918 123.581 208.102 123.336 208.125C123.316 208.127 123.299 208.128 123.281 208.128Z" fill="#2E3233"/>
<path d="M101.702 195.125C101.622 195.125 101.54 195.107 101.462 195.07C101.189 194.938 101.076 194.608 101.207 194.335C104.033 188.509 105.766 182.837 106.358 177.48C107.042 171.274 106.212 165.313 103.954 160.243C103.83 159.965 103.956 159.642 104.232 159.518C104.51 159.394 104.833 159.519 104.957 159.796C107.293 165.043 108.155 171.2 107.449 177.601C106.844 183.084 105.075 188.877 102.195 194.815C102.101 195.01 101.906 195.125 101.702 195.125Z" fill="#2E3233"/>
<path d="M97.428 190.6C97.3134 190.6 97.1988 190.563 97.0999 190.49C96.8566 190.307 96.8063 189.963 96.9884 189.72C100.1 185.548 103.526 182.398 107.17 180.354C111.562 177.891 116.381 176.996 120.738 177.833C121.037 177.89 121.231 178.179 121.175 178.477C121.117 178.776 120.829 178.97 120.531 178.914C116.428 178.125 111.873 178.978 107.707 181.315C104.197 183.283 100.886 186.334 97.8675 190.381C97.7607 190.523 97.5944 190.6 97.428 190.6Z" fill="#2E3233"/>
<path d="M178.355 148.744C178.338 148.744 178.319 148.743 178.3 148.741L141.214 145.083C140.914 145.053 140.693 144.788 140.721 144.486L143.054 118.655C143.08 118.357 143.341 118.134 143.639 118.156L180.008 120.67C180.311 120.691 180.539 120.953 180.518 121.256C180.498 121.559 180.234 121.789 179.933 121.767L144.101 119.288L141.866 144.04L178.41 147.645C178.712 147.675 178.933 147.943 178.903 148.247C178.873 148.532 178.635 148.744 178.355 148.744Z" fill="#2E3233"/>
<path d="M150.542 145.905C150.525 145.905 150.508 145.905 150.491 145.901C150.189 145.873 149.966 145.606 149.995 145.303L152.414 119.275C152.442 118.974 152.709 118.751 153.012 118.779C153.313 118.807 153.536 119.074 153.508 119.378L151.089 145.405C151.062 145.691 150.823 145.905 150.542 145.905Z" fill="#2E3233"/>
<path d="M174.405 157.793C174.305 157.793 174.203 157.765 174.11 157.707C173.854 157.543 173.779 157.204 173.941 156.948C185.053 139.465 180.18 120.416 178.268 116.272C178.141 115.998 178.262 115.671 178.537 115.542C178.813 115.415 179.138 115.536 179.267 115.811C180.227 117.892 182.056 123.9 182.102 131.745C182.139 138.26 180.916 148.023 174.868 157.539C174.765 157.703 174.587 157.793 174.405 157.793Z" fill="#2E3233"/>
<path d="M175.927 169.502C175.81 169.502 175.692 169.465 175.591 169.386C175.351 169.199 175.309 168.855 175.494 168.615C180.696 161.911 184.264 153.997 186.096 145.091C188.039 135.65 187.512 127.654 186.729 122.609C185.545 114.983 182.96 108.974 179.983 106.927C179.734 106.756 179.67 106.413 179.842 106.162C180.015 105.912 180.355 105.848 180.607 106.021C183.823 108.234 186.586 114.524 187.815 122.439C188.612 127.573 189.147 135.709 187.173 145.311C185.306 154.383 181.669 162.45 176.362 169.289C176.254 169.429 176.091 169.502 175.927 169.502Z" fill="#2E3233"/>
<path d="M179.444 263.38C178.523 263.38 177.705 262.437 177.545 262.241C176.929 261.6 160.333 244.33 157.793 242.607C155.008 240.719 155.473 238.246 155.558 237.888L168.459 147.744C168.502 147.444 168.781 147.235 169.081 147.277C169.381 147.32 169.589 147.599 169.547 147.899L156.641 238.071C156.638 238.095 156.633 238.117 156.627 238.139C156.606 238.217 156.137 240.156 158.41 241.696C161.08 243.507 177.65 260.761 178.355 261.495C178.367 261.507 178.378 261.52 178.388 261.532C178.681 261.898 179.249 262.357 179.51 262.267C179.574 262.245 180.136 261.982 180.198 259.39C180.198 259.373 180.199 259.355 180.201 259.34L206.583 32.4144C206.585 32.4066 206.585 32.3987 206.586 32.3909C206.641 32.0312 206.646 31.1626 206.296 30.9317C205.987 30.7276 205.254 30.9443 204.335 31.5129C204.329 31.516 204.323 31.5207 204.316 31.5239L185.546 42.1227C185.514 42.14 185.483 42.1542 185.448 42.1652C185.392 42.1856 183.874 42.773 183.557 45.6709L173.314 120.532C173.274 120.834 172.996 121.042 172.696 121.002C172.394 120.961 172.186 120.683 172.227 120.383L182.467 45.5358C182.832 42.2044 184.67 41.295 185.04 41.1442L203.767 30.5705C205.153 29.7145 206.18 29.5323 206.905 30.016C207.914 30.6883 207.709 32.3108 207.672 32.5511L181.293 259.442C181.235 261.771 180.78 262.999 179.859 263.31C179.72 263.358 179.581 263.38 179.444 263.38Z" fill="#2E3233"/>
<path d="M184.943 271.106C183.499 271.106 181.885 270.317 180.127 268.748C172.106 261.589 156.101 244.635 155.297 243.782C154.933 243.493 152.811 241.605 153.44 237.298C154.099 232.797 166.299 148.152 166.423 147.298C166.467 146.998 166.747 146.789 167.045 146.833C167.345 146.877 167.554 147.155 167.51 147.455C167.387 148.309 155.186 232.956 154.526 237.459C153.953 241.367 155.906 242.868 155.989 242.931C156.014 242.95 156.043 242.975 156.065 242.998C156.23 243.174 172.704 260.653 180.857 267.93C182.84 269.7 184.527 270.342 185.869 269.843C188.136 268.998 189.136 264.944 189.33 263.453C189.593 261.275 215.639 44.9608 216.596 34.8033C216.978 30.7542 216.014 27.7982 213.809 26.2589C211.803 24.8579 209.282 25.0008 208.131 25.5505C201.965 28.4971 184.687 39.9661 184.513 40.0824C184.491 40.0965 184.467 40.1106 184.444 40.1216C182.289 41.1441 181.577 44.042 181.521 44.287L171.079 120.523C171.038 120.824 170.76 121.033 170.461 120.992C170.159 120.951 169.951 120.673 169.991 120.373L180.436 44.1143C180.438 44.1017 180.441 44.0891 180.443 44.0766C180.474 43.9289 181.231 40.4577 183.937 39.1462C185.014 38.4316 201.496 27.5044 207.657 24.5594C209.28 23.7835 212.208 23.8008 214.437 25.3573C216.213 26.5982 218.221 29.2636 217.689 34.907C216.731 45.0786 190.683 261.407 190.42 263.59C190.387 263.841 189.597 269.628 186.252 270.873C185.835 271.029 185.397 271.106 184.943 271.106Z" fill="#2E3233"/>
<path d="M188.907 43.6635C188.51 43.6635 188.173 43.5661 187.892 43.3714C187.174 42.875 187.215 41.9955 187.221 41.8981L187.35 39.9269L199.316 33.2013C199.446 33.1086 199.613 33.0741 199.776 33.1149C200.206 33.2233 200.241 33.6584 200.269 34.0086C200.303 34.439 200.317 35.1505 200.313 36.1275C200.3 38.4913 198.98 39.1871 198.271 39.5594L198.167 39.6143C196.197 40.6698 193.949 41.7049 190.836 43.1389C190.078 43.4892 189.439 43.6635 188.907 43.6635ZM188.408 40.5944L188.318 41.9735C188.318 41.9735 188.309 42.3285 188.521 42.4714C188.629 42.5452 189.086 42.7384 190.378 42.1431C193.473 40.717 195.71 39.6866 197.651 38.6468L197.76 38.5887C198.404 38.2494 199.206 37.8269 199.216 36.1227C199.22 35.3751 199.211 34.8694 199.2 34.5301L188.408 40.5944Z" fill="#2E3233"/>
<path d="M67.1508 59.5052C67.5303 58.3865 67.3887 57.327 66.8346 57.1388C66.2805 56.9506 65.5237 57.705 65.1442 58.8237C64.7647 59.9425 64.9062 61.002 65.4603 61.1901C66.0144 61.3783 66.7713 60.624 67.1508 59.5052Z" fill="#2E3233"/>
<path d="M75.4582 59.4632C75.6169 58.5989 75.3654 57.8284 74.8964 57.7422C74.4275 57.656 73.9187 58.2867 73.76 59.151C73.6013 60.0152 73.8528 60.7857 74.3218 60.8719C74.7907 60.9581 75.2995 60.3274 75.4582 59.4632Z" fill="#2E3233"/>
<path d="M174.206 211.384C174.14 211.384 174.073 211.38 174.005 211.369C172.07 211.073 171.695 206.74 172.323 202.612C172.648 200.485 173.211 198.517 173.913 197.072C174.928 194.98 175.898 194.658 176.537 194.754C177.175 194.851 178.007 195.45 178.352 197.749C178.59 199.339 178.543 201.384 178.22 203.511C177.613 207.497 176.055 211.384 174.206 211.384ZM176.344 195.839C176.117 195.839 175.564 196.188 174.903 197.553C174.249 198.902 173.718 200.757 173.41 202.779C172.698 207.45 173.541 210.186 174.172 210.283C174.184 210.285 174.197 210.286 174.211 210.286C174.867 210.286 176.437 207.927 177.135 203.347C177.443 201.326 177.49 199.397 177.267 197.914C177.032 196.347 176.58 195.874 176.374 195.843C176.365 195.841 176.354 195.839 176.344 195.839Z" fill="#2E3233"/>
<path d="M177.471 204.652C177.348 204.652 177.224 204.612 177.122 204.527C175.962 203.573 174.576 202.887 173.115 202.541C172.82 202.472 172.636 202.176 172.707 201.88C172.776 201.585 173.072 201.401 173.367 201.472C174.992 201.855 176.532 202.618 177.821 203.679C178.055 203.872 178.089 204.217 177.896 204.453C177.788 204.585 177.629 204.652 177.471 204.652Z" fill="#2E3233"/>
<path d="M167.053 235.28C166.904 235.28 166.756 235.221 166.648 235.101C166.444 234.877 166.458 234.53 166.682 234.325C170.009 231.28 173.391 228.387 177.328 225.219C177.564 225.029 177.911 225.066 178.101 225.302C178.29 225.539 178.253 225.885 178.017 226.075C174.099 229.229 170.734 232.108 167.425 235.137C167.32 235.233 167.186 235.28 167.053 235.28Z" fill="#2E3233"/>
<path d="M189.623 181.859C189.535 181.859 189.445 181.837 189.362 181.793C188.58 181.37 187.731 180.937 186.832 180.48C185.612 179.859 184.351 179.217 183.094 178.515C182.829 178.367 182.735 178.033 182.882 177.767C183.03 177.502 183.364 177.406 183.629 177.554C184.869 178.245 186.121 178.882 187.331 179.498C188.235 179.96 189.09 180.395 189.885 180.824C190.152 180.968 190.25 181.301 190.108 181.568C190.007 181.754 189.819 181.859 189.623 181.859Z" fill="#2E3233"/>
<path d="M169.202 237.288C168.536 237.288 167.932 237.115 167.423 236.749C165.314 235.233 165.792 231.076 168.514 227.284C171.235 223.492 175.019 221.708 177.127 223.224C179.237 224.74 178.758 228.897 176.036 232.689C173.972 235.566 171.296 237.288 169.202 237.288ZM175.336 223.778C173.638 223.778 171.221 225.398 169.408 227.925C167.125 231.105 166.51 234.738 168.065 235.855C169.621 236.973 172.862 235.228 175.146 232.048C177.429 228.867 178.044 225.234 176.489 224.118C176.167 223.888 175.776 223.778 175.336 223.778Z" fill="#2E3233"/>
<path d="M188.689 189.821C188.669 189.821 188.648 189.819 188.627 189.817C186.54 189.582 184.858 188.415 183.76 186.441C182.808 184.727 182.36 182.486 182.497 180.128C182.647 177.546 183.467 175.13 184.806 173.325C186.349 171.246 188.443 170.146 190.867 170.146C190.878 170.146 190.889 170.146 190.899 170.146C191.202 170.148 191.447 170.395 191.447 170.698C191.446 171.001 191.201 171.246 190.898 171.246C190.889 171.246 190.878 171.246 190.868 171.246C188.264 171.246 186.616 172.732 185.69 173.98C184.495 175.592 183.732 177.855 183.596 180.192C183.47 182.344 183.87 184.374 184.723 185.907C185.361 187.058 186.58 188.481 188.751 188.726C189.052 188.76 189.269 189.032 189.236 189.334C189.203 189.612 188.966 189.821 188.689 189.821Z" fill="#2E3233"/>
<path d="M182.527 89.3999C182.343 89.3999 182.163 89.3073 182.059 89.1392C181.899 88.8816 181.979 88.5424 182.238 88.3822C183.644 87.5136 185.473 87.3518 187.01 87.9628C187.292 88.0743 187.429 88.3947 187.318 88.6759C187.206 88.9586 186.886 89.0952 186.605 88.9837C185.384 88.4984 183.933 88.6272 182.816 89.3167C182.725 89.3732 182.626 89.3999 182.527 89.3999Z" fill="#2E3233"/>
<path d="M183.54 71.3562C183.436 71.3562 183.331 71.3263 183.239 71.2651C181.452 70.0871 180.328 68.0232 180.305 65.8824C180.302 65.5792 180.545 65.3295 180.848 65.3264C181.152 65.3279 181.4 65.5667 181.404 65.8698C181.422 67.6243 182.38 69.3803 183.843 70.3462C184.096 70.5127 184.166 70.8535 184 71.108C183.893 71.2682 183.719 71.3562 183.54 71.3562Z" fill="#2E3233"/>
<path d="M196.307 50.3672C196.082 50.3672 195.872 50.229 195.79 50.0044C195.368 48.8421 194.371 47.895 193.189 47.5306C192.899 47.441 192.736 47.1332 192.825 46.8442C192.915 46.5536 193.222 46.3918 193.511 46.4798C195.015 46.9416 196.285 48.1478 196.822 49.629C196.925 49.9148 196.778 50.229 196.494 50.3342C196.433 50.3578 196.368 50.3672 196.307 50.3672Z" fill="#2E3233"/>
<path d="M221.693 189.362C222.17 181.902 227.167 174.914 234.066 172.044C240.965 169.175 249.433 170.554 255.075 175.456C260.717 180.358 263.267 188.547 261.421 195.791C259.575 203.035 253.422 208.999 246.129 210.626C238.836 212.253 230.741 209.476 225.972 203.721C222.954 200.078 221.32 195.205 221.693 189.362Z" fill="#4B7442"/>
<path d="M218.5 222.207C222.854 218.575 227.088 214.799 231.19 210.884C233.565 215.596 238.506 218.38 241.958 222.37C242.393 222.873 242.823 223.433 242.903 224.094C243.077 225.532 241 227.665 239.806 228.48C237.034 230.371 238.379 230.039 236.307 232.025C235.734 232.573 232.7 236.192 231.91 236.126C231.428 236.085 231.048 235.714 230.714 235.364C226.592 231.067 222.471 226.769 218.5 222.207Z" fill="#4B7442"/>
<path d="M250.941 219.073C257.368 212.318 263.793 205.562 270.219 198.805C275.227 204.937 280.234 211.067 285.241 217.199C279.397 224.201 273.159 230.875 266.568 237.178C261.532 231.061 256.497 224.941 250.941 219.073Z" fill="#4B7442"/>
<path d="M240.125 246.827L235.477 233.512L237.423 231.134L241.457 240.626L241.638 226.87L243.991 223.857L244.278 240.896L255.511 225.314L257.636 226.499L244.502 246.364L240.125 246.827Z" fill="#FFCBC7"/>
<path d="M241.397 210.816L244.162 210.94L244.158 224.096L241.109 222.166L241.397 210.816Z" fill="#FFCBC7"/>
<path d="M231.614 264.125C230.231 258.286 228.848 252.448 227.465 246.61C232.926 247.369 238.464 247.311 243.978 247.251C249.595 247.19 255.213 247.128 260.829 247.069C259.151 252.327 257.895 257.719 257.078 263.177C257.026 263.521 256.965 263.891 256.718 264.136C256.392 264.462 255.867 264.451 255.407 264.418C247.361 263.861 239.293 263.622 231.614 264.125Z" fill="#B8BABB"/>
<path d="M266.798 237.819C266.793 237.819 266.79 237.819 266.785 237.819C266.632 237.816 266.486 237.747 266.384 237.631L250.463 219.328C250.277 219.114 250.285 218.794 250.479 218.588L269.625 198.455C269.732 198.342 269.879 198.279 270.038 198.284C270.193 198.289 270.339 198.358 270.441 198.477L286.22 216.992C286.402 217.207 286.394 217.525 286.2 217.729L267.195 237.65C267.092 237.758 266.947 237.819 266.798 237.819ZM251.62 218.984L266.815 236.454L285.062 217.328L270 199.655L251.62 218.984Z" fill="#2E3233"/>
<path d="M232.269 237.129C232.126 237.129 231.989 237.075 231.886 236.974L217.557 223.058C217.449 222.953 217.388 222.807 217.391 222.654C217.394 222.502 217.458 222.359 217.571 222.257L230.529 210.489C230.751 210.288 231.091 210.301 231.297 210.518L243.929 223.848C244.126 224.057 244.129 224.384 243.936 224.597L232.674 236.95C232.573 237.06 232.433 237.125 232.284 237.129C232.28 237.129 232.273 237.129 232.269 237.129ZM218.742 222.678L232.243 235.791L242.779 224.234L230.87 211.666L218.742 222.678Z" fill="#2E3233"/>
<path d="M241.745 211.518C230.232 211.518 220.867 202.148 220.867 190.628C220.867 179.109 230.232 169.738 241.745 169.738C253.257 169.738 262.622 179.109 262.622 190.628C262.622 202.148 253.257 211.518 241.745 211.518ZM241.745 170.838C230.838 170.838 221.966 179.715 221.966 190.628C221.966 201.541 230.838 210.419 241.745 210.419C252.651 210.419 261.523 201.541 261.523 190.628C261.523 179.715 252.651 170.838 241.745 170.838Z" fill="#2E3233"/>
<path d="M256.926 264.926C256.924 264.926 256.924 264.926 256.926 264.926L231.564 264.908C231.313 264.908 231.093 264.737 231.032 264.492L226.665 247.075C226.624 246.91 226.66 246.736 226.765 246.602C226.869 246.469 227.029 246.39 227.199 246.39L260.995 246.423C261.163 246.423 261.321 246.5 261.425 246.632C261.528 246.764 261.568 246.935 261.53 247.099L257.464 264.5C257.402 264.75 257.18 264.926 256.926 264.926ZM231.992 263.809L256.49 263.826L260.299 247.524L227.9 247.491L231.992 263.809Z" fill="#2E3233"/>
<path d="M241.159 222.241C241.157 222.241 241.154 222.241 241.153 222.241C240.85 222.238 240.606 221.988 240.609 221.685L240.738 210.983C240.741 210.681 240.988 210.439 241.288 210.439C241.289 210.439 241.292 210.439 241.294 210.439C241.597 210.442 241.84 210.692 241.837 210.995L241.708 221.698C241.704 221.999 241.459 222.241 241.159 222.241Z" fill="#2E3233"/>
<path d="M241.235 241.772C241.005 241.772 240.793 241.626 240.716 241.4L237.19 231.09C237.091 230.803 237.245 230.49 237.532 230.393C237.82 230.294 238.132 230.448 238.229 230.735L240.714 238.001L240.815 226.768C240.818 226.466 241.063 226.223 241.364 226.223C241.366 226.223 241.367 226.223 241.369 226.223C241.672 226.226 241.917 226.474 241.913 226.777L241.785 241.227C241.782 241.496 241.587 241.722 241.323 241.765C241.295 241.771 241.265 241.772 241.235 241.772Z" fill="#2E3233"/>
<path d="M239.719 247.248C239.487 247.248 239.27 247.099 239.197 246.865L234.971 233.566C234.88 233.277 235.038 232.967 235.329 232.875C235.618 232.782 235.927 232.942 236.02 233.231L240.245 246.53C240.336 246.819 240.178 247.128 239.887 247.221C239.831 247.24 239.774 247.248 239.719 247.248Z" fill="#2E3233"/>
<path d="M244.049 241.634C243.991 241.634 243.932 241.625 243.875 241.606C243.649 241.531 243.498 241.319 243.5 241.08L243.737 211.115C243.74 210.813 243.985 210.57 244.286 210.57C244.288 210.57 244.29 210.57 244.291 210.57C244.594 210.573 244.839 210.819 244.836 211.124L244.613 239.405L255.397 224.872C255.577 224.629 255.921 224.577 256.166 224.759C256.409 224.94 256.461 225.284 256.279 225.529L244.491 241.414C244.385 241.554 244.221 241.634 244.049 241.634Z" fill="#2E3233"/>
<path d="M244.1 247.361C243.992 247.361 243.884 247.329 243.788 247.263C243.538 247.091 243.476 246.748 243.648 246.499L257.137 226.941C257.143 226.931 257.149 226.922 257.157 226.912C257.341 226.678 257.683 226.626 257.922 226.804C258.237 227.036 258.162 227.332 258.038 227.563L258.043 227.566L258.01 227.614C257.974 227.676 257.936 227.731 257.904 227.778C257.807 227.922 257.663 228.134 257.478 228.403C257.11 228.94 256.584 229.705 255.952 230.622C254.688 232.457 253.001 234.902 251.312 237.346C247.935 242.236 244.556 247.122 244.556 247.122C244.447 247.278 244.275 247.361 244.1 247.361Z" fill="#2E3233"/>
<path d="M232.077 199.123C231.474 199.123 230.917 198.901 230.52 198.494C230.066 198.029 229.856 197.362 229.945 196.661C229.96 196.547 229.982 196.434 230.011 196.325C229.85 196.308 229.688 196.277 229.528 196.228C228.817 196.011 228.244 195.504 227.994 194.869C227.745 194.235 227.82 193.471 228.195 192.831C228.206 192.812 228.217 192.793 228.228 192.774C227.875 192.623 227.558 192.384 227.326 192.067C226.704 191.221 226.754 189.955 227.44 189.119C228.087 188.331 229.206 187.99 230.226 188.269C230.518 188.349 230.691 188.653 230.611 188.945C230.531 189.237 230.23 189.41 229.936 189.329C229.338 189.165 228.66 189.366 228.289 189.818C227.919 190.269 227.884 190.971 228.213 191.417C228.435 191.72 228.836 191.885 229.206 191.865C229.416 191.758 229.643 191.684 229.872 191.653C230.129 191.616 230.376 191.766 230.465 192.009C230.553 192.254 230.459 192.526 230.239 192.664C230.032 192.793 229.804 192.879 229.567 192.925C229.402 193.038 229.255 193.195 229.145 193.385C228.938 193.738 228.891 194.144 229.018 194.469C229.145 194.794 229.456 195.058 229.848 195.177C230.214 195.287 230.589 195.254 230.87 195.089C230.9 195.069 230.93 195.05 230.961 195.031C231.215 194.877 231.545 194.952 231.707 195.202C231.868 195.45 231.802 195.783 231.559 195.953C231.531 195.972 231.503 195.992 231.473 196.01C231.24 196.178 231.08 196.468 231.038 196.801C230.992 197.162 231.093 197.508 231.308 197.728C231.523 197.948 231.865 198.056 232.228 198.018C232.589 197.981 232.903 197.803 233.068 197.544C233.231 197.288 233.57 197.213 233.826 197.374C234.082 197.538 234.159 197.877 233.995 198.133C233.647 198.681 233.046 199.038 232.342 199.112C232.251 199.118 232.163 199.123 232.077 199.123Z" fill="#2E3233"/>
<path d="M240.93 206.227C240.096 206.227 239.286 205.776 238.905 205.045C238.402 204.086 238.773 202.801 239.697 202.295C239.963 202.149 240.297 202.248 240.443 202.514C240.589 202.781 240.49 203.114 240.225 203.26C239.82 203.481 239.65 204.102 239.878 204.535C240.109 204.976 240.715 205.225 241.23 205.088C241.751 204.95 242.181 204.453 242.278 203.88C242.324 203.607 242.565 203.41 242.842 203.423C243.118 203.434 243.342 203.649 243.368 203.924C243.391 204.191 243.557 204.458 243.815 204.642C244.072 204.824 244.38 204.895 244.639 204.829C244.898 204.763 245.137 204.555 245.275 204.273C245.413 203.99 245.433 203.674 245.327 203.429C245.215 203.17 245.316 202.87 245.562 202.732C245.807 202.594 246.118 202.663 246.279 202.894C246.604 203.352 247.356 203.497 247.829 203.192C248.3 202.886 248.475 202.14 248.19 201.656C248.036 201.395 248.122 201.058 248.383 200.904C248.643 200.75 248.981 200.835 249.135 201.097C249.728 202.099 249.403 203.481 248.427 204.116C247.829 204.504 247.075 204.554 246.425 204.317C246.386 204.467 246.331 204.617 246.261 204.761C245.976 205.338 245.484 205.752 244.909 205.898C244.333 206.044 243.702 205.914 243.179 205.542C243.057 205.454 242.944 205.356 242.843 205.251C242.506 205.688 242.041 206.015 241.514 206.154C241.321 206.203 241.124 206.227 240.93 206.227Z" fill="#2E3233"/>
<path d="M255.332 187.782C255.255 187.782 255.179 187.778 255.103 187.77C254.801 187.738 254.581 187.467 254.614 187.165C254.646 186.863 254.917 186.645 255.219 186.677C255.694 186.727 256.208 186.439 256.413 186.009C256.619 185.579 256.522 184.997 256.184 184.658C255.858 184.33 255.303 184.225 254.876 184.404C254.858 184.413 254.837 184.423 254.817 184.43C254.541 184.548 254.222 184.424 254.099 184.151C253.977 183.878 254.095 183.556 254.366 183.428C254.385 183.419 254.406 183.41 254.426 183.402C254.928 183.157 255.209 182.461 255.004 181.939C254.793 181.404 254.084 181.083 253.544 181.278C252.949 181.493 252.567 182.159 252.199 182.883C252.06 183.154 251.729 183.26 251.459 183.122C251.189 182.984 251.082 182.652 251.221 182.382C251.676 181.492 252.2 180.593 253.172 180.243C254.266 179.847 255.602 180.452 256.027 181.536C256.252 182.104 256.201 182.748 255.949 183.296C256.327 183.4 256.682 183.596 256.964 183.882C257.635 184.556 257.815 185.626 257.405 186.483C257.027 187.272 256.197 187.782 255.332 187.782Z" fill="#2E3233"/>
<path d="M241.57 194.88C240.897 194.88 240.241 194.585 239.842 194.071C239.621 193.785 239.494 193.445 239.456 193.099C238.919 193.189 238.342 193.093 237.871 192.783C237.006 192.215 236.59 191.076 236.858 190.013C237.095 189.078 237.816 188.283 238.787 187.886C239.068 187.771 239.389 187.905 239.503 188.186C239.618 188.467 239.484 188.788 239.203 188.902C238.563 189.165 238.073 189.694 237.922 190.283C237.772 190.88 238.007 191.558 238.472 191.863C238.872 192.125 239.461 192.075 239.794 191.781C239.852 191.701 239.918 191.627 239.99 191.558C240.194 191.365 240.512 191.357 240.726 191.541C240.939 191.725 240.98 192.04 240.819 192.271C240.765 192.347 240.707 192.419 240.644 192.485C240.492 192.747 240.509 193.142 240.709 193.399C240.957 193.72 241.45 193.861 241.881 193.738C242.313 193.616 242.701 193.244 242.892 192.768C243.005 192.487 243.325 192.35 243.606 192.463C243.887 192.576 244.024 192.896 243.911 193.178C243.591 193.972 242.946 194.577 242.183 194.795C241.983 194.852 241.776 194.88 241.57 194.88Z" fill="#2E3233"/>
<path d="M229.456 227.737C229.112 227.737 228.781 227.643 228.502 227.457C228.152 227.227 227.899 226.867 227.781 226.444C227.309 226.658 226.797 226.68 226.375 226.496C225.507 226.121 225.254 225.062 225.511 224.256C225.537 224.179 225.565 224.104 225.596 224.03C224.857 224.052 224.188 223.715 223.871 223.147C223.548 222.568 223.623 221.786 224.061 221.156C224.7 220.239 225.932 219.832 226.99 220.192C227.277 220.289 227.431 220.601 227.334 220.889C227.237 221.176 226.924 221.33 226.637 221.233C226.051 221.035 225.315 221.277 224.962 221.784C224.767 222.064 224.714 222.403 224.83 222.612C224.951 222.827 225.279 222.957 225.626 222.928C226.036 222.893 226.455 222.683 226.861 222.478C227.103 222.356 227.398 222.43 227.555 222.651C227.712 222.873 227.685 223.174 227.491 223.364C227.123 223.722 226.706 224.129 226.558 224.591C226.455 224.918 226.541 225.372 226.811 225.488C226.97 225.557 227.215 225.518 227.431 225.389C227.681 225.241 227.905 224.995 228.12 224.75C228.134 224.732 228.149 224.717 228.164 224.701C228.368 224.479 228.712 224.464 228.937 224.665C229.161 224.866 229.18 225.211 228.98 225.436C228.971 225.445 228.963 225.456 228.954 225.466C228.841 225.602 228.789 225.807 228.814 226.019C228.841 226.242 228.951 226.435 229.104 226.537C229.26 226.639 229.48 226.663 229.695 226.6C229.91 226.537 230.082 226.397 230.158 226.228C230.282 225.95 230.605 225.825 230.883 225.95C231.161 226.074 231.285 226.397 231.162 226.675C230.954 227.143 230.531 227.5 230.004 227.655C229.822 227.71 229.637 227.737 229.456 227.737Z" fill="#2E3233"/>
<path d="M236.441 228.483C235.755 228.483 235.097 228.123 234.796 227.519C234.661 227.247 234.771 226.917 235.042 226.782C235.314 226.647 235.644 226.757 235.779 227.029C235.926 227.324 236.4 227.468 236.753 227.324C237.13 227.17 237.43 226.74 237.497 226.253C237.523 226.07 237.51 225.926 237.463 225.835C237.441 225.792 237.4 225.764 237.384 225.761C237.088 225.802 236.822 225.601 236.772 225.307C236.724 225.013 236.925 224.734 237.218 224.677C237.576 224.608 238.056 224.451 238.311 224.095C238.493 223.84 238.493 223.454 238.312 223.297C238.18 223.184 237.937 223.152 237.692 223.217C237.394 223.295 237.096 223.49 236.805 223.678C236.551 223.843 236.21 223.773 236.045 223.518C235.881 223.264 235.951 222.923 236.206 222.758C236.551 222.532 236.943 222.277 237.414 222.153C238.017 221.996 238.621 222.112 239.03 222.464C239.643 222.994 239.722 224.011 239.205 224.734C239.019 224.995 238.771 225.213 238.466 225.386C238.599 225.673 238.639 226.016 238.585 226.403C238.463 227.28 237.906 228.04 237.166 228.342C236.931 228.437 236.684 228.483 236.441 228.483Z" fill="#2E3233"/>
<path d="M266.014 227.913C265.006 227.913 264.044 227.2 263.756 226.231C263.67 225.942 263.648 225.637 263.681 225.34C263.428 225.364 263.172 225.35 262.926 225.295C261.942 225.075 261.162 224.206 261.074 223.229C261.05 222.97 261.075 222.712 261.143 222.469C261.094 222.471 261.047 222.472 260.998 222.472C260.077 222.467 259.275 221.995 258.955 221.271C258.509 220.262 259.119 219.117 259.967 218.591C260.758 218.101 261.705 218.027 262.465 217.967C262.769 217.944 263.031 218.17 263.055 218.473C263.078 218.776 262.852 219.04 262.549 219.064C261.874 219.116 261.11 219.175 260.545 219.526C260.105 219.799 259.765 220.386 259.959 220.826C260.124 221.198 260.615 221.371 261.005 221.373C261.008 221.373 261.013 221.373 261.016 221.373C261.421 221.373 261.833 221.245 262.243 221.092C262.38 221.021 262.524 220.966 262.676 220.928C262.957 220.859 263.243 221.018 263.333 221.294C263.42 221.569 263.281 221.866 263.012 221.973C262.913 222.012 262.811 222.053 262.708 222.092C262.366 222.293 262.132 222.719 262.169 223.13C262.215 223.636 262.643 224.106 263.166 224.222C263.519 224.3 263.915 224.222 264.246 224.026C264.402 223.842 264.587 223.68 264.796 223.554C265.025 223.416 265.32 223.463 265.494 223.664C265.67 223.867 265.673 224.165 265.503 224.373C265.356 224.553 265.186 224.71 264.998 224.844C264.786 225.155 264.704 225.562 264.81 225.918C264.963 226.437 265.5 226.828 266.047 226.812C266.587 226.795 267.103 226.369 267.224 225.841C267.291 225.546 267.585 225.359 267.882 225.427C268.177 225.494 268.364 225.788 268.296 226.085C268.067 227.093 267.116 227.877 266.083 227.91C266.059 227.913 266.037 227.913 266.014 227.913Z" fill="#2E3233"/>
<path d="M274.547 223.793C274.482 223.793 274.418 223.79 274.354 223.785C273.592 223.718 272.858 223.265 272.391 222.574C272.222 222.323 272.286 221.98 272.537 221.811C272.789 221.641 273.131 221.706 273.3 221.957C273.58 222.37 274.021 222.651 274.451 222.689C274.881 222.728 275.322 222.507 275.498 222.163C275.628 221.908 275.594 221.575 275.438 221.357C275.339 221.283 275.248 221.2 275.164 221.109C274.978 220.906 274.97 220.598 275.145 220.386C275.321 220.174 275.623 220.125 275.857 220.27C275.977 220.344 276.085 220.433 276.181 220.534C276.401 220.666 276.686 220.721 276.983 220.683C277.386 220.633 277.722 220.424 277.882 220.125C278.042 219.827 278.03 219.431 277.849 219.067C277.669 218.702 277.361 218.454 277.027 218.401C276.749 218.357 276.548 218.109 276.564 217.828C276.579 217.546 276.806 217.322 277.086 217.309C277.754 217.278 278.256 217.14 278.62 216.888C279.011 216.618 279.24 216.169 279.176 215.795C279.113 215.431 278.749 215.095 278.328 215.015C277.904 214.934 277.4 215.073 276.98 215.384C276.736 215.564 276.391 215.512 276.212 215.267C276.032 215.024 276.083 214.678 276.328 214.498C277.002 214 277.805 213.794 278.535 213.934C279.41 214.1 280.119 214.788 280.26 215.608C280.397 216.401 279.989 217.278 279.246 217.793C279.041 217.936 278.813 218.052 278.562 218.145C278.666 218.277 278.758 218.423 278.835 218.578C279.174 219.26 279.181 220.033 278.854 220.645C278.526 221.258 277.879 221.68 277.124 221.775C276.975 221.794 276.827 221.8 276.681 221.792C276.685 222.089 276.62 222.389 276.479 222.665C276.127 223.347 275.352 223.793 274.547 223.793Z" fill="#2E3233"/>
<path d="M272.427 211.875C272.271 211.875 272.117 211.81 272.009 211.683C271.811 211.452 271.838 211.105 272.069 210.907C272.441 210.588 272.576 210.009 272.386 209.558C272.196 209.107 271.684 208.803 271.197 208.845C270.711 208.889 270.263 209.283 270.158 209.761C270.099 210.029 269.851 210.213 269.574 210.189C269.3 210.166 269.086 209.943 269.072 209.668C269.045 209.098 268.946 208.691 268.761 208.388C268.563 208.066 268.238 207.863 267.948 207.884C267.557 207.912 267.242 208.338 267.144 208.724C267.013 209.246 267.111 209.838 267.209 210.409C267.259 210.709 267.058 210.992 266.758 211.044C266.458 211.096 266.176 210.893 266.124 210.593C266.014 209.94 265.889 209.2 266.079 208.452C266.314 207.53 267.05 206.844 267.87 206.786C268.57 206.736 269.285 207.139 269.698 207.813C269.781 207.95 269.851 208.091 269.907 208.234C270.248 207.965 270.661 207.788 271.097 207.749C272.054 207.662 273.023 208.242 273.398 209.128C273.773 210.015 273.514 211.113 272.784 211.74C272.679 211.831 272.552 211.875 272.427 211.875Z" fill="#2E3233"/>
<path d="M173.564 257.48C173.456 257.48 173.346 257.449 173.25 257.381C173.002 257.207 172.941 256.865 173.114 256.616C174.132 255.156 175.297 254.056 176.573 253.348C178.102 252.501 179.848 252.229 181.36 252.602C181.655 252.674 181.834 252.972 181.761 253.266C181.689 253.561 181.391 253.74 181.097 253.668C179.851 253.362 178.394 253.594 177.106 254.309C175.977 254.934 174.936 255.922 174.015 257.245C173.908 257.399 173.737 257.48 173.564 257.48Z" fill="#2E3233"/>
<path d="M176.008 259.924C175.808 259.924 175.615 259.816 175.518 259.626C175.38 259.355 175.485 259.024 175.755 258.886C177.347 258.068 178.924 257.175 180.445 256.235C180.703 256.074 181.042 256.154 181.202 256.414C181.36 256.671 181.28 257.01 181.023 257.171C179.477 258.126 177.874 259.032 176.257 259.863C176.179 259.904 176.092 259.924 176.008 259.924Z" fill="#2E3233"/>
<path d="M200.007 93.116C199.824 93.116 199.645 93.0249 199.541 92.8584C198.188 90.6956 196.687 88.5925 195.08 86.6088C194.889 86.3732 194.925 86.026 195.16 85.836C195.396 85.6444 195.742 85.6805 195.932 85.9161C197.566 87.9344 199.094 90.0737 200.47 92.2742C200.632 92.5317 200.554 92.871 200.296 93.0312C200.208 93.0893 200.106 93.116 200.007 93.116Z" fill="#2E3233"/>
<path d="M184.987 96.2228H184.516C183.045 96.2228 181.848 95.0244 181.848 93.5527V84.2858C181.848 82.814 183.045 81.6156 184.516 81.6156H184.987C186.458 81.6156 187.656 82.814 187.656 84.2858V93.5527C187.656 95.0244 186.458 96.2228 184.987 96.2228ZM184.516 82.7151C183.651 82.7151 182.946 83.4203 182.946 84.2858V93.5527C182.946 94.4181 183.651 95.1234 184.516 95.1234H184.987C185.852 95.1234 186.557 94.4181 186.557 93.5527V84.2858C186.557 83.4203 185.852 82.7151 184.987 82.7151H184.516Z" fill="#2E3233"/>
<path d="M192.726 53.2087C192.013 53.2087 191.299 52.9369 190.756 52.3935C189.67 51.3066 189.67 49.538 190.756 48.4511L194.696 44.5087C195.222 43.9826 195.922 43.692 196.666 43.692C197.41 43.692 198.11 43.9826 198.636 44.5087C199.162 45.0349 199.452 45.7354 199.452 46.4799C199.452 47.2244 199.162 47.9249 198.636 48.4511L194.696 52.3935C194.153 52.9369 193.439 53.2087 192.726 53.2087ZM191.533 49.2286C190.875 49.8867 190.875 50.9579 191.533 51.616C192.191 52.2741 193.261 52.2741 193.919 51.616L197.859 47.6736C198.178 47.3548 198.354 46.9307 198.354 46.4799C198.354 46.0292 198.178 45.6051 197.859 45.2862C197.54 44.9674 197.117 44.7915 196.666 44.7915C196.216 44.7915 195.792 44.9674 195.473 45.2862L191.533 49.2286Z" fill="#2E3233"/>
<path d="M157.87 226.317C157.722 226.317 157.576 226.259 157.468 226.142C157.261 225.921 157.273 225.572 157.495 225.365C157.517 225.344 159.765 223.241 161.731 220.901C164.463 217.65 164.948 215.957 164.489 215.455C164.26 215.204 163.995 215.091 163.656 215.099C162.232 215.13 160.176 217.219 159.504 218.022C159.309 218.254 158.962 218.286 158.73 218.091C158.498 217.896 158.466 217.549 158.661 217.317C158.688 217.284 159.342 216.505 160.257 215.712C161.54 214.598 162.675 214.021 163.631 214.001C164.281 213.984 164.858 214.234 165.299 214.714C166.376 215.891 165.483 218.148 162.568 221.616C160.559 224.006 158.269 226.149 158.245 226.171C158.138 226.268 158.003 226.317 157.87 226.317Z" fill="#2E3233"/>
<path d="M179.476 74.7329C179.297 74.7329 179.121 74.645 179.016 74.4848C178.849 74.2303 178.92 73.8895 179.174 73.723C182.235 71.7188 190.175 65.8681 190.158 62.9027C190.155 62.455 189.949 62.1142 189.506 61.833C188.491 61.1844 185.463 63.0943 184.56 63.6959C182.534 65.0435 180.749 66.5859 180.73 66.6016C180.501 66.8011 180.154 66.7759 179.955 66.5466C179.755 66.3173 179.78 65.9702 180.009 65.7707C180.083 65.7063 181.859 64.1702 183.943 62.7849C186.941 60.7901 188.954 60.176 190.097 60.9064C190.85 61.387 191.25 62.0749 191.255 62.8964C191.279 66.9927 180.953 73.8722 179.776 74.6434C179.683 74.7031 179.578 74.7329 179.476 74.7329Z" fill="#2E3233"/>
<path d="M198.988 99.8167C198.935 99.8167 198.881 99.8088 198.828 99.7931C198.76 99.7727 192.122 97.6711 193.117 90.4099C194.114 83.1425 200.913 82.9854 200.982 82.9838C201.283 82.9838 201.534 83.2241 201.537 83.5273C201.54 83.8304 201.297 84.0801 200.994 84.0833C200.754 84.0864 195.073 84.2451 194.207 90.5591C193.34 96.8795 198.911 98.6685 199.148 98.7423C199.439 98.8318 199.602 99.1381 199.512 99.4287C199.442 99.6643 199.224 99.8167 198.988 99.8167Z" fill="#2E3233"/>
<path d="M167.029 183.981C165.7 183.981 164.296 182.068 163.989 181.623C163.816 181.373 163.877 181.031 164.127 180.858C164.376 180.685 164.719 180.747 164.891 180.996C165.621 182.047 166.764 183.084 167.144 182.845C167.56 182.586 168.863 181.039 170.042 179.11C171.525 176.683 171.809 175.296 171.602 174.847C171.6 174.847 171.247 174.374 168.409 174.395C166.871 174.404 165.408 174.552 165.394 174.554C165.089 174.585 164.822 174.365 164.791 174.064C164.759 173.762 164.979 173.492 165.281 173.46C165.345 173.454 166.874 173.299 168.502 173.295C168.517 173.295 168.533 173.295 168.549 173.295C171.691 173.295 172.363 173.878 172.599 174.387C173.06 175.386 172.514 177.169 170.979 179.683C169.836 181.552 168.407 183.352 167.728 183.778C167.502 183.919 167.266 183.981 167.029 183.981Z" fill="#2E3233"/>
<path d="M185.522 266.182C185.5 266.182 185.478 266.18 185.456 266.177C185.154 266.141 184.939 265.866 184.977 265.564L213.055 33.6349C213.091 33.3333 213.364 33.1197 213.667 33.1558C213.968 33.1919 214.183 33.4668 214.146 33.7684L186.066 265.699C186.032 265.977 185.795 266.182 185.522 266.182Z" fill="#2E3233"/>
</g>
<defs>
<clipPath id="clip0">
<rect width="295" height="295" fill="white"/>
</clipPath>
</defs>
</svg>
